<?xml version="1.0" encoding="utf-8" ?>
<svg baseProfile="full" height="200mm" version="1.1" viewBox="0,0,200,200" width="200mm" xmlns="http://www.w3.org/2000/svg" xmlns:ev="http://www.w3.org/2001/xml-events" xmlns:xlink="http://www.w3.org/1999/xlink"><defs /><rect fill="#1a1a1a" height="200" width="200" x="0" y="0" /><text alignment-baseline="middle" fill="#e1ed5e" style="dominant-baseline: central; font-size:9.0px; font-family:Arial;" text-anchor="middle" x="100.0" y="100.0">2025</text><line stroke="#e1ed5e" stroke-width="0.3" x1="100.0" x2="100.0" y1="15.0" y2="10.0" /><path d="M 100.0 14.0 a86.0,86.0 0 0,1 42.46469731375804,11.215312516191453" fill="none" id="id85" stroke="none" /><text fill="#e1ed5e" style="font-size:6.75px; font-family:Arial;" text-anchor="middle"><textPath startOffset="22.20632615414155" xlink:href="#id85">January</textPath></text><path d="M 100.0 79.0 l 0.0 -47.79408895643701 a68.79408895643701,68.79408895643701 0 0,0 1.184177154623324,0.010192586627913149 l -0.8226966753507955 47.78700774641765" fill="red" stroke="none" /><path d="M 101.08401301168833 79.027996857942 l 2.4431739352518087 -47.26719227003794 a68.33029224472027,68.33029224472027 0 0,0 1.1741029836083532,0.07082509830742491 l -3.256438967699774 47.21813390235021" fill="red" stroke="none" /><path d="M 101.44485096284872 79.0497635885617 l 3.2681647631559714 -47.38815710421399 a68.50071930668841,68.50071930668841 0 0,0 1.1756348225650948,0.09125188869077117 l -4.083389775083407 47.32487995333475" fill="red" stroke="none" /><path d="M 102.16513564639614 79.11191278185805 l 4.954393009565566 -47.7973717115663 a69.05345723906731,69.05345723906731 0 0,0 1.181252432287637,0.13272747433398047 l -5.7764121453629285 47.70500828376172" fill="red" stroke="none" /><path d="M 102.52436894288641 79.15227682838746 l 5.732536288724338 -47.34265565868434 a68.68845790249773,68.68845790249773 0 0,0 1.172561927597823,0.15223219095485 l -6.546612944830007 47.23696514456536" fill="red" stroke="none" /><path d="M 103.59715602781102 79.31037775812273 l 8.128483733190814 -46.75228334237747 a68.45364312175298,68.45364312175298 0 0,0 1.1591642605893433,0.2118298594312117 l -8.93204311488306 46.605438001595516" fill="red" stroke="none" /><path d="M 104.307194497241 79.44645832069477 l 9.772063755136724 -46.63140236938137 a68.6443167331593,68.6443167331593 0 0,0 1.1543923761821397,0.25230546115388885 l -10.573298855472391 46.45628341013161" fill="red" stroke="none" /><path d="M 105.01212808612495 79.60689891045804 l 12.610686753611043 -51.309744155753506 a73.83672270047208,73.83672270047208 0 0,0 1.2316356024097144,0.3139713385648713 l -13.492031244705784 51.085069821019765" fill="red" stroke="none" /><path d="M 105.71112130821622 79.79150937346287 l 6.710707312342737 -23.74547107304732 a45.67551395843372,45.67551395843372 0 0,0 0.7547547692422214,0.2203336138803057 l -7.118452299308386 23.62643913024831" fill="red" stroke="none" /><path d="M 106.0581310904928 79.89281104454417 l 15.401781872120983 -51.1191543608971 a74.3889766469598,74.3889766469598 0 0,0 1.2228648975053007,0.3799500762562017 l -16.279432142337 50.846464149758376" fill="red" stroke="none" /><path d="M 106.40334571778207 80.00007090966166 l 15.436389679965608 -48.21334230835135 a71.62418891097428,71.62418891097428 0 0,0 1.17094354267103,0.38604167598981387 l -16.264016044879053 47.9404869081023" fill="red" stroke="none" /><path d="M 107.08798089147638 80.2323363322302 l 17.17470619159267 -47.898522976611865 a71.88456579463508,71.88456579463508 0 0,0 1.1611673915097294,0.42766774978775973 l -17.996655908874974 47.59579195901778" fill="red" stroke="none" /><path d="M 107.4271985657038 80.35727306442388 l 8.813744046252198 -23.309726547506976 a45.92038193592541,45.92038193592541 0 0,0 0.736949608669145,0.28592499896452306 l -9.21367681992101 23.154558844651906" fill="red" stroke="none" /><line stroke="#e1ed5e" stroke-width="0.3" x1="143.23703022742887" x2="145.7803849466894" y1="26.81831364943548" y2="22.513508569990506" /><path d="M 143.74570117128098 25.957352633546492 a86.0,86.0 0 0,1 28.547481713284135,27.462654790039103" fill="none" id="id86" stroke="none" /><text fill="#e1ed5e" style="font-size:6.75px; font-family:Arial;" text-anchor="middle"><textPath startOffset="19.985693538727396" xlink:href="#id86">February</textPath></text><path d="M 111.2981086023043 82.29822771554956 l 24.822868470382833 -38.89224122168222 a67.13871721605884,67.13871721605884 0 0,0 0.9688211982385935,0.6301482568492578 l -25.488656694405705 38.45919404067344" fill="red" stroke="none" /><path d="M 111.60114157652 82.49532879139004 l 12.85186262072024 -19.391852785354565 a44.26401356754096,44.26401356754096 0 0,0 0.6314900319790672,0.4263848885030277 l -13.18375734710585 19.167755984552866" fill="red" stroke="none" /><path d="M 111.90073688211348 82.69761687909136 l 28.66673390390708 -41.678327799686244 a71.58522156614039,71.58522156614039 0 0,0 1.0092454748447162,0.7070409517580722 l -29.379910518335446 41.17870200516423" fill="red" stroke="none" /><path d="M 113.06298171725822 83.55741782278167 l 29.93960472086057 -37.685455099872 a69.13079530743124,69.13079530743124 0 0,0 0.9253538864501307,0.7482384887933637 l -30.58386200587519 37.16451051381451" fill="red" stroke="none" /><path d="M 113.6212207817346 84.01681056812373 l 34.18796055800819 -40.11627582021861 a73.70799021780076,73.70799021780076 0 0,0 0.9585766294173823,0.8312682070597928 l -34.87343098607234 39.52184261973915" fill="red" stroke="none" /><path d="M 113.89432698308785 84.25364557470407 l 34.99455006843372 -39.65910612309921 a73.89105059436199,73.89105059436199 0 0,0 0.9464705107081983,0.8497505696007815 l -35.67203156673791 39.05085654472912" fill="red" stroke="none" /><path d="M 114.68862486808459 84.99185889309783 l 37.28100014428585 -38.09195998922969 a74.29981601825017,74.29981601825017 0 0,0 0.9063310913347717,0.9024390175975079 l -37.931167035787944 37.44458512098207" fill="red" stroke="none" /><path d="M 114.94478906791727 85.2469230424477 l 38.129706928893356 -37.64057813960663 a74.57879872829486,74.57879872829486 0 0,0 0.8940070861907115,0.9213528877610137 l -38.77197827878718 36.9786610562955" fill="red" stroke="none" /><path d="M 115.4437574822437 85.77008943001954 l 39.32017229472193 -36.229689309316214 a74.46649732997477,74.46649732997477 0 0,0 0.8604651970555895,0.9501471619698243 l -39.93798113239355 35.54748936007684" fill="red" stroke="none" /><path d="M 115.68641384162765 86.03803664274999 l 38.391765100625065 -34.17125309626907 a72.39651900382799,72.39651900382799 0 0,0 0.8205219319786665,0.9379984098094886 l -38.97427889618158 33.50533913025664" fill="red" stroke="none" /><path d="M 115.9244219780498 86.31012108654704 l 15.751967606486335 -13.54162364440434 a41.77257938731937,41.77257938731937 0 0,0 0.4640523532537347,0.5492916166055192 l -15.982730573227187 13.268473078169713" fill="red" stroke="none" /><path d="M 116.15771136456269 86.58626213691792 l 47.36268220631828 -39.31934351800507 a82.55675787810455,82.55675787810455 0 0,0 0.8983020792585572,1.1012121327375342 l -48.03248277765325 38.49824721565944" fill="red" stroke="none" /><path d="M 116.60985879189232 87.15038557335679 l 25.758155880802622 -19.926862446973157 a53.566277671240165,53.566277671240165 0 0,0 0.5579158913969556,0.7341519149127036 l -26.09734771242369 19.480525756179418" fill="red" stroke="none" /><path d="M 116.82858285166822 87.43820079747576 l 34.24626926459081 -25.563338382632875 a63.73512873278666,63.73512873278666 0 0,0 0.6486942812596918,0.8848182706209234 l -34.681226158364126 24.97005766834046" fill="red" stroke="none" /><path d="M 117.2510076193507 88.02491185347247 l 51.75302285805209 -35.92526443958259 a84.0,84.0 0 0,0 0.8143021373250665,1.1948879069183742 l -52.36374946104589 35.02909850939381" fill="red" stroke="none" /><path d="M 117.65298651832404 88.62581576622439 l 18.580069316729872 -11.971522850563572 a43.10285807709158,43.10285807709158 0 0,0 0.3964896525438669,0.6271514131283839 l -18.783386565519695 11.649923789720981" fill="red" stroke="none" /><line stroke="#e1ed5e" stroke-width="0.3" x1="172.23445277983987" x2="176.4835382374775" y1="55.19839476539836" y2="52.563006222186495" /><path d="M 173.08426987136738 54.67131705675599 a86.0,86.0 0 0,1 12.851231095245387,41.99856678651699" fill="none" id="id87" stroke="none" /><text fill="#e1ed5e" style="font-size:6.75px; font-family:Arial;" text-anchor="middle"><textPath startOffset="22.20632615414155" xlink:href="#id87">March</textPath></text><path d="M 118.03404312379186 89.2402003453031 l 40.326286373548584 -24.060204315741004 a67.95852217006677,67.95852217006677 0 0,0 0.5907224171161651,1.0097360963364317 l -40.73446846513508 23.362488807050678" fill="red" stroke="none" /><path d="M 118.3937258080291 89.86733742301442 l 47.67967942567345 -26.265592324329525 a75.43558735131703,75.43558735131703 0 0,0 0.6167466370913882,1.1427378509494945 l -48.1247341619833 25.440973490047572" fill="red" stroke="none" /><path d="M 118.89224826269711 90.83032412892265 l 42.93517495062519 -20.839321624975625 a68.7253242401764,68.7253242401764 0 0,0 0.5073951618575183,1.0687036127710774 l -43.28752830632447 20.097175596564007" fill="red" stroke="none" /><path d="M 119.04729006885535 91.15688171328212 l 47.720335086125154 -22.155202463075533 a73.61257812455055,73.61257812455055 0 0,0 0.5236927911505934,1.1538876471902983 l -48.094630194239095 21.33049280704317" fill="red" stroke="none" /><path d="M 119.47837535516314 92.15188598940014 l 49.33610965639787 -19.878219120581477 a74.1901805922293,74.1901805922293 0 0,0 0.46706763855877137,1.1886361946293815 l -49.670970844838344 19.02603392105631" fill="red" stroke="none" /><path d="M 120.08093135843002 93.85539295169968 l 50.66725538094968 -15.50378162122039 a73.98620586904545,73.98620586904545 0 0,0 0.3621593170674969,1.2210211781110747 l -50.92662059512889 14.629331056362787" fill="red" stroke="none" /><path d="M 120.18372546131832 94.20196356495316 l 41.07444064241714 -11.799164819711558 a63.73558194912253,63.73558194912253 0 0,0 0.2938308342060365,1.0570658458521174 l -41.271458247189535 11.090387670440489" fill="red" stroke="none" /><path d="M 120.37134235888165 94.90015583598534 l 51.514790238054886 -12.89642075262858 a74.10453164749336,74.10453164749336 0 0,0 0.29912541122578556,1.2400679438996232 l -51.72914844954149 12.00776757706955" fill="red" stroke="none" /><path d="M 120.53481517161879 95.60439243477599 l 51.61390214619193 -11.048283456580464 a73.78313615250259,73.78313615250259 0 0,0 0.2551515855711612,1.2442097464862205 l -51.79643302767809 10.158198053930832" fill="red" stroke="none" /><path d="M 120.6074358757038 95.95851677861258 l 41.77510182157285 -8.192837483614008 a63.57090224831616,63.57090224831616 0 0,0 0.2013510734973261,1.0756254859195804 l -41.909938618980036 7.472533920231864" fill="red" stroke="none" /><path d="M 120.67395015179393 96.31383870115 l 21.869336271400023 -3.8992984119281178 a43.2142386107838,43.2142386107838 0 0,0 0.12426797264410178,0.7334366089520853 l -21.933216105564348 3.5222760146601946" fill="red" stroke="none" /><path d="M 120.78858239683441 97.02765380044208 l 52.16158603663008 -7.458050244084926 a73.69206364624617,73.69206364624617 0 0,0 0.1687337741807665,1.2572626066596835 l -52.28223580986868 6.559069295360578" fill="red" stroke="none" /><path d="M 120.83666639777658 97.38593545837742 l 32.54351257315335 -4.082747242447878 a53.79861331893021,53.79861331893021 0 0,0 0.10736575681394214,0.9198442372191366 l -32.60896868297088 3.5219592669038886" fill="red" stroke="none" /><path d="M 120.94382443527127 98.46500227214037 l 52.414987250232414 -3.8415565687898834 a73.55557482620887,73.55557482620887 0 0,0 0.08167964444179443,1.263547947248213 l -52.47334748567862 2.9387495572886353" fill="red" stroke="none" /><path d="M 120.96714384426684 98.82574320788733 l 53.01635689005525 -2.969160589234918 a74.09943514293137,74.09943514293137 0 0,0 0.060360665106266816,1.2741182397915185 l -53.05961116339502 2.0561312428204" fill="red" stroke="none" /><path d="M 120.98425023603335 99.18683210126433 l 52.918671811348624 -2.050669653511103 a73.95839000861955,73.95839000861955 0 0,0 0.038346740380115096,1.2725416265951868 l -52.94613024618438 1.1394578794909171" fill="red" stroke="none" /><line stroke="#e1ed5e" stroke-width="0.3" x1="184.98032266829074" x2="189.97916517819016" y1="98.17113171792111" y2="98.06355123074" /><path d="M 185.9800911702706 98.14961562048488 a86.0,86.0 0 0,1 -9.607161424134198,41.387399972396054" fill="none" id="id88" stroke="none" /><text fill="#e1ed5e" style="font-size:6.75px; font-family:Arial;" text-anchor="middle"><textPath startOffset="21.466115282336823" xlink:href="#id88">April</textPath></text><path d="M 120.99980553446 99.90962569577887 l 32.730888794452 -0.14085993779722147 a53.73119189392375,53.73119189392375 0 0,0 -0.003980464803219567,0.924919837832021 l -32.72846403235928 -0.4225693782384843" fill="red" stroke="none" /><path d="M 120.9904718944345 100.63252640178507 l 46.76908149243082 1.4093384360283805 a67.79031116024879,67.79031116024879 0 0,0 -0.04518665569508381,1.1660668010991528 l -46.73789270388454 -2.2141824841415394" fill="red" stroke="none" /><path d="M 120.9764740272857 100.99374915477107 l 52.53843838445762 2.4889802103839194 a73.59736238981127,73.59736238981127 0 0,0 -0.07084148852147586,1.2649223661711642 l -52.48781054504862 -3.392974292890507" fill="red" stroke="none" /><path d="M 120.89721153311464 102.0752229133903 l 52.51813454789565 5.215376989872664 a73.77645889539544,73.77645889539544 0 0,0 -0.1363729684629285,1.262644318348601 l -52.42057927793167 -6.118617630106056" fill="red" stroke="none" /><path d="M 120.64145759157962 103.86396538481128 l 51.8589690098171 9.70770887941929 a73.75976003024205,73.75976003024205 0 0,0 -0.24435578328585095,1.2459648745471823 l -51.684183293555584 -10.598937481034417" fill="red" stroke="none" /><path d="M 120.5718875245553 104.21870165774334 l 51.60121239513799 10.581922539343678 a73.67506246106228,73.67506246106228 0 0,0 -0.2654616391977607,1.2401484016017186 l -51.41141671721579 -11.468584760361566" fill="red" stroke="none" /><path d="M 120.41448212921028 104.9243191809786 l 40.935495246031586 9.874335442213328 a63.10958645561869,63.10958645561869 0 0,0 -0.2638241738248092,1.0538464303394592 l -40.75945975791171 -10.577509711950182" fill="red" stroke="none" /><path d="M 120.13307415673323 105.97154293290107 l 50.76132141086866 15.055992332617393 a73.94709299383061,73.94709299383061 0 0,0 -0.37245822332126693,1.2172150241024757 l -50.494636415041256 -15.927534329271925" fill="red" stroke="none" /><path d="M 120.02730092923936 106.31721596034902 l 50.120817370114246 15.809620505275422 a73.55511806065296,73.55511806065296 0 0,0 -0.3912703173709399,1.204206214357887 l -49.841254801727054 -16.670025619611103" fill="red" stroke="none" /><path d="M 119.79798401119884 107.00284435728193 l 49.666548024235986 17.56780414513183 a73.68200580013493,73.68200580013493 0 0,0 -0.433235243656611,1.1920773234096604 l -49.356788519574145 -18.420129265547622" fill="red" stroke="none" /><path d="M 119.26925614724726 108.34839909993367 l 48.50351352603811 21.014131815474542 a73.86004691947124,73.86004691947124 0 0,0 -0.5154689694388093,1.162246446250829 l -48.13460347186803 -21.845926598218057" fill="red" stroke="none" /><path d="M 118.97047184881838 109.00673069616215 l 47.553445861442825 22.57724973642235 a73.64088163165542,73.64088163165542 0 0,0 -0.5535225402656244,1.140420380908011 l -47.157770064562484 -23.392459073295633" fill="red" stroke="none" /><path d="M 118.64920377521936 109.65438752849418 l 19.242168987627622 9.961355912801944 a42.667710515186705,42.667710515186705 0 0,0 -0.3432667938727214,0.6493314105383395 l -19.067849685530007 -10.291102338426416" fill="red" stroke="none" /><line stroke="#e1ed5e" stroke-width="0.3" x1="174.80103733775053" x2="179.2010983576182" y1="140.37084112569926" y2="142.7455964860345" /><path d="M 175.68104954172406 140.8457921977663 a86.0,86.0 0 0,1 -30.038265399797805,32.042727171017184" fill="none" id="id89" stroke="none" /><text fill="#e1ed5e" style="font-size:6.75px; font-family:Arial;" text-anchor="middle"><textPath startOffset="22.206326154141568" xlink:href="#id89">May</textPath></text><path d="M 118.48025628344425 109.97397251340804 l 46.244575952435824 24.958643558261407 a73.54992572106025,73.54992572106025 0 0,0 -0.6108972442305761,1.1089559453780595 l -45.80810229875374 -25.750970022037272" fill="red" stroke="none" /><path d="M 118.12598468904814 110.60418214915192 l 45.400900564498144 26.560731876396343 a73.59956511110396,73.59956511110396 0 0,0 -0.6491450951842849,1.088004518284974 l -44.93697459361563 -27.33829848856742" fill="red" stroke="none" /><path d="M 117.94076556474637 110.91462005526583 l 44.999563800763056 27.376375872339537 a73.6728269429557,73.6728269429557 0 0,0 -0.668441839440756,1.0777410816936814 l -44.52165732165434 -28.146913285398494" fill="red" stroke="none" /><path d="M 117.75023020441432 111.22182372390056 l 18.75915175784374 11.859671216211558 a43.19363818823874,43.19363818823874 0 0,0 -0.40271925191945046,0.6250292222006485 l -18.55222764254724 -12.180822038333659" fill="red" stroke="none" /><path d="M 116.93607887273984 112.41649034213515 l 23.763945395178993 17.422261711664586 a50.466257039108015,50.466257039108015 0 0,0 -0.5196552141322196,0.6961630801715221 l -23.46052891435168 -17.828737671345422" fill="red" stroke="none" /><path d="M 116.71984013943494 112.70617746262583 l 33.645175379969054 25.56852012781888 a63.25810038176769,63.25810038176769 0 0,0 -0.6662981219134341,0.8612801404638207 l -33.20007044083755 -26.14387826239595" fill="red" stroke="none" /><path d="M 116.498646956653 112.99209946851258 l 41.294539611386405 32.51798572010916 a73.56099691795794,73.56099691795794 0 0,0 -0.7919439892637326,0.9880718935615261 l -40.728677710067814 -33.223985447248936" fill="red" stroke="none" /><path d="M 115.80600337817218 113.82643327865902 l 23.689614134947277 20.72268753822724 a52.47423703077951,52.47423703077951 0 0,0 -0.6005580234192054,0.6747333057833718 l -23.329397261879734 -21.127395013751478" fill="red" stroke="none" /><path d="M 115.32070863581623 114.36230785411682 l 38.23525975966241 35.84341851307191 a73.40883264862981,73.40883264862981 0 0,0 -0.8721439436548151,0.9144394381365363 l -37.61260926462864 -36.49626506779095" fill="red" stroke="none" /><path d="M 115.07121518719521 114.62390073753431 l 15.710709306126558 15.244414637795968 a42.89106129338319,42.89106129338319 0 0,0 -0.518694624608205,0.5254349162371806 l -15.445974056462818 -15.512590048013813" fill="red" stroke="none" /><path d="M 114.81725581225074 114.88116024355365 l 37.26560397348081 37.42632450495169 a73.81529139802464,73.81529139802464 0 0,0 -0.908104002289252,0.8887708967967088 l -36.61585001881576 -38.06224550467097" fill="red" stroke="none" /><path d="M 114.0293411484842 115.62618273729858 l 14.937557187692967 16.637773348961407 a43.35947487636971,43.35947487636971 0 0,0 -0.559662725675938,0.49383728453968967 l -14.648952109110441 -16.892433775273386" fill="red" stroke="none" /><path d="M 113.75828350139079 115.86535959552629 l 21.205234427046776 24.45280833604876 a53.36667734917419,53.36667734917419 0 0,0 -0.6991912066253109,0.5958659149153748 l -20.781177743844417 -24.814198641187083" fill="red" stroke="none" /><path d="M 113.20401910651253 116.32954008644616 l 32.98046298773442 40.78726242997747 a73.45294763325671,73.45294763325671 0 0,0 -0.9900145935913377,0.7865274685274706 l -32.27349090142573 -41.34892381251006" fill="red" stroke="none" /><path d="M 112.92097659922987 116.55440617244103 l 32.40896597941748 41.52249501667525 a73.67313042021388,73.67313042021388 0 0,0 -1.0064145047386392,0.7716757265175308 l -31.689422746185347 -42.074210085020155" fill="red" stroke="none" /><path d="M 112.04921762599082 117.19931262002967 l 30.20087331310703 43.10937669426694 a73.63564484113923,73.63564484113923 0 0,0 -1.044374755347039,0.7183304798451458 l -29.454341673137108 -43.62284796347718" fill="red" stroke="none" /><line stroke="#e1ed5e" stroke-width="0.3" x1="143.8653032363475" x2="146.44561519142675" y1="172.8068346515853" y2="177.08958963109032" /><path d="M 144.38136562736335 173.6633856474863 a86.0,86.0 0 0,1 -40.68145358897372,12.25698825130547" fill="none" id="id90" stroke="none" /><text fill="#e1ed5e" style="font-size:6.75px; font-family:Arial;" text-anchor="middle"><textPath startOffset="21.466115282336833" xlink:href="#id90">June</textPath></text><line stroke="#e1ed5e" stroke-width="0.3" x1="102.19456741930631" x2="102.32365962044197" y1="184.97166512339345" y2="189.96999836594603" /><path d="M 102.22038585953345 185.97133177190398 a86.0,86.0 0 0,1 -42.740103519485714,-10.115201625700543" fill="none" id="id91" stroke="none" /><text fill="#e1ed5e" style="font-size:6.75px; font-family:Arial;" text-anchor="middle"><textPath startOffset="22.20632615414155" xlink:href="#id91">July</textPath></text><line stroke="#e1ed5e" stroke-width="0.3" x1="58.666819895761336" x2="56.23545636021788" y1="174.27360380694188" y2="178.64263932499728" /><path d="M 58.180547188652646 175.14741091055294 a86.0,86.0 0 0,1 -31.652253787137756,-30.449443065178592" fill="none" id="id92" stroke="none" /><text fill="#e1ed5e" style="font-size:6.75px; font-family:Arial;" text-anchor="middle"><textPath startOffset="22.20632615414155" xlink:href="#id92">August</textPath></text><line stroke="#e1ed5e" stroke-width="0.3" x1="26.63291911575756" x2="22.317208475507996" y1="142.92168965132927" y2="145.44649492493687" /><path d="M 25.769776987707644 143.4266507060508 a86.0,86.0 0 0,1 -11.730757126820373,-40.83630448921669" fill="none" id="id93" stroke="none" /><text fill="#e1ed5e" style="font-size:6.75px; font-family:Arial;" text-anchor="middle"><textPath startOffset="21.46611528233685" xlink:href="#id93">September</textPath></text><line stroke="#e1ed5e" stroke-width="0.3" x1="15.007084014347285" x2="10.007500721073583" y1="101.09737516637583" y2="101.16192664675087" /><path d="M 14.007167355692545 101.11028546245083 a86.0,86.0 0 0,1 10.666146001902534,-42.60595125391555" fill="none" id="id94" stroke="none" /><text fill="#e1ed5e" style="font-size:6.75px; font-family:Arial;" text-anchor="middle"><textPath startOffset="22.20632615414155" xlink:href="#id94">October</textPath></text><line stroke="#e1ed5e" stroke-width="0.3" x1="26.266209847984243" x2="21.928928074336255" y1="57.711370442889674" y2="55.22380399835377" /><path d="M 25.398753493254645 57.213857153982495 a86.0,86.0 0 0,1 29.58750427330803,-30.492523968695096" fill="none" id="id95" stroke="none" /><text fill="#e1ed5e" style="font-size:6.75px; font-family:Arial;" text-anchor="middle"><textPath startOffset="21.46611528233685" xlink:href="#id95">November</textPath></text><line stroke="#e1ed5e" stroke-width="0.3" x1="56.762969772571076" x2="54.21961505331055" y1="26.818313649435495" y2="22.513508569990535" /><path d="M 56.25429882871897 25.957352633546506 a86.0,86.0 0 0,1 42.265352541879196,-11.944610805530505" fill="none" id="id96" stroke="none" /><text fill="#e1ed5e" style="font-size:6.75px; font-family:Arial;" text-anchor="middle"><textPath startOffset="22.20632615414155" xlink:href="#id96">December</textPath></text></svg>