<?xml version="1.0" encoding="utf-8" ?>
<svg baseProfile="full" height="200mm" version="1.1" viewBox="0,0,200,200" width="200mm" xmlns="http://www.w3.org/2000/svg" xmlns:ev="http://www.w3.org/2001/xml-events" xmlns:xlink="http://www.w3.org/1999/xlink"><defs /><rect fill="#1a1a1a" height="200" width="200" x="0" y="0" /><text alignment-baseline="middle" fill="#e1ed5e" style="dominant-baseline: central; font-size:9.0px; font-family:Arial;" text-anchor="middle" x="100.0" y="100.0">2019</text><line stroke="#e1ed5e" stroke-width="0.3" x1="100.0" x2="100.0" y1="15.0" y2="10.0" /><path d="M 100.0 14.0 a86.0,86.0 0 0,1 42.46469731375804,11.215312516191453" fill="none" id="id13" stroke="none" /><text fill="#e1ed5e" style="font-size:6.75px; font-family:Arial;" text-anchor="middle"><textPath startOffset="22.20632615414155" xlink:href="#id13">January</textPath></text><path d="M 101.44485096284872 79.0497635885617 l 0.6259693146801396 -9.076510634009287 a30.098070282878936,30.098070282878936 0 0,0 0.5165542767243497,0.04009455356174789 l -0.7821137807668305 9.064390818259076" fill="#ff6309" stroke="none" /><path d="M 103.95276090670814 79.375362276772 l 1.3209415572308614 -6.892382745743157 a28.017822063249927,28.017822063249927 0 0,0 0.47287891775185076,0.09485506228713231 l -1.4393868844498376 6.868623727378815" fill="#ff4606" stroke="none" /><path d="M 104.307194497241 79.44645832069477 l 1.1948172313259438 -5.701559513725335 a26.825407205065176,26.825407205065176 0 0,0 0.4511232253339591,0.09859806401489578 l -1.2927831808134307 5.680147951614568" fill="#ff3505" stroke="none" /><path d="M 105.01212808612495 79.60689891045804 l 1.3074461186262223 -5.319672683562205 a26.477986200543835,26.477986200543835 0 0,0 0.4416668195986224,0.1125907064376489 l -1.3988218269098698 5.296378980955688" fill="#ff3004" stroke="none" /><path d="M 109.08828744355905 81.06846463323043 l 2.450408362508654 -5.104371188296587 a26.662076153758854,26.662076153758854 0 0,0 0.412029037764321,0.2021808594084878 l -2.537908667283407 5.061435168753267" fill="#ff3204" stroke="none" /><line stroke="#e1ed5e" stroke-width="0.3" x1="143.23703022742887" x2="145.7803849466894" y1="26.81831364943548" y2="22.513508569990506" /><path d="M 143.74570117128098 25.957352633546492 a86.0,86.0 0 0,1 28.547481713284135,27.462654790039103" fill="none" id="id14" stroke="none" /><text fill="#e1ed5e" style="font-size:6.75px; font-family:Arial;" text-anchor="middle"><textPath startOffset="19.985693538727396" xlink:href="#id14">February</textPath></text><path d="M 113.6212207817346 84.01681056812373 l 3.6912965026833855 -4.331380585998964 a26.6909162400699,26.6909162400699 0 0,0 0.34711689261728007,0.3010163487310456 l -3.76530719394743 4.267199243848247" fill="#ff3304" stroke="none" /><path d="M 114.16331599549186 84.49514656593476 l 5.737056986019142 -6.28046622269955 a29.506355202747002,29.506355202747002 0 0,0 0.3720500112207767,0.3457799379547004 l -5.844314881034765 6.180781698670209" fill="#ff5b08" stroke="none" /><path d="M 114.94478906791727 85.2469230424477 l 7.823610848080935 -7.723249381649821 a31.99351935066128,31.99351935066128 0 0,0 0.38351962621274027,0.39525068713913303 l -7.955394737996785 7.587434498960573" fill="#ff7d0b" stroke="none" /><path d="M 115.4437574822437 85.77008943001954 l 8.127997751217093 -7.48915419358283 a32.0522295478808,32.0522295478808 0 0,0 0.37036558724894686,0.40896693186434585 l -8.255706979082074 7.348134474448935" fill="#ff7e0b" stroke="none" /><path d="M 115.9244219780498 86.31012108654704 l 4.397474302677026 -3.780412928748703 a26.799077698613388,26.799077698613388 0 0,0 0.29771144740098077,0.3523964506983946 l -4.461896363565124 3.704157528421202" fill="#ff3405" stroke="none" /><path d="M 116.15771136456269 86.58626213691792 l 7.515972050556 -6.239576670092238 a30.76842632601067,30.76842632601067 0 0,0 0.3347919910442551,0.4104153947696404 l -7.622262533676664 6.109277105714496" fill="#ff6d0a" stroke="none" /><path d="M 116.60985879189232 87.15038557335679 l 17.42154116410495 -13.477543035219126 a43.02621762352281,43.02621762352281 0 0,0 0.44813661882941447,0.5896952603955067 l -17.650953723158477 13.175662998942585" fill="#f1ff19" stroke="none" /><path d="M 116.82858285166822 87.43820079747576 l 8.879390453586451 -6.628075631912561 a32.0803863384629,32.0803863384629 0 0,0 0.32651323645412433,0.4453636875804701 l -8.992166302554201 6.474249500660598" fill="#ff7f0b" stroke="none" /><path d="M 117.2510076193507 88.02491185347247 l 9.108087419574405 -6.322537912123837 a32.0874587752493,32.0874587752493 0 0,0 0.31105816978589845,0.4564394815986578 l -9.215570055029035 6.164820407254773" fill="#ff7f0b" stroke="none" /><line stroke="#e1ed5e" stroke-width="0.3" x1="172.23445277983987" x2="176.4835382374775" y1="55.19839476539836" y2="52.563006222186495" /><path d="M 173.08426987136738 54.67131705675599 a86.0,86.0 0 0,1 12.851231095245387,41.99856678651699" fill="none" id="id15" stroke="none" /><text fill="#e1ed5e" style="font-size:6.75px; font-family:Arial;" text-anchor="middle"><textPath startOffset="22.20632615414155" xlink:href="#id15">March</textPath></text><path d="M 118.03404312379186 89.2402003453031 l 9.991645360355385 -5.961397650001901 a32.63491465153739,32.63491465153739 0 0,0 0.2836756163868915,0.48489358320729375 l -10.092780651212605 5.788524654440712" fill="#ff860c" stroke="none" /><path d="M 118.21658344932153 89.55222093294921 l 19.214612719702753 -11.020179997686403 a43.150523902372385,43.150523902372385 0 0,0 0.3639897896920711,0.6474972207900174 l -19.401460150687257 10.687799266961592" fill="#f0ff19" stroke="none" /><path d="M 118.56541770881063 90.18545643968196 l 10.023126841365498 -5.298691176147891 a32.33751294853898,32.33751294853898 0 0,0 0.25591379081475096,0.49434398813049135 l -10.112850065340364 5.125374465757055" fill="#ff820c" stroke="none" /><path d="M 119.04729006885535 91.15688171328212 l 6.736984455016722 -3.127791418943445 a28.427653647522426,28.427653647522426 0 0,0 0.2022393137670623,0.4456075200488114 l -6.789826085747131 3.0113618900525707" fill="#ff4c07" stroke="none" /><path d="M 119.196687751892 91.48605970444005 l 20.274365203146214 -8.991901993767241 a43.17891309005158,43.17891309005158 0 0,0 0.295486235711233,0.682022971799564 l -20.426142148700126 8.641579877381075" fill="#efff19" stroke="none" /><path d="M 119.85752413597 93.16781622104841 l 5.508679029341858 -1.895317223336299 a26.825613446272072,26.825613446272072 0 0,0 0.14647130638009284,0.4379305628567098 l -5.540487629493721 1.8002135575572753" fill="#ff3505" stroke="none" /><path d="M 119.97218684219823 93.5106431181261 l 9.467328543332467 -3.0761215144367093 a30.95453832776679,30.95453832776679 0 0,0 0.16029220455388188,0.5081700922306968 l -9.518876231654556 2.9127012557795933" fill="#ff6f0a" stroke="none" /><path d="M 120.18372546131832 94.20196356495316 l 42.83559920156318 -12.305080415590675 a65.56796565910444,65.56796565910444 0 0,0 0.3022784048977002,1.0874562522324005 l -43.04106437702724 11.565912859939322" fill="#36ff6b" stroke="none" /><path d="M 120.67395015179393 96.31383870115 l 36.24184343031533 -6.461913648380203 a57.81341526164901,57.81341526164901 0 0,0 0.166249739371872,0.98121537263094 l -36.34770503120742 5.837112487433425" fill="#4bff2c" stroke="none" /><path d="M 120.96714384426684 98.82574320788733 l 21.025595108288694 -1.1775303325765019 a42.058542858940434,42.058542858940434 0 0,0 0.03426047196539592,0.7231844141897112 l -21.042749188487587 0.8154348117637907" fill="#fdff18" stroke="none" /><line stroke="#e1ed5e" stroke-width="0.3" x1="184.98032266829074" x2="189.97916517819016" y1="98.17113171792111" y2="98.06355123074" /><path d="M 185.9800911702706 98.14961562048488 a86.0,86.0 0 0,1 -9.607161424134198,41.387399972396054" fill="none" id="id16" stroke="none" /><text fill="#e1ed5e" style="font-size:6.75px; font-family:Arial;" text-anchor="middle"><textPath startOffset="21.466115282336823" xlink:href="#id16">April</textPath></text><path d="M 120.8583938346157 102.4346265915055 l 7.145150030539301 0.8339938541086562 a28.19365795041763,28.19365795041763 0 0,0 -0.06041295507520927,0.48155069278613516 l -7.129735566217244 -0.9568623011821863" fill="#ff4806" stroke="none" /><path d="M 120.64145759157962 103.86396538481128 l 4.394599913338102 0.8226445186777922 a25.47093417558589,25.47093417558589 0 0,0 -0.0843816475127599,0.43026020274024024 l -4.379788332849678 -0.8981684484859773" fill="#ff2103" stroke="none" /><path d="M 120.41448212921028 104.9243191809786 l 6.971062169654183 1.6815383773416512 a28.171002655672112,28.171002655672112 0 0,0 -0.11776644276818118,0.4704183984574398 l -6.941084412590941 -1.801284615196487" fill="#ff4806" stroke="none" /><path d="M 120.02730092923936 106.31721596034902 l 22.90597519943667 7.225236821901391 a45.01848760787755,45.01848760787755 0 0,0 -0.2394720911109039,0.7370193124249665 l -22.77821085730952 -7.618455034304152" fill="#d9ff1c" stroke="none" /><path d="M 119.67450827220406 107.3425965602758 l 6.753316864704063 2.5203619066446694 a28.208294723134028,28.208294723134028 0 0,0 -0.17369018431492986,0.4534502627788112 l -6.708932400795626 -2.636235736256624" fill="#ff4906" stroke="none" /><line stroke="#e1ed5e" stroke-width="0.3" x1="174.80103733775053" x2="179.2010983576182" y1="140.37084112569926" y2="142.7455964860345" /><path d="M 175.68104954172406 140.8457921977663 a86.0,86.0 0 0,1 -30.038265399797805,32.042727171017184" fill="none" id="id17" stroke="none" /><text fill="#e1ed5e" style="font-size:6.75px; font-family:Arial;" text-anchor="middle"><textPath startOffset="22.206326154141568" xlink:href="#id17">May</textPath></text><path d="M 116.71984013943494 112.70617746262583 l 5.015315131701718 3.811369221413401 a27.299200045419546,27.299200045419546 0 0,0 -0.28754271168795237,0.37168771600428285 l -4.948965602795697 -3.8971349315309363" fill="#ff3c05" stroke="none" /><path d="M 116.0416608686014 113.55231037782055 l 5.511100721054072 4.655886201991949 a28.214534460621955,28.214534460621955 0 0,0 -0.31661744688661675,0.36829762057870113 l -5.430140764596676 -4.750060921732178" fill="#ff4906" stroke="none" /><path d="M 115.80600337817218 113.82643327865902 l 4.147076896545986 3.6276901022775934 a26.50984412338755,26.50984412338755 0 0,0 -0.3034003062980096,0.3408734604503778 l -4.084017740599638 -3.6985377324688375" fill="#ff3004" stroke="none" /><path d="M 115.32070863581623 114.36230785411682 l 6.159584293841363 5.774265928843524 a29.442903865965807,29.442903865965807 0 0,0 -0.3498005534732108,0.3667644818324783 l -6.059277188989188 -5.879437527258509" fill="#ff5a08" stroke="none" /><path d="M 115.07121518719521 114.62390073753431 l 4.2193393769183345 4.094109165029232 a26.879162749302825,26.879162749302825 0 0,0 -0.3250578748020703,0.3292819110047126 l -4.148240877060729 -4.166131570014609" fill="#ff3505" stroke="none" /><path d="M 114.55890576462653 115.13401014063108 l 7.717345522938069 8.022195300327546 a32.13162339270466,32.13162339270466 0 0,0 -0.4018964784815989,0.3800182055177305 l -7.578113210065662 -8.1538481425912" fill="#ff7f0b" stroke="none" /><path d="M 114.0293411484842 115.62618273729858 l 7.513131108170402 8.368287461470553 a32.24612707052357,32.24612707052357 0 0,0 -0.41621711102910985,0.36726320774949406 l -7.3679716442347045 -8.496373810992335" fill="#ff810b" stroke="none" /><path d="M 113.48314897796784 116.09983520530334 l 5.425575312746618 6.4785213433388975 a29.45033172546399,29.45033172546399 0 0,0 -0.39145082423071276,0.3221373785054464 l -5.313254359971214 -6.570953840701522" fill="#ff5a08" stroke="none" /><path d="M 112.34349029814194 116.9893568818739 l 6.603649991060314 9.08914445681504 a32.23480040593879,32.23480040593879 0 0,0 -0.45170575484349845,0.3222800625491971 l -6.446216908367931 -9.201468781208456" fill="#ff810b" stroke="none" /><path d="M 111.1453310114006 117.79835938074945 l 4.542012945055217 7.253295449495134 a29.55804746836076,29.55804746836076 0 0,0 -0.4335473061734894,0.2663201656689579 l -4.416486438949419 -7.33040408199247" fill="#ff5c08" stroke="none" /><line stroke="#e1ed5e" stroke-width="0.3" x1="143.8653032363475" x2="146.44561519142675" y1="172.8068346515853" y2="177.08958963109032" /><path d="M 144.38136562736335 173.6633856474863 a86.0,86.0 0 0,1 -40.68145358897372,12.25698825130547" fill="none" id="id18" stroke="none" /><text fill="#e1ed5e" style="font-size:6.75px; font-family:Arial;" text-anchor="middle"><textPath startOffset="21.466115282336833" xlink:href="#id18">June</textPath></text><path d="M 110.8373102113329 117.98757091392108 l 2.2736169439978577 3.7737081631645917 a25.40570168177207,25.40570168177207 0 0,0 -0.37652717249693973,0.22245889033920652 l -2.208321900472536 -3.8122856257975477" fill="#ff2003" stroke="none" /><path d="M 110.5260780823613 118.17145234162733 l 3.5569648429746024 6.14048429236594 a28.096305111743025,28.096305111743025 0 0,0 -0.4205765788968875,0.23881435787211083 l -3.4507394971565155 -6.20080181603268" fill="#ff4706" stroke="none" /><path d="M 110.21172684928248 118.3499491758327 l 2.8308579481974214 5.086906479198924 a26.821543974839365,26.821543974839365 0 0,0 -0.40535934324170975,0.2210342342420169 l -2.7428757930870633 -5.1348813652007115" fill="#ff3505" stroke="none" /><path d="M 109.57404056367764 118.69057910512821 l 4.3771990961807345 8.545230764578617 a30.60108539424092,30.60108539424092 0 0,0 -0.47088672218167166,0.23611237794988935 l -4.229458466316302 -8.619310983437808" fill="#ff6a09" stroke="none" /><path d="M 108.2653958097858 119.30500536409082 l 3.372324896051989 7.876543568628906 a29.5681102813305,29.5681102813305 0 0,0 -0.46960993655001315,0.19629699156439906 l -3.2362435000045147 -7.933425603213278" fill="#ff5c08" stroke="none" /><path d="M 107.93186726928326 119.44442032107085 l 1.7168393413056295 4.20871210305989 a25.545414710485453,25.545414710485453 0 0,0 -0.40857935262010164,0.16258215652438135 l -1.6441389126436616 -4.237641103990341" fill="#ff2203" stroke="none" /><path d="M 107.2578585660854 119.70592522655815 l 2.5164819463812207 6.832539462961521 a28.28122770550332,28.28122770550332 0 0,0 -0.4582642185504375,0.16431724451225077 l -2.3984981672010486 -6.874844248513732" fill="#ff4a06" stroke="none" /><path d="M 106.2309692047433 120.05430185196036 l 3.398592117558731 10.938329168010025 a32.45414655787463,32.45414655787463 0 0,0 -0.5349139193744935,0.16116517594174487 l -3.2098032237439917 -10.995209713057495" fill="#ff840c" stroke="none" /><path d="M 105.88484417918355 120.15858648285463 l 2.685363286538086 9.1987360074963 a30.58268856408762,30.58268856408762 0 0,0 -0.5066078165242758,0.14317242931846325 l -2.5266243019092043 -9.243597230153282" fill="#ff6a09" stroke="none" /><path d="M 105.18746579009965 120.34920634021253 l 2.8035758637412886 10.997767705879186 a32.34949039103659,32.34949039103659 0 0,0 -0.5407705877144976,0.13290825357719124 l -2.61385199128358 -11.044397217770408" fill="#ff820c" stroke="none" /><path d="M 104.13013068566511 120.58985236759428 l 0.9038228382451025 4.5058087073411475 a25.595563929496002,25.595563929496002 0 0,0 -0.43272638658435264,0.08293304188637143 l -0.8261288370890455 -4.520698947575987" fill="#ff2303" stroke="none" /><path d="M 103.7750983002368 120.6578951692458 l 1.8220373418465357 9.97045729907375 a31.135572940280003,31.135572940280003 0 0,0 -0.5280460155470349,0.09180756833452539 l -1.6501423548274508 -10.000343445929282" fill="#ff720a" stroke="none" /><path d="M 102.70371172650421 120.8252237178851 l 0.41662183471439257 3.209011829416078 a24.235943552426882,24.235943552426882 0 0,0 -0.4141721674971771,0.050150481567283356 l -0.36132224416583514 -3.215707839708712" fill="#ff0f01" stroke="none" /><path d="M 101.98527174616119 120.90594882070398 l 0.5218322072449433 5.495165807276847 a26.519887326928217,26.519887326928217 0 0,0 -0.4548232435070131,0.03924406324618536 l -0.42716464599638854 -5.5033341228016965" fill="#ff3004" stroke="none" /><path d="M 101.26447882468166 120.96189622390904 l 0.8352787389903111 13.84683230987317 a34.872002580361524,34.872002580361524 0 0,0 -0.5994861433250684,0.030986586035168583 l -0.5968045272517631 -13.859158702670541" fill="#ffa40f" stroke="none" /><path d="M 100.90346689309514 120.98055641714683 l 0.1830300761884232 4.250374716388755 a25.254313721213602,25.254313721213602 0 0,0 -0.4344699799951454,0.014964024583034592 l -0.1098397445186255 -4.252895539397883" fill="#ff1e03" stroke="none" /><line stroke="#e1ed5e" stroke-width="0.3" x1="102.19456741930631" x2="102.32365962044197" y1="184.97166512339345" y2="189.96999836594603" /><path d="M 102.22038585953345 185.97133177190398 a86.0,86.0 0 0,1 -42.740103519485714,-10.115201625700543" fill="none" id="id19" stroke="none" /><text fill="#e1ed5e" style="font-size:6.75px; font-family:Arial;" text-anchor="middle"><textPath startOffset="22.20632615414155" xlink:href="#id19">July</textPath></text><path d="M 99.45781275523022 120.99299961872073 l -0.25355876037670727 9.817565815609912 a30.820839607120977,30.820839607120977 0 0,0 -0.5302353378263286,-0.018262377138497085 l 0.4225144498776789 -9.811746640045323" fill="#ff6d0a" stroke="none" /><path d="M 99.09653310690486 120.98055641714683 l -0.19431785837898247 4.512502695713148 a25.516684625796163,25.516684625796163 0 0,0 -0.43865845735440495,-0.022673631709776595 l 0.2719643841468763 -4.50848925724117" fill="#ff2203" stroke="none" /><path d="M 96.22490169976321 120.6578951692458 l -0.9473826373078206 5.184217641548825 a26.27007081702119,26.27007081702119 0 0,0 -0.4441298051208349,-0.08511853418925089 l 1.0364800570003505 -5.1671419090111055" fill="#ff2d04" stroke="none" /><path d="M 95.16358092515715 120.4354850818985 l -1.6586979187078097 7.008552412144088 a28.202158405595945,28.202158405595945 0 0,0 -0.4714416700683862,-0.11586889238396293 l 1.7790928735194065 -6.978962261446095" fill="#ff4806" stroke="none" /><path d="M 94.11515582081647 120.15858648285463 l -1.5393963752801456 5.273216081446552 a26.49331858186399,26.49331858186399 0 0,0 -0.436666693871923,-0.13156409283210038 l 1.6299380435923145 -5.2459366195087265" fill="#ff3004" stroke="none" /><path d="M 92.7421414339146 119.70592522655815 l -1.8509123915786538 5.025441162465565 a26.35545848258603,26.35545848258603 0 0,0 -0.42436025516563536,-0.16045673744002864 l 1.9371428675045723 -4.992836174918904" fill="#ff2e04" stroke="none" /><path d="M 92.40401165467489 119.57807347666478 l -2.1103204182478477 5.439187940985966 a26.83422811732974,26.83422811732974 0 0,0 -0.42919293644266804,-0.17078472694326546 l 2.203634430732374 -5.402056369636634" fill="#ff3505" stroke="none" /><path d="M 91.40352486487194 119.15986991738527 l -2.6352257943298785 5.87340539333121 a27.437492205938092,27.437492205938092 0 0,0 -0.42924258597774523,-0.19704421820302495 l 2.735936376075043 -5.827174104794111" fill="#ff3e05" stroke="none" /><path d="M 90.42595943632237 118.69057910512821 l -4.393978545439638 8.577987845732407 a30.63788996302182,30.63788996302182 0 0,0 -0.467314042026098,-0.24447662016244742 l 4.5409834899922314 -8.501081806625242" fill="#ff6b09" stroke="none" /><path d="M 90.10565033884886 118.52300852407294 l -1.05266735229499 1.9706769022053006 a23.234205900867963,23.234205900867963 0 0,0 -0.3511431874896435,-0.19147126333731487 l 1.086433351653274 -1.9522649871082198" fill="#ff0000" stroke="none" /><line stroke="#e1ed5e" stroke-width="0.3" x1="58.666819895761336" x2="56.23545636021788" y1="174.27360380694188" y2="178.64263932499728" /><path d="M 58.180547188652646 175.14741091055294 a86.0,86.0 0 0,1 -31.652253787137756,-30.449443065178592" fill="none" id="id20" stroke="none" /><text fill="#e1ed5e" style="font-size:6.75px; font-family:Arial;" text-anchor="middle"><textPath startOffset="22.20632615414155" xlink:href="#id20">August</textPath></text><path d="M 89.7882731507175 118.34994917583269 l -3.1182906114153814 5.603408226588923 a27.41263752999074,27.41263752999074 0 0,0 -0.4103426861664086,-0.2330032864915512 l 3.214282064502997 -5.548901774302738" fill="#ff3d05" stroke="none" /><path d="M 89.4739219176387 118.17145234162733 l -2.6411058913060934 4.559412295590132 a26.269125241467528,26.269125241467528 0 0,0 -0.3893236083392383,-0.23001925019025482 l 2.719197370673714 -4.513274473106128" fill="#ff2d04" stroke="none" /><path d="M 89.1626897886671 117.98757091392108 l -2.7468173883843914 4.559117677510762 a26.322645936235283,26.322645936235283 0 0,0 -0.38609154577036925,-0.23716896165375428 l 2.8248881340870695 -4.511160249028629" fill="#ff2d04" stroke="none" /><path d="M 88.8546689885994 117.79835938074946 l -3.8154582374888175 6.093035446287118 a28.189075219507203,28.189075219507203 0 0,0 -0.40903448585009333,-0.2610651616664098 l 3.9197745253858343 -6.026455855796904" fill="#ff4806" stroke="none" /><path d="M 88.24862548938628 117.40417183066458 l -4.747481008916706 7.031175388664222 a29.483867235888493,29.483867235888493 0 0,0 -0.4181698509953391,-0.2876210365908702 l 4.867807744534936 -6.948413562708251" fill="#ff5b08" stroke="none" /><path d="M 87.95078237400918 117.19931262002967 l -4.028830736207553 5.750839720559864 a28.021654690497087,28.021654690497087 0 0,0 -0.39266700970801666,-0.2801574854709386 l 4.127225073764457 -5.680637973244706" fill="#ff4606" stroke="none" /><path d="M 87.07902340077011 116.55440617244103 l -6.441256308660585 8.25256298356898 a31.468742934642762,31.468742934642762 0 0,0 -0.4241424714882957,-0.3369644311853246 l 6.58235627286624 -8.140464638378525" fill="#ff760a" stroke="none" /><path d="M 86.79598089348748 116.32954008644616 l -2.723799840974475 3.3685500098004715 a25.331998931465627,25.331998931465627 0 0,0 -0.3367103621640991,-0.27708970493630175 l 2.781380331683263 -3.321165186006989" fill="#ff1f03" stroke="none" /><path d="M 86.24171649860922 115.8653595955263 l -3.4471805722707862 3.9751150181096095 a26.26161508522257,26.26161508522257 0 0,0 -0.33897198066063294,-0.299103361336619 l 3.515094905838007 -3.9151885150007013" fill="#ff2d04" stroke="none" /><path d="M 85.70375840098266 115.38237550388516 l -4.814269378127484 5.180025731819115 a28.071764718051934,28.071764718051934 0 0,0 -0.35111650746878165,-0.33200257339913014 l 4.902721719987083 -5.096388521674054" fill="#ff4706" stroke="none" /><path d="M 84.9287848128048 114.62390073753433 l -4.514857800585282 4.380856586530443 a27.290933586619154,27.290933586619154 0 0,0 -0.32423376841016427,-0.33995780990853314 l 4.589598120374403 -4.30249166003941" fill="#ff3b05" stroke="none" /><path d="M 84.43433777217949 114.09645910891817 l -4.259103451845184 3.8570975504197604 a26.74605636301748,26.74605636301748 0 0,0 -0.3061037120789525,-0.343910765503878 l 4.324866013572475 -3.7832126151750183" fill="#ff3404" stroke="none" /><path d="M 84.19399662182784 113.82643327865904 l -2.4299005574059684 2.125575778197462 a24.228388004522007,24.228388004522007 0 0,0 -0.2718857673471954,-0.3162645715447407 l 2.4661288343239427 -2.083434107491191" fill="#ff0f01" stroke="none" /><path d="M 83.50135304334701 112.99209946851258 l -3.306425112042792 2.6036925363461685 a25.208522525230432,25.208522525230432 0 0,0 -0.26552158717074925,-0.3432224440883399 l 3.3507535164316096 -2.5463920981445756" fill="#ff1d03" stroke="none" /><path d="M 83.28015986056508 112.70617746262583 l -4.189271397361077 3.183620499362702 a26.261695004911445,26.261695004911445 0 0,0 -0.270418841062003,-0.3622702288179803 l 4.2434515051181645 -3.111037391035414" fill="#ff2d04" stroke="none" /><path d="M 82.85270091963577 112.12312394758628 l -4.659824915701566 3.2944917308750252 a26.706806813779227,26.706806813779227 0 0,0 -0.2621579490089806,-0.3776580782111987 l 4.71584377187268 -3.2137923904768138" fill="#ff3304" stroke="none" /><path d="M 82.6465618267979 111.8261652097733 l -5.96949352540225 4.068140039193884 a28.223892048495173,28.223892048495173 0 0,0 -0.27013879309382427,-0.4038208427625074 l 6.038635423906804 -3.964782282225556" fill="#ff4906" stroke="none" /><path d="M 82.44556493220864 111.52570212397912 l -5.9735002457991095 3.922016527716085 a28.145972210290225,28.145972210290225 0 0,0 -0.2624211654428405,-0.4072834763770653 l 6.040126274618996 -3.8186114514175715" fill="#ff4806" stroke="none" /><line stroke="#e1ed5e" stroke-width="0.3" x1="26.63291911575756" x2="22.317208475507996" y1="142.92168965132927" y2="145.44649492493687" /><path d="M 25.769776987707644 143.4266507060508 a86.0,86.0 0 0,1 -11.730757126820373,-40.83630448921669" fill="none" id="id21" stroke="none" /><text fill="#e1ed5e" style="font-size:6.75px; font-family:Arial;" text-anchor="middle"><textPath startOffset="21.46611528233685" xlink:href="#id21">September</textPath></text><path d="M 81.87401531095188 110.60418214915194 l -13.29896083172408 7.78024507210621 a36.40761411074941,36.40761411074941 0 0,0 -0.31180174869870597,-0.5436526307038132 l 13.430914576575164 -7.5501725955440895" fill="#ffb911" stroke="none" /><path d="M 81.18737489456691 109.33194174019688 l -9.961318812369214 4.941279927260672 a32.119537751238134,32.119537751238134 0 0,0 -0.2414268777654063,-0.49741087647583826 l 10.044898946749338 -4.769080094819548" fill="#ff7f0b" stroke="none" /><path d="M 81.02952815118164 109.00673069616217 l -4.80221626901011 2.2799785384566915 a26.315974344385843,26.315974344385843 0 0,0 -0.1907599656098774,-0.4108799951204449 l 4.8407508514598145 -2.1969784760574194" fill="#ff2d04" stroke="none" /><path d="M 80.87730276802145 108.67885076344099 l -5.748561216889243 2.608988904685205 a27.312905762728732,27.312905762728732 0 0,0 -0.1906166591153475,-0.4297902449767592 l 5.7926189607358705 -2.50965032321575" fill="#ff3c05" stroke="none" /><path d="M 80.73074385275274 108.34839909993369 l -7.70006097135079 3.336048967922549 a29.39167216226282,29.39167216226282 0 0,0 -0.19713277072248167,-0.46596363790886214 l 7.7563447232655784 -3.203010804347528" fill="#ff5908" stroke="none" /><path d="M 80.58989483394504 108.01547362559985 l -5.031898636762242 2.0779408696968513 a26.44406485529023,26.44406485529023 0 0,0 -0.17012019192179995,-0.422224364894508 l 5.06692144294143 -1.9910171369595382" fill="#ff2f04" stroke="none" /><path d="M 80.32549172779594 107.34259656027581 l -9.963957997387233 3.7185846124403383 a31.63524002989942,31.63524002989942 0 0,0 -0.18600879242709228,-0.511816309161838 l 10.02649105081955 -3.5465205062723832" fill="#ff790b" stroke="none" /><path d="M 80.0844068197444 106.66101706037122 l -6.048569773059534 2.0230191531095625 a27.377915238807866,27.377915238807866 0 0,0 -0.14563453729500722,-0.44821701787698115 l 6.082496561370791 -1.9186032352547777" fill="#ff3d05" stroke="none" /><path d="M 79.97269907076064 106.31721596034903 l -20.026960224395513 6.317108491744802 a41.99964274758012,41.99964274758012 0 0,0 -0.21154465557147828,-0.6913401742994499 l 20.132731652473122 -5.971441344893305" fill="#feff18" stroke="none" /><path d="M 79.86692584326677 105.97154293290107 l -12.030092035946952 3.568168999933041 a33.54810521176155,33.54810521176155 0 0,0 -0.15944513898349855,-0.5550494460386597 l 12.089729811816554 -3.360562078389785" fill="#ff930d" stroke="none" /><path d="M 79.67330655649465 105.27499134158121 l -11.578940981333867 3.0048573119368567 a32.96248476338897,32.96248476338897 0 0,0 -0.1377968197593846,-0.5504297976575315 l 11.628949115388309 -2.8050996748819332" fill="#ff8b0c" stroke="none" /><path d="M 79.50377843672027 104.57218783832718 l -10.708917042282648 2.388888123169979 a31.972132458347115,31.972132458347115 0 0,0 -0.11520010173763541,-0.538176523229601 l 10.748451182744724 -2.204197780524214" fill="#ff7d0b" stroke="none" /><path d="M 79.35854240842038 103.8639653848113 l -3.6698182730916584 0.6869694503337146 a24.733563068063702,24.733563068063702 0 0,0 -0.07473488429984251,-0.419152920165779 l 3.6810995997306897 -0.6236977794347219" fill="#ff1602" stroke="none" /><path d="M 79.29508885075956 103.50808413554451 l -21.77130546661598 3.688765953498469 a43.08159269573625,43.08159269573625 0 0,0 -0.11758863393528725,-0.732224535762162 l 21.83157585491256 -3.3134621880430934" fill="#f1ff19" stroke="none" /><path d="M 79.18660465613746 102.79330883721812 l -6.446323756261326 0.8651434721939143 a27.504118940949564,27.504118940949564 0 0,0 -0.0589354210399004,-0.4697732927660005 l 6.460260686548074 -0.7540524251405052" fill="#ff3e05" stroke="none" /><path d="M 79.1416061653843 102.43462659150553 l -10.41467567451263 1.2156183520226178 a31.485380173511082,31.485380173511082 0 0,0 -0.058199523557148185,-0.5388553067245638 l 10.43405749957083 -1.0361667234132719" fill="#ff760a" stroke="none" /><path d="M 79.10278846688536 102.07522291339032 l -7.5783743354670685 0.7525796464417728 a28.61565057580141,28.61565057580141 0 0,0 -0.04445700727760298,-0.4905793707656879 l 7.590205939021747 -0.6220188871275186" fill="#ff4e07" stroke="none" /><path d="M 79.04373962182676 101.35467743843564 l -18.96853933211453 1.2261850067514084 a40.00813020959079,40.00813020959079 0 0,0 -0.038510014557267325,-0.6876221794845682 l 18.986835697559332 -0.8994911109314027" fill="#ffe715" stroke="none" /><line stroke="#e1ed5e" stroke-width="0.3" x1="15.007084014347285" x2="10.007500721073583" y1="101.09737516637583" y2="101.16192664675087" /><path d="M 14.007167355692545 101.11028546245083 a86.0,86.0 0 0,1 10.666146001902534,-42.60595125391555" fill="none" id="id22" stroke="none" /><text fill="#e1ed5e" style="font-size:6.75px; font-family:Arial;" text-anchor="middle"><textPath startOffset="22.20632615414155" xlink:href="#id22">October</textPath></text><path d="M 79.05617556472873 98.46500227214037 l -4.932932095174132 -0.36154044268181323 a25.946163214785134,25.946163214785134 0 0,0 0.036479707705719434,-0.44514483372107483 l 4.925977903648915 0.4463991936106665" fill="#ff2803" stroke="none" /><path d="M 79.08570108090925 98.10471618934814 l -9.464486884202556 -0.8576853968259032 a30.503269764726802,30.503269764726802 0 0,0 0.051888784385067124,-0.5225129775188546 l 9.44832097413526 1.020473905049188" fill="#ff6909" stroke="none" /><path d="M 79.3925641242962 95.95851677861259 l -3.8686505597385166 -0.7587109051751566 a24.94234693945077,24.94234693945077 0 0,0 0.08625384744168547,-0.4206043925560843 l 3.8550174163818363 0.8251909538946434" fill="#ff1902" stroke="none" /><path d="M 79.54389044137918 95.25157060432595 l -10.24463478751798 -2.3780633767917245 a31.517020840221893,31.517020840221893 0 0,0 0.12721950479748345,-0.5274069798739305 l 10.202182482459682 2.5540555883250518" fill="#ff770a" stroke="none" /><path d="M 79.62865764111835 94.90015583598534 l -6.453773163456992 -1.615663652581086 a27.652935974712918,27.652935974712918 0 0,0 0.11957085814568909,-0.4607552924581173 l 6.425005973440995 1.726515370588067" fill="#ff4106" stroke="none" /><path d="M 79.71946130924805 94.55025226153421 l -10.37324019140717 -2.787477351351735 a31.74123559246905,31.74123559246905 0 0,0 0.14633197732956676,-0.5264339796368245 l 10.323721443511241 2.965622634407502" fill="#ff7a0b" stroke="none" /><path d="M 79.91906864156998 93.8553929516997 l -13.04051355292447 -3.9902945765071345 a34.63735474831204,34.63735474831204 0 0,0 0.17936297074544288,-0.5686296326147533 l 12.969895098410822 4.2141743755483025" fill="#ffa10e" stroke="none" /><path d="M 80.2630227832202 92.82701384747504 l -9.952398592910104 -3.61698838212473 a31.5892796123525,31.5892796123525 0 0,0 0.1901304759781162,-0.5094551486959298 l 9.88866352843036 3.7877666678500015" fill="#ff780b" stroke="none" /><path d="M 80.38941819471856 92.48833698450439 l -9.891923726768228 -3.7890154585039912 a31.59277079715135,31.59277079715135 0 0,0 0.19889371792822647,-0.506162817752459 l 9.82523645895831 3.9587272811522136" fill="#ff780b" stroke="none" /><path d="M 80.803312248108 91.48605970444005 l -19.526192990952993 -8.660079461269035 a42.360458538978875,42.360458538978875 0 0,0 0.3013597313377833,-0.6640062212566575 l 19.374230942651856 8.994907691367763" fill="#faff18" stroke="none" /><path d="M 80.95270993114464 91.15688171328213 l -9.971910688605261 -4.629676213526679 a31.994221419619244,31.994221419619244 0 0,0 0.23621151788212802,-0.4975216981072763 l 9.890740976881382 4.800640327274488" fill="#ff7d0b" stroke="none" /><path d="M 81.26839172434947 90.50648371742162 l -9.885643452120494 -5.0102220639786985 a32.08279168769457,32.08279168769457 0 0,0 0.25389796839923534,-0.4904500608471106 l 9.797936050561145 5.179644847086145" fill="#ff7f0b" stroke="none" /><path d="M 81.6062741919709 89.86733742301443 l -10.981434101255589 -6.049408777793911 a33.53743360824173,33.53743360824173 0 0,0 0.2829000044934499,-0.5032475411630631 l 10.875676455469709 6.237539828891758" fill="#ff920d" stroke="none" /><line stroke="#e1ed5e" stroke-width="0.3" x1="26.266209847984243" x2="21.928928074336255" y1="57.711370442889674" y2="55.22380399835377" /><path d="M 25.398753493254645 57.213857153982495 a86.0,86.0 0 0,1 29.58750427330803,-30.492523968695096" fill="none" id="id23" stroke="none" /><text fill="#e1ed5e" style="font-size:6.75px; font-family:Arial;" text-anchor="middle"><textPath startOffset="21.46611528233685" xlink:href="#id23">November</textPath></text><path d="M 82.54541684631803 88.32363383020206 l -8.95274580810158 -5.989002278663199 a31.771249036129163,31.771249036129163 0 0,0 0.3079928094715006,-0.45194144358287625 l 8.84832853296134 6.142221745516491" fill="#ff7a0b" stroke="none" /><path d="M 82.7489923806493 88.02491185347247 l -10.296706686051591 -7.147638729583264 a33.53438901531376,33.53438901531376 0 0,0 0.33324779952778244,-0.4713553792802604 l 10.17214626671993 7.32382060919531" fill="#ff920d" stroke="none" /><path d="M 82.95767976084542 87.72973835380427 l -5.090232781501611 -3.664905200265491 a27.272320136664476,27.272320136664476 0 0,0 0.27757687889059496,-0.3786145508596041 l 5.026393290097383 3.7519821947965957" fill="#ff3b05" stroke="none" /><path d="M 83.39014120810768 87.1503855733568 l -11.065166916479086 -8.560164792768006 a34.989794143191965,34.989794143191965 0 0,0 0.37263450861818354,-0.4732079843182677 l 10.916178327266932 8.74936517103932" fill="#ffa60f" stroke="none" /><path d="M 83.6137871275137 86.86637796730984 l -4.209773265450016 -3.374151876458272 a26.39509887137433,26.39509887137433 0 0,0 0.2872057092334164,-0.35208023993484727 l 4.1510690641402075 3.446116286001202" fill="#ff2e04" stroke="none" /><path d="M 84.31358615837235 86.03803664274999 l -8.44028662381893 -7.512422772738713 a32.2993333523965,32.2993333523965 0 0,0 0.3732208877057757,-0.41211982594410046 l 8.30972209549711 7.65659538595237" fill="#ff820b" stroke="none" /><path d="M 84.80347519578584 85.50635884689758 l -7.777097774904033 -7.417384291097413 a31.747131688140605,31.747131688140605 0 0,0 0.38056607480133986,-0.3922067927851866 l 7.648267436399575 7.550155279432723" fill="#ff7a0b" stroke="none" /><path d="M 85.05521093208273 85.24692304244772 l -21.86313319480066 -21.582672401080664 a51.721463849659955,51.721463849659955 0 0,0 0.6309136857725418,-0.6282043419021255 l 21.488383708860805 21.9558125936329" fill="#8cff24" stroke="none" /><path d="M 85.83668400450813 84.49514656593479 l -3.7751950660211566 -4.132778383416376 a26.597495417858255,26.597495417858255 0 0,0 0.3406873345176366,-0.30587245274606356 l 3.703496743907549 4.197149844931718" fill="#ff3104" stroke="none" /><path d="M 86.10567301691215 84.25364557470407 l -1.652565539372419 -1.8728422560993605 a23.497701138677844,23.497701138677844 0 0,0 0.30558894754846144,-0.2650037239905308 l 1.620082793177184 1.901010973509572" fill="#ff0400" stroke="none" /><path d="M 86.37877921826538 84.01681056812374 l -7.068569012586357 -8.294284289992314 a31.89769791143567,31.89769791143567 0 0,0 0.4209622173575963,-0.3525437508117156 l 6.92474925826965 8.414729198197842" fill="#ff7c0b" stroke="none" /><path d="M 86.65592168130627 83.78471172551755 l -2.6488392551184887 -3.2187829753922075 a25.16856249109107,25.16856249109107 0 0,0 0.3368951132982233,-0.2724124188024577 l 2.5930407432557647 3.2639014914587996" fill="#ff1d02" stroke="none" /><path d="M 86.93701828274178 83.55741782278169 l -6.5414444449936395 -8.233819825562108 a31.516001347791743,31.516001347791743 0 0,0 0.4276683036034433,-0.3338018945247121 l 6.398743586230771 8.345200109310042" fill="#ff770a" stroke="none" /><path d="M 87.51073957382395 83.11751280151077 l -20.01853096752752 -27.060256673286535 a54.660051594167335,54.660051594167335 0 0,0 0.7612184808122942,-0.5530575994137662 l 19.54976717036145 27.40083350751697" fill="#6cff28" stroke="none" /><path d="M 88.09926311788651 82.69761687909137 l -6.075729876342435 -8.833453516447983 a31.721212364165133,31.721212364165133 0 0,0 0.45254887200176713,-0.30556301851023304 l 5.922776309934128 8.936728447256883" fill="#ff7a0b" stroke="none" /><path d="M 89.00827224532344 82.1063720568725 l -32.97518326402967 -53.68088382938249 a84.0,84.0 0 0,0 1.2385517351294033,-0.746213562165523 l 32.046269462682616 54.240544001006626" fill="#4dd2ff" stroke="none" /><line stroke="#e1ed5e" stroke-width="0.3" x1="56.762969772571076" x2="54.21961505331055" y1="26.818313649435495" y2="22.513508569990535" /><path d="M 56.25429882871897 25.957352633546506 a86.0,86.0 0 0,1 42.265352541879196,-11.944610805530505" fill="none" id="id24" stroke="none" /><text fill="#e1ed5e" style="font-size:6.75px; font-family:Arial;" text-anchor="middle"><textPath startOffset="22.20632615414155" xlink:href="#id24">December</textPath></text><path d="M 94.63758080256005 79.69619591428918 l -2.690919854809412 -10.188668123611675 a31.53802675068289,31.53802675068289 0 0,0 0.5260709732942346,-0.13410720455153452 l 2.5151399928301785 10.233478324332072" fill="#ff770b" stroke="none" /><path d="M 95.692805502759 79.44645832069477 l -2.16706182956351 -10.341022599303528 a31.56564741851901,31.56564741851901 0 0,0 0.5327583691447672,-0.1068663169199195 l 1.988737050951606 10.376792872300658" fill="#ff780b" stroke="none" /><path d="M 96.40284397218896 79.31037775812273 l -0.9071374317955869 -5.217547039998272 a26.295818674648842,26.295818674648842 0 0,0 0.44661669151975797,-0.07369558086023947 l 0.8171915341369432 5.232388883798138" fill="#ff2d04" stroke="none" /><path d="M 96.75951476605007 79.25152402106235 l -1.6112026010520448 -10.3163557466304 a31.441416077940335,31.441416077940335 0 0,0 0.5354488423200418,-0.07891124062368808 l 1.4333847783033542 10.342561471415056" fill="#ff760a" stroke="none" /><path d="M 97.83486435360386 79.11191278185805 l -0.28945168097247265 -2.7924772139124356 a23.807438559583797,23.807438559583797 0 0,0 0.4079856631398679,-0.03874315472676527 l 0.2413408907423684 2.7970459131543812" fill="#ff0901" stroke="none" /></svg>