<?xml version="1.0" encoding="utf-8" ?>
<svg baseProfile="full" height="200mm" version="1.1" viewBox="0,0,200,200" width="200mm" xmlns="http://www.w3.org/2000/svg" xmlns:ev="http://www.w3.org/2001/xml-events" xmlns:xlink="http://www.w3.org/1999/xlink"><defs /><rect fill="#1a1a1a" height="200" width="200" x="0" y="0" /><text alignment-baseline="middle" fill="#e1ed5e" style="dominant-baseline: central; font-size:9.0px; font-family:Arial;" text-anchor="middle" x="100.0" y="100.0">2023</text><line stroke="#e1ed5e" stroke-width="0.3" x1="100.0" x2="100.0" y1="15.0" y2="10.0" /><path d="M 100.0 14.0 a86.0,86.0 0 0,1 42.46469731375804,11.215312516191453" fill="none" id="id61" stroke="none" /><text fill="#e1ed5e" style="font-size:6.75px; font-family:Arial;" text-anchor="middle"><textPath startOffset="22.20632615414155" xlink:href="#id61">January</textPath></text><path d="M 100.36148047927253 79.00311137660856 l 0.43290441729652307 -25.145606348763234 a46.14933249375571,46.14933249375571 0 0,0 0.7941495031799678,0.02051053869788468 l -0.8656805556713586 25.13442901792299" fill="#fff717" stroke="none" /><path d="M 109.73455568895987 81.39251694778311 l 11.67562346004827 -22.317810139327236 a46.18739431929963,46.18739431929963 0 0,0 0.7012894984123251,0.3746045628585124 l -12.058058004988904 22.11352684996697" fill="#fff817" stroke="none" /><line stroke="#e1ed5e" stroke-width="0.3" x1="143.23703022742887" x2="145.7803849466894" y1="26.81831364943548" y2="22.513508569990506" /><path d="M 143.74570117128098 25.957352633546492 a86.0,86.0 0 0,1 28.547481713284135,27.462654790039103" fill="none" id="id62" stroke="none" /><text fill="#e1ed5e" style="font-size:6.75px; font-family:Arial;" text-anchor="middle"><textPath startOffset="19.985693538727396" xlink:href="#id62">February</textPath></text><path d="M 114.16331599549186 84.49514656593476 l 16.765833068292203 -18.353878746094267 a45.85876150374695,45.85876150374695 0 0,0 0.5782399288154556,0.5374109949699498 l -17.079280880902505 18.062563165049674" fill="#fff316" stroke="none" /><path d="M 114.68862486808459 84.99185889309783 l 16.052196694704506 -16.40137420850951 a43.94946828693517,43.94946828693517 0 0,0 0.536108589371161,0.5338063687136526 l -16.332141084242988 16.122631989145738" fill="#ffd814" stroke="none" /><path d="M 115.4437574822437 85.77008943001954 l 18.52327143063859 -17.067381187804518 a46.187439034227666,46.187439034227666 0 0,0 0.5336988478721186,0.5893235977323302 l -18.814313919126747 16.746004802802638" fill="#fff817" stroke="none" /><path d="M 116.82858285166822 87.43820079747576 l 18.14953459653548 -13.547831759246737 a43.64838518410734,43.64838518410734 0 0,0 0.44425199129762094,0.6059592168695255 l -18.38004920034673 13.233410098705718" fill="#ffd413" stroke="none" /><path d="M 117.2510076193507 88.02491185347247 l 20.6398183002934 -14.32749025031318 a46.12526768697093,46.12526768697093 0 0,0 0.44714171502608635,0.6561252924111239 l -20.88338448098822 13.970086934631649" fill="#fff717" stroke="none" /><line stroke="#e1ed5e" stroke-width="0.3" x1="172.23445277983987" x2="176.4835382374775" y1="55.19839476539836" y2="52.563006222186495" /><path d="M 173.08426987136738 54.67131705675599 a86.0,86.0 0 0,1 12.851231095245387,41.99856678651699" fill="none" id="id63" stroke="none" /><text fill="#e1ed5e" style="font-size:6.75px; font-family:Arial;" text-anchor="middle"><textPath startOffset="22.20632615414155" xlink:href="#id63">March</textPath></text><path d="M 118.21658344932153 89.55222093294921 l 12.875196320071668 -7.384326867397531 a35.842471612401894,35.842471612401894 0 0,0 0.3023438077776135,0.5378358976077082 l -13.000397769141715 7.161607459855029" fill="#ff5d08" stroke="none" /><path d="M 118.56541770881063 90.18545643968196 l 22.351113810416845 -11.81583864982781 a46.28213463228474,46.28213463228474 0 0,0 0.3662692470999624,0.707515604237266 l -22.55119249067692 11.429350323330201" fill="#fff917" stroke="none" /><path d="M 119.34039704204932 91.81776055985345 l 9.139358843861693 -3.866540186704124 a30.9236088744101,30.9236088744101 0 0,0 0.20318035180391056,0.4920173380141106 l -9.2045608825518 3.7086482782367103" fill="#ff0d01" stroke="none" /><path d="M 119.47837535516314 92.15188598940014 l 11.88690498413648 -4.789402804271476 a33.8154941115609,33.8154941115609 0 0,0 0.21288697311836804,0.541774125894067 l -11.967585507136548 4.584079673481624" fill="#ff3d05" stroke="none" /><path d="M 120.28053869075195 94.5502522615342 l 24.132778435583234 -6.484914267202808 a45.988899697143964,45.988899697143964 0 0,0 0.1988552755118761,0.7662704947193364 l -24.240830042965413 6.068547346934621" fill="#fff517" stroke="none" /><path d="M 120.53481517161879 95.60439243477599 l 24.77444327716969 -5.303126879069725 a46.33567039549596,46.33567039549596 0 0,0 0.16023471468435954,0.781361375001592 l -24.862057287769048 4.8758898479047215" fill="#fffa17" stroke="none" /><path d="M 120.73433829027371 96.67025291283417 l 24.941312917219523 -4.0053491398450065 a46.26087709812782,46.26087709812782 0 0,0 0.11949428318582365,0.7873180255424611 l -25.006563093844647 3.5754320019104635" fill="#fff917" stroke="none" /><path d="M 120.96714384426684 98.82574320788733 l 25.157460510214143 -1.4089338584140456 a46.19688302033348,46.19688302033348 0 0,0 0.03763152282557901,0.7943419698704262 l -25.17798564127322 0.9756807819206198" fill="#fff817" stroke="none" /><path d="M 120.98425023603335 99.18683210126433 l 14.89065806063161 -0.5770330123667089 a35.90183426884134,35.90183426884134 0 0,0 0.018614768624854155,0.6177335468348837 l -14.89838452371211 0.3206293181068261" fill="#ff5e08" stroke="none" /><line stroke="#e1ed5e" stroke-width="0.3" x1="184.98032266829074" x2="189.97916517819016" y1="98.17113171792111" y2="98.06355123074" /><path d="M 185.9800911702706 98.14961562048488 a86.0,86.0 0 0,1 -9.607161424134198,41.387399972396054" fill="none" id="id64" stroke="none" /><text fill="#e1ed5e" style="font-size:6.75px; font-family:Arial;" text-anchor="middle"><textPath startOffset="21.466115282336823" xlink:href="#id64">April</textPath></text><path d="M 120.99513854157772 99.54816195383933 l 35.11352709084039 -0.7556810088733399 a56.121657685057436,56.121657685057436 0 0,0 0.012472351283722255,0.96599735193765 l -35.121332449241834 0.1511473988752272" fill="#83ff25" stroke="none" /><path d="M 120.99980553446 99.90962569577887 l 25.244622625899538 -0.10864220630028495 a46.244856399929645,46.244856399929645 0 0,0 -0.003425868973710213,0.7960512985907733 l -25.242752459636325 -0.325918570494173" fill="#fff917" stroke="none" /><path d="M 120.9764740272857 100.99374915477107 l 9.136130401651055 0.43281925516696373 a30.146376945196167,30.146376945196167 0 0,0 -0.029017537408689127,0.5181276233111912 l -9.127326513354838 -0.5900185948135783" fill="#ff0000" stroke="none" /><path d="M 120.95626037817324 101.35467743843564 l 25.047617287223606 1.6191553938179386 a46.09989633358179,46.09989633358179 0 0,0 -0.05800561458811967,0.7914405253795372 l -25.01603511397115 -2.0500690556942462" fill="#fff717" stroke="none" /><path d="M 120.89721153311464 102.0752229133903 l 24.975358416023628 2.4802082312722096 a46.09820632792935,46.09820632792935 0 0,0 -0.0852107749799935,0.7889459480367425 l -24.928965339542582 -2.9097505011937437" fill="#fff717" stroke="none" /><path d="M 120.8583938346157 102.4346265915055 l 24.984972700065725 2.9162877739258075 a46.15459391847499,46.15459391847499 0 0,0 -0.09889938417409412,0.7883253998396168 l -24.931071806644784 -3.345930928052819" fill="#fff717" stroke="none" /><path d="M 120.76222939487914 103.15116336523771 l 24.839925943984568 3.7700510451545073 a46.12439463520879,46.12439463520879 0 0,0 -0.12589378007798893,0.7839406887206346 l -24.77135040954529 -4.197070963568347" fill="#fff717" stroke="none" /><path d="M 120.49622156327973 104.57218783832717 l 24.447867352534853 5.453699914259171 a46.04877363948044,46.04877363948044 0 0,0 -0.1792381284230099,0.7721531661486789 l -24.350368658181292 -5.873721737756415" fill="#fff617" stroke="none" /><path d="M 120.41448212921028 104.9243191809786 l 24.316555241479197 5.865565368401236 a46.013990403430185,46.013990403430185 0 0,0 -0.19235751150270564,0.7683726396532549 l -24.21198641568143 -6.2832658474518865" fill="#fff517" stroke="none" /><path d="M 119.79798401119884 107.00284435728193 l 15.9645829325392 5.646912809013917 a37.93385757831119,37.93385757831119 0 0,0 -0.22304338559068831,0.6137196038231855 l -15.865015285943285 -5.920880209843234" fill="#ff7e0b" stroke="none" /><path d="M 119.54520255179757 107.68017299344265 l 23.29429712743326 9.153357772845787 a46.0281488963699,46.0281488963699 0 0,0 -0.29610869459386,0.7349174962846634 l -23.133285818582006 -9.552974636973264" fill="#fff617" stroke="none" /><path d="M 118.81262510543309 109.33194174019688 l 22.97896293711818 11.398640124785157 a46.65076479093388,46.65076479093388 0 0,0 -0.36303476369629994,0.7163020298897556 l -22.77934950363561 -11.792496366377605" fill="#fffe18" stroke="none" /><line stroke="#e1ed5e" stroke-width="0.3" x1="174.80103733775053" x2="179.2010983576182" y1="140.37084112569926" y2="142.7455964860345" /><path d="M 175.68104954172406 140.8457921977663 a86.0,86.0 0 0,1 -30.038265399797805,32.042727171017184" fill="none" id="id65" stroke="none" /><text fill="#e1ed5e" style="font-size:6.75px; font-family:Arial;" text-anchor="middle"><textPath startOffset="22.206326154141568" xlink:href="#id65">May</textPath></text><path d="M 118.48025628344425 109.97397251340804 l 22.003595208301405 11.875552505208704 a46.003738708336265,46.003738708336265 0 0,0 -0.3821017754363136,0.693625711380159 l -21.79591702341358 -12.252548734986668" fill="#fff517" stroke="none" /><path d="M 118.12598468904814 110.60418214915192 l 21.71030576947702 12.70110511747365 a46.15264295872906,46.15264295872906 0 0,0 -0.40706438633467507,0.6822633257966709 l -21.48846050744412 -13.072930537156426" fill="#fff717" stroke="none" /><path d="M 117.35343817320211 111.8261652097733 l 20.794096297310425 14.170933491420701 a46.16366024329704,46.16366024329704 0 0,0 -0.4531492878394576,0.6527953466036549 l -20.54708610230883 -14.526770100211376" fill="#fff717" stroke="none" /><path d="M 116.498646956653 112.99209946851258 l 20.696816395811688 16.298009042947406 a47.34356292694545,47.34356292694545 0 0,0 -0.5096919789183924,0.6359191124251399 l -20.41320650483844 -16.651855988950796" fill="#f6ff19" stroke="none" /><path d="M 116.0416608686014 113.55231037782055 l 9.321414747598999 7.874914377919357 a33.20258371642322,33.20258371642322 0 0,0 -0.37259226449421057,0.43340897922276894 l -9.18447997353401 -8.034200456303653" fill="#ff3304" stroke="none" /><path d="M 115.80600337817218 113.82643327865902 l 25.51215455268948 22.316969968811282 a54.89568082380319,54.89568082380319 0 0,0 -0.6282710037395484,0.7058691329565643 l -25.124224699301593 -22.752813271508714" fill="#92ff23" stroke="none" /><path d="M 115.32070863581623 114.36230785411682 l 8.294441217131133 7.775574946959107 a32.36913896740742,32.36913896740742 0 0,0 -0.3845661004700963,0.4032160188678874 l -8.159368565282072 -7.917198082409502" fill="#ff2503" stroke="none" /><path d="M 114.81725581225074 114.88116024355365 l 18.66665745557961 18.747163734484428 a47.45562792018957,47.45562792018957 0 0,0 -0.5838173206294078,0.5713881254935548 l -18.341190182574408 -19.065701962900555" fill="#f5ff19" stroke="none" /><path d="M 114.29624159901734 115.38237550388516 l 17.75264222464589 19.10137059410079 a47.0771674943706,47.0771674943706 0 0,0 -0.5983293911462582,0.5465597125591687 l -17.42121328403277 -19.40412307324654" fill="#faff18" stroke="none" /><path d="M 114.0293411484842 115.62618273729858 l 18.71738961072512 20.847832220118594 a49.01736572409861,49.01736572409861 0 0,0 -0.6326919914234022,0.5582771205946954 l -18.355755266395132 -21.166932482485578" fill="#dfff1b" stroke="none" /><path d="M 113.48314897796784 116.09983520530334 l 18.679961660309242 22.305197759350957 a50.09403400552041,50.09403400552041 0 0,0 -0.6658448225066088,0.5479449584382158 l -18.293246709257943 -22.62343783664635" fill="#d1ff1d" stroke="none" /><path d="M 112.63410532772338 116.77436683061366 l 15.684184991930515 20.82397333798833 a47.069743467137286,47.069743467137286 0 0,0 -0.6513892804806044,0.481882217181227 l -15.323410741031346 -21.090865503909328" fill="#faff18" stroke="none" /><path d="M 112.34349029814194 116.9893568818739 l 17.410336971908695 23.96327303744596 a50.62023443767107,50.62023443767107 0 0,0 -0.7093405548994943,0.5060956517609477 l -16.995269089160317 -24.259412951051125" fill="#caff1d" stroke="none" /><path d="M 112.04921762599082 117.19931262002967 l 14.488929890146737 20.681810425001263 a46.25205678389938,46.25205678389938 0 0,0 -0.6559931754817093,0.45119808776145093 l -14.130779830042146 -20.928149302127807" fill="#fff917" stroke="none" /><line stroke="#e1ed5e" stroke-width="0.3" x1="143.8653032363475" x2="146.44561519142675" y1="172.8068346515853" y2="177.08958963109032" /><path d="M 144.38136562736335 173.6633856474863 a86.0,86.0 0 0,1 -40.68145358897372,12.25698825130547" fill="none" id="id66" stroke="none" /><text fill="#e1ed5e" style="font-size:6.75px; font-family:Arial;" text-anchor="middle"><textPath startOffset="21.466115282336833" xlink:href="#id66">June</textPath></text><path d="M 110.8373102113329 117.98757091392108 l 13.445614811747054 22.316787578402394 a47.054242754020066,47.054242754020066 0 0,0 -0.69737105473719,0.41201911129741436 l -13.059475885981481 -22.54492526199356" fill="#faff18" stroke="none" /><path d="M 110.21172684928248 118.3499491758327 l 16.44124680073402 29.544076886661866 a54.810753843232106,54.810753843232106 0 0,0 -0.8283658540059363,0.45169111126978106 l -15.930258134859438 -29.822708649691418" fill="#93ff23" stroke="none" /><path d="M 109.89434966115114 118.52300852407294 l 6.706451801162939 12.555010499272448 a35.2339307430577,35.2339307430577 0 0,0 -0.5374165979406081,0.2811509641655136 l -6.489344300695835 -12.668590882382679" fill="#ff5307" stroke="none" /><path d="M 109.2508944713604 118.85261126421891 l 11.361840178070725 23.154556220102656 a46.791953900042486,46.791953900042486 0 0,0 -0.7261383340733786,0.3485905277091133 l -10.961589175997114 -23.34670102431133" fill="#feff18" stroke="none" /><path d="M 107.93186726928326 119.44442032107085 l 8.642827794522587 21.187290545082032 a43.88230217717384,43.88230217717384 0 0,0 -0.7018638302892771,0.2792861028907484 l -8.276842888191444 -21.33292349237885" fill="#ffd714" stroke="none" /><path d="M 107.59598834532513 119.57807347666477 l 3.8904026315451374 10.027212406279775 a31.755474014481386,31.755474014481386 0 0,0 -0.5113081627699725,0.19333299625927888 l -3.7172242480148903 -10.092693652645684" fill="#ff1b02" stroke="none" /><path d="M 106.91757812671514 119.82793768551818 l 8.363958574104744 23.97371542088456 a46.39084154002971,46.39084154002971 0 0,0 -0.7562375796983407,0.25655684627340614 l -7.950051261469177 -24.114135254056087" fill="#fffb17" stroke="none" /><path d="M 106.2309692047433 120.05430185196036 l 7.5506589493088745 24.301707932591864 a46.44770046604951,46.44770046604951 0 0,0 -0.765557691000152,0.2306562523328472 l -7.131226283868477 -24.428079554030436" fill="#fffb17" stroke="none" /><path d="M 105.53697534728816 120.25689768951611 l 7.303521084299109 26.719764871326475 a48.69995045135955,48.69995045135955 0 0,0 -0.81052848177889,0.21406793881653888 l -6.842502159708721 -26.8415241594466" fill="#e3ff1b" stroke="none" /><path d="M 105.18746579009965 120.34920634021253 l 5.567026513182392 21.838133647914834 a43.53654510839374,43.53654510839374 0 0,0 -0.7277791025681258,0.17887039663365173 l -5.1902941258710555 -21.930725302862516" fill="#ffd213" stroke="none" /><path d="M 104.13013068566511 120.58985236759428 l 5.101322438446821 25.43151388687872 a46.93810689313131,46.93810689313131 0 0,0 -0.7935499075122255,0.15208572843941595 l -4.662804916362891 -25.515556813666603" fill="#fcff18" stroke="none" /><path d="M 103.41894727170886 120.7198165907248 l 4.372283703220391 26.497313124124698 a47.855622643672916,47.855622643672916 0 0,0 -0.813919625381149,0.12711750638201183 l -3.9155282142307244 -26.568648937853816" fill="#efff19" stroke="none" /><path d="M 103.06178313531738 120.77559828337769 l 3.6919835006579227 25.05179586162187 a46.32238571030591,46.32238571030591 0 0,0 -0.7898439005179176,0.10946516753777087 l -3.2602110089531746 -25.111635594652242" fill="#fffa17" stroke="none" /><path d="M 101.62511606390274 120.93702456842531 l 2.0184565179964165 26.004588008379066 a47.082805911185524,47.082805911185524 0 0,0 -0.8085625304091146,0.055763206087124706 l -1.5705312268083713 -26.035479558982477" fill="#faff18" stroke="none" /><path d="M 100.90346689309514 120.98055641714683 l 1.1139578244986201 25.868634658153702 a46.89260823308059,46.89260823308059 0 0,0 -0.8067307148336028,0.027785436979544567 l -0.6685067579903651 -25.88397689355934" fill="#fcff18" stroke="none" /><line stroke="#e1ed5e" stroke-width="0.3" x1="102.19456741930631" x2="102.32365962044197" y1="184.97166512339345" y2="189.96999836594603" /><path d="M 102.22038585953345 185.97133177190398 a86.0,86.0 0 0,1 -42.740103519485714,-10.115201625700543" fill="none" id="id67" stroke="none" /><text fill="#e1ed5e" style="font-size:6.75px; font-family:Arial;" text-anchor="middle"><textPath startOffset="22.20632615414155" xlink:href="#id67">July</textPath></text><path d="M 100.54218724476979 120.99299961872073 l 0.7841756499275874 30.362571747569515 a51.37269653119798,51.37269653119798 0 0,0 -0.8841982554898123,0.015222274828391199 l -0.26141770454510704 -30.371571499677067" fill="#c0ff1e" stroke="none" /><path d="M 100.18074693466247 120.99922214144158 l 0.1704077247412166 19.798010257496234 a40.79874362045677,40.79874362045677 0 0,0 -0.7023093188073305,0.0 l 0.17040772474120297 -19.798010257496234" fill="#ffaa0f" stroke="none" /><path d="M 99.45781275523022 120.99299961872073 l -0.6677690707628483 25.85541431147168 a46.86403612643862,46.86403612643862 0 0,0 -0.8062391662317414,-0.027768507051814228 l 1.1127285886692326 -25.84008900599377" fill="#fdff18" stroke="none" /><path d="M 97.65516085044442 120.86867818915974 l -1.2608290578335783 11.221168780151636 a32.291781024520766,32.291781024520766 0 0,0 -0.551839746215715,-0.06682010813987481 l 1.4537962271006826 -11.197803143286412" fill="#ff2403" stroke="none" /><path d="M 96.93821686468263 120.77559828337769 l -2.1691942518910485 14.718974657631712 a35.877957476563836,35.877957476563836 0 0,0 -0.6102056998860604,-0.09530158080815679 l 2.4222358153856263 -14.67945476947645" fill="#ff5e08" stroke="none" /><path d="M 96.58105272829116 120.7198165907248 l -4.454742061754632 26.997034801419872 a48.3621017998589,48.3621017998589 0 0,0 -0.8202005856091986,-0.14260238519805088 l 4.918791618835881 -26.916353837700814" fill="#e8ff1a" stroke="none" /><path d="M 95.86986931433489 120.58985236759428 l -5.094644424921008 25.398222128561635 a46.904151966589,46.904151966589 0 0,0 -0.7902423552472766,-0.16560296892457219 l 5.5310782415976725 -25.306763178910522" fill="#fcff18" stroke="none" /><path d="M 95.51606077576429 120.51570834832081 l -2.3871456288609814 10.922089051068346 a32.17991473549137,32.17991473549137 0 0,0 -0.5401319780245912,-0.12293227967964994 l 2.5747977562784357 -10.879380037811009" fill="#ff2203" stroke="none" /><path d="M 94.11515582081647 120.15858648285463 l -6.496990937982114 22.2555006919157 a44.18443879622886,44.18443879622886 0 0,0 -0.7282542860803861,-0.21941704243501836 l 6.879120198502746 -22.140368280374958" fill="#ffdb14" stroke="none" /><path d="M 93.42475214034765 119.94407469862007 l -7.242143474994714 21.966905815023566 a44.12992851693504,44.12992851693504 0 0,0 -0.7193814387935004,-0.24405324220743707 l 7.619194646725441 -21.838989585918007" fill="#ffda14" stroke="none" /><path d="M 93.08242187328487 119.8279376855182 l -5.3306532554257 15.279315771439808 a37.18250149306188,37.18250149306188 0 0,0 -0.6024989497592829,-0.21603468749780572 l 5.59287176581471 -15.185293542902045" fill="#ff720a" stroke="none" /><path d="M 92.7421414339146 119.70592522655815 l -6.525422300389196 17.717276074248527 a39.880757603696836,39.880757603696836 0 0,0 -0.6421367506881275,-0.24280117365265874 l 6.829429271837606 -17.602326650489236" fill="#ff9c0e" stroke="none" /><path d="M 91.40352486487194 119.15986991738527 l -13.821920212816215 30.806369950849863 a54.76503972925373,54.76503972925373 0 0,0 -0.8567651554346966,-0.39329886118283647 l 14.35015336401833 -30.563884019332953" fill="#94ff23" stroke="none" /><path d="M 91.07499286063937 119.00905698771935 l -7.0557838135942434 15.027864349164997 a37.6018309870051,37.6018309870051 0 0,0 -0.583521922793377,-0.2801259835096756 l 7.313418404387862 -14.904184089155757" fill="#ff790b" stroke="none" /><path d="M 90.7491055286396 118.85261126421891 l -11.025454644442243 22.469028380601543 a46.028341664699454,46.028341664699454 0 0,0 -0.7082799402281148,-0.3551462656807419 l 11.410588492353117 -22.275914274011498" fill="#fff617" stroke="none" /><path d="M 90.42595943632237 118.69057910512821 l -10.209532565672024 19.931195692759424 a43.3939080321544,43.3939080321544 0 0,0 -0.6618792151251252,-0.34626392300988734 l 10.551102683323645 -19.752502350804818" fill="#ffd013" stroke="none" /><line stroke="#e1ed5e" stroke-width="0.3" x1="58.666819895761336" x2="56.23545636021788" y1="174.27360380694188" y2="178.64263932499728" /><path d="M 58.180547188652646 175.14741091055294 a86.0,86.0 0 0,1 -31.652253787137756,-30.449443065178592" fill="none" id="id68" stroke="none" /><text fill="#e1ed5e" style="font-size:6.75px; font-family:Arial;" text-anchor="middle"><textPath startOffset="22.20632615414155" xlink:href="#id68">August</textPath></text><path d="M 89.4739219176387 118.17145234162733 l -12.592887584660998 21.73944129975566 a46.12337807193593,46.12337807193593 0 0,0 -0.683575102509117,-0.4038682195477498 l 12.965230558198497 -21.519454507914162" fill="#fff717" stroke="none" /><path d="M 89.1626897886671 117.98757091392108 l -10.371099638262159 17.213763061197593 a41.09660037005792,41.09660037005792 0 0,0 -0.6027908440974961,-0.3702833697219096 l 10.665869682291964 -17.032691224647305" fill="#ffae10" stroke="none" /><path d="M 88.54995079064634 117.60387380957326 l -15.206512710994913 23.379247193919866 a48.88955410514947,48.88955410514947 0 0,0 -0.7015076009144334,-0.4649209858457813 l 15.60669501064931 -23.114028186982765" fill="#e1ff1b" stroke="none" /><path d="M 88.24862548938628 117.40417183066458 l -12.932096017583419 19.152859184037748 a44.109978847493046,44.109978847493046 0 0,0 -0.6256120723407496,-0.43030168799140533 l 13.259864974547058 -18.927416706681242" fill="#ffda14" stroke="none" /><path d="M 87.95078237400918 117.19931262002967 l -9.614557525760175 13.724026382601771 a37.756748388828335,37.756748388828335 0 0,0 -0.5290847257198927,-0.3774879037304065 l 9.849369579328954 -13.556494217027145" fill="#ff7b0b" stroke="none" /><path d="M 86.51685102203217 116.09983520530335 l -9.453417108213213 11.288049833012169 a35.723693967697926,35.723693967697926 0 0,0 -0.46803911974807844,-0.39887309174117336 l 9.646321704538348 -11.123652351048044" fill="#ff5b08" stroke="none" /><path d="M 86.24171649860922 115.8653595955263 l -16.421226547785288 18.936131397051128 a46.06459163082602,46.06459163082602 0 0,0 -0.594579039131933,-0.5246468715144518 l 16.74474793982381 -18.650661383764387" fill="#fff617" stroke="none" /><path d="M 85.18274418774928 114.88116024355367 l -16.065784455098253 16.135073588798015 a43.76949779581456,43.76949779581456 0 0,0 -0.5293178238980133,-0.5361961610316972 l 16.3411429040518 -15.856136933785653" fill="#ffd513" stroke="none" /><path d="M 84.9287848128048 114.62390073753433 l -17.913312880005414 17.381644823183397 a45.96013531806801,45.96013531806801 0 0,0 -0.5460358409330744,-0.572516396195804 l 18.209855272317448 -17.070721310405094" fill="#fff517" stroke="none" /><path d="M 84.67929136418377 114.36230785411682 l -18.22132400636644 17.081472607425624 a45.97585544046926,45.97585544046926 0 0,0 -0.5362833778862882,-0.5820296894420738 l 18.51265379224846 -16.765291663182207" fill="#fff517" stroke="none" /><path d="M 83.72743513129214 113.27417163493432 l -19.412378564328133 15.835441246311245 a46.05197878392367,46.05197878392367 0 0,0 -0.49578702464165286,-0.6185705439804464 l 19.68208350102465 -15.498942868752538" fill="#fff617" stroke="none" /><path d="M 83.28015986056508 112.70617746262583 l -18.383889541191856 13.970765331228183 a44.090034183668735,44.090034183668735 0 0,0 -0.4539987211069965,-0.6082054783334845 l 18.621649528993938 -13.65224697338539" fill="#ffda14" stroke="none" /><path d="M 82.85270091963577 112.12312394758628 l -21.785581050073926 15.402384836377575 a47.68042354118866,47.68042354118866 0 0,0 -0.46803805975742224,-0.6742437330085732 l 22.047480016993482 -15.025099841181989" fill="#f1ff19" stroke="none" /><path d="M 82.6465618267979 111.8261652097733 l -20.66233553452943 14.081140072199611 a46.00421195467642,46.00421195467642 0 0,0 -0.4403192257579292,-0.6582174992110258 l 20.901657865698088 -13.723385658782764" fill="#fff517" stroke="none" /><path d="M 82.24976979558568 111.22182372390057 l -21.230246153693827 13.421914939025493 a46.11714857177994,46.11714857177994 0 0,0 -0.418426072410024,-0.6746360584868555 l 21.458136865771806 -13.054482549173374" fill="#fff717" stroke="none" /><line stroke="#e1ed5e" stroke-width="0.3" x1="26.63291911575756" x2="22.317208475507996" y1="142.92168965132927" y2="145.44649492493687" /><path d="M 25.769776987707644 143.4266507060508 a86.0,86.0 0 0,1 -11.730757126820373,-40.83630448921669" fill="none" id="id69" stroke="none" /><text fill="#e1ed5e" style="font-size:6.75px; font-family:Arial;" text-anchor="middle"><textPath startOffset="21.46611528233685" xlink:href="#id69">September</textPath></text><path d="M 81.87401531095188 110.60418214915194 l -21.57649827117978 12.622824179405592 a45.99761924484831,45.99761924484831 0 0,0 -0.3939323810918555,-0.6868543110928781 l 21.790582648424014 -12.249550022454407" fill="#fff517" stroke="none" /><path d="M 81.51974371655577 109.97397251340807 l -29.843798381754226 16.10698575765815 a54.91293694223782,54.91293694223782 0 0,0 -0.4417810934474321,-0.8356833392505514 l 30.116631983426544 -15.590887403321473" fill="#92ff23" stroke="none" /><path d="M 80.87730276802145 108.67885076344099 l -22.79301400884409 10.344626839616103 a46.030637068565966,46.030637068565966 0 0,0 -0.3212476303760555,-0.7243285996004096 l 22.967702723951422 -9.950749903522997" fill="#fff617" stroke="none" /><path d="M 80.73074385275274 108.34839909993369 l -18.728136960314753 8.113959384221593 a41.41027806996037,41.41027806996037 0 0,0 -0.2777427159384601,-0.6565017366065627 l 18.86503065744552 -7.790383121948872" fill="#ffb310" stroke="none" /><path d="M 80.45479744820244 107.68017299344265 l -31.256940243398788 12.282231799788846 a54.58347110355252,54.58347110355252 0 0,0 -0.3360930977777018,-0.8774330230953646 l 31.463727620769998 -11.742375209860324" fill="#96ff23" stroke="none" /><path d="M 80.0844068197444 106.66101706037122 l -23.846894863757342 7.975889650218689 a46.14536160717443,46.14536160717443 0 0,0 -0.2454664033894594,-0.7554679086413623 l 23.98065351816305 -7.564222841599523" fill="#fff717" stroke="none" /><path d="M 79.97269907076064 106.31721596034903 l -23.844648778245016 7.521322836415154 a46.002751299955804,46.002751299955804 0 0,0 -0.23170759421876821,-0.7572338244186162 l 23.970583144969915 -7.109762039444489" fill="#fff517" stroke="none" /><path d="M 79.76711848015287 105.62410040840567 l -32.692568499195936 9.087498865042905 a54.932089100094835,54.932089100094835 0 0,0 -0.24539452138309123,-0.9132043030691551 l 32.844151096920804 -8.523403628798212" fill="#92ff23" stroke="none" /><path d="M 79.67330655649465 105.27499134158121 l -24.17419621398901 6.2734588915257765 a45.9749484294984,45.9749484294984 0 0,0 -0.19219429990372036,-0.7677206904459852 l 24.27860182818779 -5.8564103616824" fill="#fff517" stroke="none" /><path d="M 79.23777060512086 103.15116336523772 l -24.701904249407544 3.7491029620134 a45.9847923058543,45.9847923058543 0 0,0 -0.11204073986350625,-0.7836126736519426 l 24.76277904028765 -3.323344816381057" fill="#fff517" stroke="none" /><path d="M 79.18660465613746 102.79330883721812 l -39.41877973644448 5.290286566465185 a60.772192897370495,60.772192897370495 0 0,0 -0.13022176000671848,-1.0379955535860783 l 39.504003005698046 -4.610973258591699" fill="#4cff2c" stroke="none" /><path d="M 79.10278846688536 102.07522291339032 l -24.675967662306935 2.450476869689102 a45.797342941535064,45.797342941535064 0 0,0 -0.07115032394784836,-0.7851378959036466 l 24.714492582531857 -2.0253575852368892" fill="#fff216" stroke="none" /><path d="M 79.0235259727143 100.99374915477108 l -24.895848610673426 1.17942741387251 a45.92377032212751,45.92377032212751 0 0,0 -0.030611182663862164,-0.7899386068217052 l 24.912461926188488 -0.750711560036808" fill="#fff417" stroke="none" /><path d="M 79.0095281055655 100.63252640178507 l -33.867495425867965 1.020562335469776 a54.88286873778203,54.88286873778203 0 0,0 -0.02032740536711584,-0.9445346524041898 l 33.880044893920086 -0.4374378672754573" fill="#92ff23" stroke="none" /><line stroke="#e1ed5e" stroke-width="0.3" x1="15.007084014347285" x2="10.007500721073583" y1="101.09737516637583" y2="101.16192664675087" /><path d="M 14.007167355692545 101.11028546245083 a86.0,86.0 0 0,1 10.666146001902534,-42.60595125391555" fill="none" id="id70" stroke="none" /><text fill="#e1ed5e" style="font-size:6.75px; font-family:Arial;" text-anchor="middle"><textPath startOffset="22.20632615414155" xlink:href="#id70">October</textPath></text><path d="M 79.00019446554 99.90962569577889 l -34.39552729811537 -0.1480238396867449 a55.39584581272156,55.39584581272156 0 0,0 0.012311048481718967,-0.9535042721605462 l 34.38788324251594 0.740064369907763" fill="#8cff24" stroke="none" /><path d="M 79.00486145842228 99.54816195383935 l -25.02828861435339 -0.5386357896071508 a46.03408395522427,46.03408395522427 0 0,0 0.023868246264712813,-0.792070893760315 l 25.01530867363303 0.9693768307924602" fill="#fff617" stroke="none" /><path d="M 79.03285615573316 98.82574320788736 l -25.070791790585083 -1.4040800102483326 a46.11007848816979,46.11007848816979 0 0,0 0.051202846623059094,-0.7920853743423544 l 25.04290835295761 1.8354244488436988" fill="#fff717" stroke="none" /><path d="M 79.08570108090925 98.10471618934814 l -23.081458248826046 -2.0916749021553405 a44.1760397563649,44.1760397563649 0 0,0 0.07514738647969013,-0.756723926520874 l 23.042033736664127 2.4886743593806444" fill="#ffdb14" stroke="none" /><path d="M 79.21141760316559 97.0276538004421 l -42.95096768645898 -6.141118385716425 a64.38777431754973,64.38777431754973 0 0,0 0.1663170138708251,-1.095821318675711 l 42.83889477914885 6.879538816784228" fill="#31ff3f" stroke="none" /><path d="M 79.32604984820605 96.31383870115002 l -12.801184200106619 -2.2824486579207663 a34.00307228316076,34.00307228316076 0 0,0 0.10769951132167081,-0.57533509599199 l 12.759998964875086 2.502461831375329" fill="#ff4006" stroke="none" /><path d="M 79.3925641242962 95.95851677861259 l -46.91097856770969 -9.200073891958095 a68.80461557002218,68.80461557002218 0 0,0 0.23793522033300657,-1.160256635317307 l 46.74566405146169 10.006206183438804" fill="#37ff7a" stroke="none" /><path d="M 79.46518482838121 95.60439243477599 l -17.264880543465157 -3.695657296902844 a38.65599000442266,38.65599000442266 0 0,0 0.14487825663529494,-0.6494608167247088 l 17.198707899827824 3.9922962831775117" fill="#ff890c" stroke="none" /><path d="M 79.54389044137918 95.25157060432595 l -32.76108603149614 -7.6047551221978775 a54.63214323280166,54.63214323280166 0 0,0 0.22052446655212737,-0.9142162837193166 l 32.6253287646832 8.167556637576592" fill="#96ff23" stroke="none" /><path d="M 79.71946130924805 94.55025226153421 l -24.231761263471363 -6.511512744228274 a46.09139398574975,46.09139398574975 0 0,0 0.21248841432660237,-0.7644338826143223 l 24.1160860785784 6.927657930261539" fill="#fff617" stroke="none" /><path d="M 80.02781315780177 93.51064311812611 l -16.258461010090816 -5.282694212613255 a38.09515757636123,38.09515757636123 0 0,0 0.20800446961411176,-0.6219068888375767 l 16.16511924670493 5.561774204373154" fill="#ff800b" stroke="none" /><path d="M 80.2630227832202 92.82701384747504 l -59.210931650339425 -21.518958457574875 a84.0,84.0 0 0,0 0.5055816459934896,-1.3547074518826343 l 58.83174541584431 22.534989046486853" fill="#4dd2ff" stroke="none" /><path d="M 80.65960295795068 91.81776055985345 l -32.45025060384232 -13.728555817965953 a56.23481246011075,56.23481246011075 0 0,0 0.38483166575107086,-0.8882445427157573 l 32.209128228248574 14.28509950526831" fill="#82ff25" stroke="none" /><path d="M 80.95270993114464 91.15688171328213 l -18.347712230858797 -8.518324074533034 a41.228702112225946,41.228702112225946 0 0,0 0.3043891638590431,-0.6411212080021235 l 18.198364873158 8.83288769817569" fill="#ffb010" stroke="none" /><line stroke="#e1ed5e" stroke-width="0.3" x1="26.266209847984243" x2="21.928928074336255" y1="57.711370442889674" y2="55.22380399835377" /><path d="M 25.398753493254645 57.213857153982495 a86.0,86.0 0 0,1 29.58750427330803,-30.492523968695096" fill="none" id="id71" stroke="none" /><text fill="#e1ed5e" style="font-size:6.75px; font-family:Arial;" text-anchor="middle"><textPath startOffset="21.46611528233685" xlink:href="#id71">November</textPath></text><path d="M 81.78341655067845 89.55222093294921 l -8.499860757703493 -4.874935387540436 a30.798603366451864,30.798603366451864 0 0,0 0.26771367068435564,-0.4576094438609389 l 8.414687412548812 5.020524243755267" fill="#ff0b01" stroke="none" /><path d="M 81.96595687620814 89.24020034530311 l -29.053125643110302 -17.33420559753407 a54.83132857769459,54.83132857769459 0 0,0 0.4905685904155375,-0.8063657763173331 l 28.75044125440855 17.831739147058475" fill="#93ff23" stroke="none" /><path d="M 82.15384107792192 88.93136811851018 l -38.79776312458393 -24.063338207752224 a66.65425138113638,66.65425138113638 0 0,0 0.6131315218914274,-0.9698268237787723 l 38.37780400644654 24.727612679245212" fill="#34ff5e" stroke="none" /><path d="M 85.83668400450813 84.49514656593479 l -17.086433777744297 -18.704846486452073 a46.33411733854132,46.33411733854132 0 0,0 0.5934937363574575,-0.5328445364313464 l 16.76192905379087 18.9961900316527" fill="#fffa17" stroke="none" /><path d="M 87.51073957382395 83.11751280151077 l -14.932255625276484 -20.18483127391115 a46.10776118284669,46.10776118284669 0 0,0 0.6421157481126101,-0.46652439890579067 l 14.582594560810092 20.438874907633608" fill="#fff717" stroke="none" /><line stroke="#e1ed5e" stroke-width="0.3" x1="56.762969772571076" x2="54.21961505331055" y1="26.818313649435495" y2="22.513508569990535" /><path d="M 56.25429882871897 25.957352633546506 a86.0,86.0 0 0,1 42.265352541879196,-11.944610805530505" fill="none" id="id72" stroke="none" /><text fill="#e1ed5e" style="font-size:6.75px; font-family:Arial;" text-anchor="middle"><textPath startOffset="22.20632615414155" xlink:href="#id72">December</textPath></text><path d="M 89.63071344664047 81.73862282372117 l -12.404953290721853 -21.846395094810017 a46.122656005755644,46.122656005755644 0 0,0 0.6937636181064167,-0.3860787023542915 l 12.02706558354339 22.056689194724495" fill="#fff717" stroke="none" /><path d="M 94.28887869178378 79.79150937346287 l -4.782133768009895 -16.92131898628124 a38.58407915162527,38.58407915162527 0 0,0 0.6406833258347949,-0.17512295490349525 l 4.490152552951377 17.00112848201103" fill="#ff880c" stroke="none" /><path d="M 96.04723909329186 79.375362276772 l -4.738992146459118 -24.727019544255683 a46.177043950912974,46.177043950912974 0 0,0 0.7819420058090849,-0.1428949035140942 l 4.31265501954714 24.80492992912051" fill="#fff817" stroke="none" /><path d="M 97.11714578562143 79.19881850522333 l -3.4536150925797853 -24.919496100616325 a46.157677617704046,46.157677617704046 0 0,0 0.7879451234394959,-0.10229789119891154 l 3.0241552406324317 24.97525231497937" fill="#fff717" stroke="none" /></svg>