<?xml version="1.0" encoding="utf-8" ?>
<svg baseProfile="full" height="200mm" version="1.1" viewBox="0,0,200,200" width="200mm" xmlns="http://www.w3.org/2000/svg" xmlns:ev="http://www.w3.org/2001/xml-events" xmlns:xlink="http://www.w3.org/1999/xlink"><defs /><rect fill="#1a1a1a" height="200" width="200" x="0" y="0" /><text alignment-baseline="middle" fill="#e1ed5e" style="dominant-baseline: central; font-size:9.0px; font-family:Arial;" text-anchor="middle" x="100.0" y="100.0">2024</text><line stroke="#e1ed5e" stroke-width="0.3" x1="100.0" x2="100.0" y1="15.0" y2="10.0" /><path d="M 100.0 14.0 a86.0,86.0 0 0,1 42.35913384403234,11.155469271406648" fill="none" id="id73" stroke="none" /><text fill="#e1ed5e" style="font-size:6.75px; font-family:Arial;" text-anchor="middle"><textPath startOffset="22.145653131862478" xlink:href="#id73">January</textPath></text><path d="M 100.36049292484886 79.00309439819443 l 0.13503123143803972 -7.8648922749005985 a28.866051355620225,28.866051355620225 0 0,0 0.49537812304360745,0.012759183222427651 l -0.27002266855238855 7.861415374328126" fill="#ff3304" stroke="none" /><path d="M 101.80034050326958 79.07731436759882 l 1.412605210860738 -16.41661379936493 a37.477277145185425,37.477277145185425 0 0,0 0.6405052919308536,0.06065651707669301 l -1.6942100661766046 16.389945526783055" fill="#ffaf10" stroke="none" /><path d="M 102.15924093988457 79.11130261209362 l 0.9514115680486553 -9.204043869872294 a30.253086378627973,30.253086378627973 0 0,0 0.5161235578682081,0.05783272118985424 l -1.10927102751766 9.186355388175468" fill="#ff4806" stroke="none" /><path d="M 104.9986988182912 79.60360301121754 l 3.877012534433168 -15.819534174258768 a37.28769129381733,37.28769129381733 0 0,0 0.6203867602812057,0.1576998884599283 l -4.148004587939768 15.750649053963572" fill="#ffac0f" stroke="none" /><path d="M 105.3480935250658 79.69241777938227 l 4.1737888536888255 -15.848556110794782 a37.38893664006874,37.38893664006874 0 0,0 0.6192651220328688,0.16878346275973802 l -4.445235376656387 15.774572153890903" fill="#ffae10" stroke="none" /><path d="M 106.04205211174951 79.88797359093562 l 4.726448540303898 -15.732809996594215 a37.427435167824456,37.427435167824456 0 0,0 0.6137375184585773,0.19013745206423924 l -4.995826691634106 15.649355956723328" fill="#ffae10" stroke="none" /><path d="M 107.40779381753099 80.34994680014964 l 5.801268364334282 -15.388553568540337 a37.445737914938974,37.445737914938974 0 0,0 0.5995378923047775,0.2319141362843174 l -6.064578519132586 15.286699544117981" fill="#ffae10" stroke="none" /><path d="M 108.4095320186766 80.7573450057729 l 6.733666300669779 -15.407946266483565 a37.81508459686185,37.81508459686185 0 0,0 0.5925922624146517,0.2650589815087939 l -6.997171965940063 15.29008353406492" fill="#ffb310" stroke="none" /><path d="M 108.73861861582097 80.90454125486305 l 6.236319666331313 -13.62748394744175 a35.98666079280015,35.98666079280015 0 0,0 0.559526233282241,0.2618865293118404 l -6.469334613485058 13.518421186559376" fill="#ff9a0e" stroke="none" /><path d="M 109.3889696526874 81.21577127319529 l 7.415500962006489 -14.835969371175908 a37.58600740684716,37.58600740684716 0 0,0 0.5746592296576392,0.29342509727231236 l -7.669087413377707 14.706486322230761" fill="#ffb010" stroke="none" /><path d="M 110.34350942703115 81.72400993836675 l 8.202934675612088 -14.49379958178694 a37.6540794885027,37.6540794885027 0 0,0 0.5598041539092314,0.32320307895296546 l -8.450531297381717 14.350849605557801" fill="#ffb110" stroke="none" /><line stroke="#e1ed5e" stroke-width="0.3" x1="143.13028292997686" x2="145.6673583964461" y1="26.7553504044142" y2="22.446841604673864" /><path d="M 143.63769802327073 25.89364864446614 a86.0,86.0 0 0,1 29.32050498858742,28.57503671076993" fill="none" id="id74" stroke="none" /><text fill="#e1ed5e" style="font-size:6.75px; font-family:Arial;" text-anchor="middle"><textPath startOffset="20.669276256404974" xlink:href="#id74">February</textPath></text><path d="M 110.65571695917076 81.90426304109057 l 2.2988326342510823 -3.903920385775876 a25.530477442695663,25.530477442695663 0 0,0 0.37574448985650255,0.22562377014275223 l -2.365509880665019 3.8638826150972023" fill="#ff0000" stroke="none" /><path d="M 110.96478420261332 82.08984904055464 l 8.650074761279479 -14.129247044194399 a37.56681669517715,37.56681669517715 0 0,0 0.5471085767888894,0.34143621589165324 l -8.89134746685808 13.9786750314612" fill="#ffb010" stroke="none" /><path d="M 111.27062007382361 82.28071324371311 l 4.822956467444228 -7.582488638598948 a29.986380975751263,29.986380975751263 0 0,0 0.4319671943704713,0.27999591651135636 l -4.952409294071706 7.498578880383697" fill="#ff4406" stroke="none" /><path d="M 112.16784306229584 82.88440491214696 l 9.699197103254035 -13.643135389457491 a37.73946139225629,37.73946139225629 0 0,0 0.5247923516570157,0.3799091917675527 l -9.931970465285017 13.474625426316864" fill="#ffb210" stroke="none" /><path d="M 112.45986205192187 83.09580414077388 l 9.872242425439076 -13.393592869163655 a37.6387950420561,37.6387950420561 0 0,0 0.5168111453036736,0.3878247182766892 l -10.100706559653517 13.22214912362295" fill="#ffb110" stroke="none" /><path d="M 112.7482090630111 83.31218511350987 l 10.148273202476517 -13.284415385988005 a37.71715110715871,37.71715110715871 0 0,0 0.5111393391327546,0.39746504170828323 l -10.374822486244497 13.10824929265893" fill="#ffb210" stroke="none" /><path d="M 113.59037401385872 83.9905735841838 l 9.749467666989553 -11.484848397025944 a36.06498796854296,36.06498796854296 0 0,0 0.46853660856781315,0.40471076320840127 l -9.945183755320226 11.315793501352823" fill="#ff9b0e" stroke="none" /><path d="M 113.86319453409587 84.22622945171908 l 6.747576782233152 -7.67750374259571 a31.22124533262474,31.22124533262474 0 0,0 0.39953526319065336,0.3572668960017698 l -6.87837707224718 7.5605413167105535" fill="#ff5607" stroke="none" /><path d="M 114.39649973595853 84.71141617570332 l 12.384589916837868 -13.152005316972184 a39.065251486373135,39.065251486373135 0 0,0 0.48427427659494954,0.4639238022506364 l -12.60853667929813 12.937469384415968" fill="#ffc412" stroke="none" /><path d="M 114.65682725009322 84.96080404539774 l 10.156430558237904 -10.42139248544932 a35.55192437515012,35.55192437515012 0 0,0 0.4334085664269983,0.42970424196438467 l -10.333831044794865 10.245508233256276" fill="#ff940d" stroke="none" /><path d="M 115.41159269507618 85.73525988315684 l 12.230592256476655 -11.320453600454526 a37.66553499483982,37.66553499483982 0 0,0 0.43513073279851716,0.4782848990305401 l -12.42312069011705 11.108831125866313" fill="#ffb110" stroke="none" /><path d="M 115.6541949942343 86.00192230759917 l 12.39099231665325 -11.0801017362016 a37.62243499238116,37.62243499238116 0 0,0 0.4263677750058999,0.48512826070378173 l -12.57937115561774 10.86576119768652" fill="#ffb110" stroke="none" /><path d="M 116.1254893667686 86.54754324733833 l 11.570832135590532 -9.652799698415084 a36.06853338343639,36.06853338343639 0 0,0 0.39255133477057774,0.4788488004658914 l -11.734830289599737 9.452748616250696" fill="#ff9b0e" stroke="none" /><path d="M 116.35404254752997 86.82634096563983 l 14.143335900494963 -11.392870247221335 a39.16126214953825,39.16126214953825 0 0,0 0.41722328387132357,0.5271479895620697 l -14.336825615007847 11.148402313744588" fill="#ffc612" stroke="none" /><path d="M 116.57777611688842 87.10902102172516 l 8.173013116865583 -6.355384433702569 a31.353214704071668,31.353214704071668 0 0,0 0.32674233531295044,0.42771620549452394 l -8.28090742953284 6.214147314967163" fill="#ff5808" stroke="none" /><path d="M 116.7966241395341 87.39550010848427 l 20.810279944021364 -15.616422033249409 a47.01807810867466,47.01807810867466 0 0,0 0.4789081881188306,0.6497309341638386 l -21.07529015172402 15.256884789816695" fill="#d3ff1c" stroke="none" /><path d="M 117.21940702142032 87.97951657250589 l 14.021485423180135 -9.788085788815094 a38.09996131228539,38.09996131228539 0 0,0 0.36976967344680095,0.539505004259459 l -14.18744483344226 9.545946049485586" fill="#ffb711" stroke="none" /><path d="M 117.42321728460499 88.27688183743584 l 9.99150927133896 -6.722733344648034 a33.042649257638246,33.042649257638246 0 0,0 0.31260794670509473,0.473328274746788 l -10.10544165696478 6.550225191562188" fill="#ff700a" stroke="none" /><path d="M 117.81537515405839 88.88188828441811 l 14.100453550708748 -8.79972588067788 a37.62100977410118,37.62100977410118 0 0,0 0.337213297572489,0.5508125790214983 l -14.24943481273664 8.556376185531827" fill="#ffb110" stroke="none" /><line stroke="#e1ed5e" stroke-width="0.3" x1="172.87174338648825" x2="177.1583165268699" y1="56.24261187166439" y2="53.66864786411523" /><path d="M 173.72905801456457 55.72781907015455 a86.0,86.0 0 0,1 12.242430191666344,42.057860355516425" fill="none" id="id75" stroke="none" /><text fill="#e1ed5e" style="font-size:6.75px; font-family:Arial;" text-anchor="middle"><textPath startOffset="22.145653131862474" xlink:href="#id75">March</textPath></text><path d="M 118.18653347947321 89.5 l 34.30886160671957 -19.808230484229163 a60.61646096845832,60.61646096845832 0 0,0 0.512545761832488,0.9056192499716598 l -34.643840733573434 19.216354464158385" fill="#38ff2e" stroke="none" /><path d="M 118.36410011445183 89.81374322990088 l 14.538083757491595 -8.06402999199927 a37.624814556911744,37.624814556911744 0 0,0 0.3084422283729885,0.5674989596341038 l -14.674371335479924 7.813276198890563" fill="#ffb110" stroke="none" /><path d="M 118.70294669586156 90.45014215332178 l 14.77624995393967 -7.544858511430903 a37.591035310034556,37.591035310034556 0 0,0 0.2885203016062871,0.5772338753004648 l -14.903590168757695 7.290092779966687" fill="#ffb010" stroke="none" /><path d="M 118.8641267826498 90.77261029715802 l 13.570712514268257 -6.638115527804879 a36.107243822266234,36.107243822266234 0 0,0 0.2675731465068312,0.5591249655184765 l -13.682664918735 6.404178060221299" fill="#ff9c0e" stroke="none" /><path d="M 119.0197475246899 91.09779779509293 l 8.93346666928579 -4.1813134784015205 a30.86357993508961,30.86357993508961 0 0,0 0.2204769743072079,0.4817819786200084 l -9.003928108448049 4.027342517566828" fill="#ff5107" stroke="none" /><path d="M 119.16976305983485 91.42560881287824 l 36.72888182876958 -16.428361669492208 a61.235579125139495,61.235579125139495 0 0,0 0.42096870670185893,0.9632587840131327 l -37.00548441748841 15.795440815703225" fill="#32ff2f" stroke="none" /><path d="M 119.58574465831526 92.42381321644754 l 15.534665150444633 -6.009142202808401 a37.656398510782935,37.656398510782935 0 0,0 0.228035164220342,0.6048903653017412 l -15.635530998479416 5.741583557312502" fill="#ffb110" stroke="none" /><path d="M 119.71291397450082 92.76114493625339 l 17.02533370448471 -6.251938361731006 a39.1369435415107,39.1369435415107 0 0,0 0.2261739434855968,0.6326487736398346 l -17.13014781801425 5.958754631710255" fill="#ffc512" stroke="none" /><path d="M 119.83427380445688 93.10060997987247 l 39.20487991744399 -13.637492348317306 a62.50908101718967,62.50908101718967 0 0,0 0.34384334007616896,1.016511737977583 l -39.43320867909252 12.96247893586556" fill="#31ff3d" stroke="none" /><path d="M 120.05942366710727 93.78553927170692 l 14.355348297462562 -4.447323597927422 a36.02846339204855,36.02846339204855 0 0,0 0.17795260988751768,0.5923463623658368 l -14.429577227353708 4.200239631970861" fill="#ff9b0e" stroke="none" /><path d="M 120.16314734710363 94.1308016681162 l 15.899147678252728 -4.62801017247833 a37.55902699591531,37.55902699591531 0 0,0 0.17488468075581332,0.6206040358807347 l -15.976250851083124 4.354398212694583" fill="#ffb010" stroke="none" /><path d="M 120.43855184770803 95.1765574152323 l 34.62039452314191 -8.170318841014534 a56.57141867991536,56.57141867991536 0 0,0 0.21494213128242778,0.9470746899151741 l -34.75554751598201 7.574809817160333" fill="#63ff29" stroke="none" /><path d="M 120.592083275326 95.88100663000786 l 23.15039124184274 -4.6307266128887905 a44.60898650119707,44.60898650119707 0 0,0 0.14375502447958183,0.7521870331684467 l -23.226472558604478 4.232637014687029" fill="#f1ff19" stroke="none" /><path d="M 120.77682067341334 96.94652285012252 l 62.330462020240034 -9.160431449632455 a84.0,84.0 0 0,0 0.19742193377914985,1.4284467671996575 l -62.478528470574396 8.089096374232712" fill="#4dd2ff" stroke="none" /><path d="M 120.98066250479742 99.09900007780936 l 15.681209831586719 -0.6734186222615272 a36.69566291760436,36.69566291760436 0 0,0 0.02162477687921462,0.6295817841371228 l -15.690459295462782 0.4041305735602844" fill="#ffa40f" stroke="none" /><path d="M 120.99303781780057 99.45929381324524 l 16.25781599666176 -0.4187436696303985 a37.26320777836176,37.26320777836176 0 0,0 0.010981233818548184,0.639601817361713 l -16.26260866207897 0.1395949362996192" fill="#ffac0f" stroke="none" /><line stroke="#e1ed5e" stroke-width="0.3" x1="184.99686870605535" x2="189.99668451229388" y1="99.2704041080226" y2="99.22748670261217" /><path d="M 185.99683186730306 99.26182062694052 a86.0,86.0 0 0,1 -10.086455211305974,41.156179273409016" fill="none" id="id76" stroke="none" /><text fill="#e1ed5e" style="font-size:6.75px; font-family:Arial;" text-anchor="middle"><textPath startOffset="21.40746469413373" xlink:href="#id76">April</textPath></text><path d="M 120.98066250479742 100.90099992219065 l 16.362433324828814 0.7026732901856336 a37.377514282155545,37.377514282155545 0 0,0 -0.03303177405433624,0.6408075921447666 l -16.347959961317905 -0.9834526757071308" fill="#ffad10" stroke="none" /><path d="M 120.77682067341334 103.0534771498775 l 15.445496926102276 2.2699561532389225 a36.61140852812014,36.61140852812014 0 0,0 -0.09672125313601963,0.62101982827867 l -15.404254180827989 -2.534764163449043" fill="#ffa30f" stroke="none" /><path d="M 120.592083275326 104.11899336999214 l 14.913808320538566 2.9831793496697268 a36.20924185007462,36.20924185007462 0 0,0 -0.1271501134923203,0.6084593219199624 l -14.86040049622188 -3.238755122875098" fill="#ff9d0e" stroke="none" /><path d="M 120.51834098615036 104.47187691870673 l 14.596875744575813 3.1813211297862116 a35.93953097099805,35.93953097099805 0 0,0 -0.13655162915226587,0.6016716735113457 l -14.540113253865883 -3.4314271372365743" fill="#ff990e" stroke="none" /><path d="M 120.35273937422433 105.17358676015961 l 14.531661980145412 3.693891649730827 a35.9937998994636,35.9937998994636 0 0,0 -0.15736235507525717,0.597530493650345 l -14.466110144265423 -3.9428026477539753" fill="#ff9a0e" stroke="none" /><path d="M 120.16314734710363 105.8691983318838 l 14.344122853421208 4.1753651091445 a35.93946231390882,35.93946231390882 0 0,0 -0.17751301372807093,0.5908830897219544 l -14.270333519689508 -4.420985802457177" fill="#ff990e" stroke="none" /><path d="M 119.94978838288452 106.5578916946017 l 15.57843069590138 5.1209395966940185 a37.39852204620865,37.39852204620865 0 0,0 -0.20571783371354316,0.6081682217105451 l -15.488227440615471 -5.387609492878725" fill="#ffae10" stroke="none" /><path d="M 119.83427380445688 106.89939002012753 l 11.84869426254404 4.121590926518782 a33.54508140638418,33.54508140638418 0 0,0 -0.19385835120670786,0.5422563106106545 l -11.776195741293389 -4.324382193510358" fill="#ff780b" stroke="none" /><path d="M 119.16976305983485 108.57439118712176 l 13.714261258862384 6.134214622728265 a36.023633079719,36.023633079719 0 0,0 -0.25733831401519763,0.5623306582946327 l -13.606938479992131 -6.368734263237586" fill="#ff9b0e" stroke="none" /><path d="M 119.0197475246899 108.90220220490707 l 7.065277585618295 3.3069066568483367 a28.800883219158464,28.800883219158464 0 0,0 -0.21342927704644568,0.4459851024930137 l -7.007469050611937 -3.427704261406454" fill="#ff3204" stroke="none" /><path d="M 118.70294669586154 109.54985784667822 l 14.17097896104355 7.235802829731575 a36.91142631271912,36.91142631271912 0 0,0 -0.2929922347121914,0.561851242534856 l -14.04467865735641 -7.478000315370934" fill="#ffa70f" stroke="none" /><line stroke="#e1ed5e" stroke-width="0.3" x1="174.33088141563837" x2="178.70328620479359" y1="141.23008692659167" y2="143.65538615756765" /><path d="M 175.20536237346943 141.71514677278685 a86.0,86.0 0 0,1 -30.301960400862466,31.631185727798858" fill="none" id="id77" stroke="none" /><text fill="#e1ed5e" style="font-size:6.75px; font-family:Arial;" text-anchor="middle"><textPath startOffset="22.145653131862474" xlink:href="#id77">May</textPath></text><path d="M 118.18653347947321 110.5 l 15.015621084728437 8.669272875317379 a38.338545750634765,38.338545750634765 0 0,0 -0.3339584730087556,0.5671344974647139 l -14.864588901589915 -8.925758541075641" fill="#ffbb11" stroke="none" /><path d="M 118.00360718960297 110.81064883170644 l 12.86098289257481 7.722650700938589 a36.00147375466188,36.00147375466188 0 0,0 -0.3226966994021586,0.5271008068749721 l -12.726518228717246 -7.942288623938118" fill="#ff9a0e" stroke="none" /><path d="M 117.62189284568427 111.42229804090321 l 12.579446008320293 8.153844922038239 a35.9909188807389,35.9909188807389 0 0,0 -0.34050076201854346,0.5155615522091839 l -12.437620807381023 -8.368586352586483" fill="#ff9a0e" stroke="none" /><path d="M 116.57777611688842 112.89097897827486 l 11.858589791811793 9.221311148151969 a36.02194165683966,36.02194165683966 0 0,0 -0.38377702771934075,0.4848897375170217 l -11.69854633345089 -9.423520829583675" fill="#ff9b0e" stroke="none" /><path d="M 116.1254893667686 113.45245675266167 l 11.55528692113446 9.639831327631116 a36.048289067363086,36.048289067363086 0 0,0 -0.40048865788965987,0.4717746319796127 l -11.388103699737686 -9.836772742060285" fill="#ff9b0e" stroke="none" /><path d="M 114.91283532996324 114.78537596483092 l 11.065418451867192 10.970842794080323 a36.582133266255525,36.582133266255525 0 0,0 -0.44596769976399114,0.44215603292641475 l -10.875458831973235 -11.1591788372354" fill="#ffa20f" stroke="none" /><path d="M 114.65682725009322 115.03919595460226 l 10.490698181756137 10.764380514549408 a36.03085613671798,36.03085613671798 0 0,0 -0.4466582481055408,0.42788849786677197 l -10.304367447785285 -10.942881142721761" fill="#ff9b0e" stroke="none" /><path d="M 114.39649973595853 115.28858382429668 l 6.349769049071534 6.74323468566307 a30.26233129414384,30.26233129414384 0 0,0 -0.38126247195543433,0.3528908521237412 l -6.233076805802132 -6.851243283919191" fill="#ff4806" stroke="none" /><path d="M 113.86319453409587 115.77377054828091 l 9.878996013493854 11.240484001070591 a35.96472662005395,35.96472662005395 0 0,0 -0.46723406793665695,0.4035856596341941 l -9.68458246579434 -11.408413793169503" fill="#ff9a0e" stroke="none" /><path d="M 113.31354834802062 116.24036423190432 l 9.563751781431046 11.666222129058172 a36.08529372936941,36.08529372936941 0 0,0 -0.48242468647737613,0.3886071783744327 l -9.362076324598418 -11.828677601226007" fill="#ff9b0e" stroke="none" /><path d="M 112.7482090630111 116.68781488649013 l 6.864610496071457 8.985995496314827 a32.308005673971195,32.308005673971195 0 0,0 -0.4436150890639808,0.33289703309017205 l -6.70934241809671 -9.102511556669013" fill="#ff6609" stroke="none" /><path d="M 112.45986205192187 116.90419585922612 l 5.73065378567343 7.774732464192668 a30.658512188791015,30.658512188791015 0 0,0 -0.4263270358480068,0.3086278965504541 l -5.596345739451455 -7.871961132116199" fill="#ff4e07" stroke="none" /><path d="M 111.8722381534696 117.32195027204791 l 8.50749662949001 12.412691832042988 a36.04833603485949,36.04833603485949 0 0,0 -0.5134376721882393,0.3454637798435189 l -8.293162669204769 -12.556905285943628" fill="#ff9b0e" stroke="none" /><line stroke="#e1ed5e" stroke-width="0.3" x1="143.1302829299769" x2="145.66735839644613" y1="173.24464959558577" y2="177.55315839532614" /><path d="M 143.63769802327073 174.10635135553383 a86.0,86.0 0 0,1 -40.68552437913181,11.842963189579606" fill="none" id="id78" stroke="none" /><text fill="#e1ed5e" style="font-size:6.75px; font-family:Arial;" text-anchor="middle"><textPath startOffset="21.407464694133747" xlink:href="#id78">June</textPath></text><path d="M 110.65571695917076 118.09573695890943 l 8.033073100857035 13.641914322779852 a36.83136411790781,36.83136411790781 0 0,0 -0.5475728236470032,0.31614131713352195 l -7.7977078093496335 -13.777802537189546" fill="#ffa60f" stroke="none" /><path d="M 110.34350942703117 118.27599006163325 l 8.260830425361801 14.596095824131073 a37.77162283810961,37.77162283810961 0 0,0 -0.5670344582138118,0.31452445547900537 l -8.009051778991896 -14.735753195043221" fill="#ffb310" stroke="none" /><path d="M 110.02825361518725 118.45085714620011 l 3.61599894806398 6.65303078598821 a28.572203578332182,28.572203578332182 0 0,0 -0.4329521302975596,0.23052262325773223 l -3.5012580019798665 -6.71412387696851" fill="#ff2e04" stroke="none" /><path d="M 108.73861861582097 119.09545874513695 l 5.9028931734945225 12.898886886691944 a35.18539497981504,35.18539497981504 0 0,0 -0.551382947766097,0.24662657922781703 l -5.680596822872799 -12.998317216829612" fill="#ff8f0d" stroke="none" /><path d="M 108.4095320186766 119.2426549942271 l 6.383173557555484 14.605950279221721 a36.93984592852053,36.93984592852053 0 0,0 -0.583236058976465,0.2489487922172148 l -6.1315024234085875 -14.71337372109834" fill="#ffa70f" stroke="none" /><path d="M 107.74402155503746 119.51999308798841 l 4.110527930659834 10.36121558084623 a32.14680349613759,32.14680349613759 0 0,0 -0.514697476551021,0.1990960408910516 l -3.9320581916152832 -10.43025150987532" fill="#ff6309" stroke="none" /><path d="M 106.72888874123015 119.89276391827305 l 4.865484258016116 14.38393966892878 a36.18455325205143,36.18455325205143 0 0,0 -0.5901136541524928,0.19398207926645328 l -4.617847866215889 -14.465342669597254" fill="#ff9d0e" stroke="none" /><path d="M 106.0420521117495 120.11202640906438 l 4.378373164295277 14.574180275242258 a36.217650352833104,36.217650352833104 0 0,0 -0.5969703354617593,0.17376936431402662 l -4.1275428164519115 -14.647193333858802" fill="#ff9d0e" stroke="none" /><path d="M 105.69591212413111 120.21278271476187 l 2.8054626738579715 9.955597313523574 a31.343333054844948,31.343333054844948 0 0,0 -0.5191330568177825,0.14149202311785142 l -2.634148216105494 -10.002289830785568" fill="#ff5808" stroke="none" /><path d="M 104.9986988182912 120.39639698878246 l 2.6687089062549387 10.889243036667425 a32.21149504472684,32.21149504472684 0 0,0 -0.53818942338866,0.1270112385058996 l -2.4813873291263997 -10.93345041881955" fill="#ff6409" stroke="none" /><path d="M 101.08105385017728 120.97215588758144 l 0.3878891867260906 7.524946597056867 a28.53493724656926,28.53493724656926 0 0,0 -0.48940711043267343,0.021017247111167554 l -0.25865631569258757 -7.530496412593865" fill="#ff2e04" stroke="none" /><line stroke="#e1ed5e" stroke-width="0.3" x1="101.45913802915013" x2="101.54496967792366" y1="184.9874750549273" y2="189.98673829345242" /><path d="M 101.47630435890484 185.9873277026323 a86.0,86.0 0 0,1 -42.54439059252881,-10.42667462771756" fill="none" id="id79" stroke="none" /><text fill="#e1ed5e" style="font-size:6.75px; font-family:Arial;" text-anchor="middle"><textPath startOffset="22.145653131862474" xlink:href="#id79">July</textPath></text><path d="M 100.36049292484886 120.99690560180557 l 0.14883412059522183 8.66884136984345 a29.670118931765735,29.670118931765735 0 0,0 -0.509327045444073,0.004371960116720236 l -1.0617833398013777e-15 -8.670118931765735" fill="#ff3f05" stroke="none" /><path d="M 100.0 121.0 l 1.843539090910655e-15 15.05363907531705 a36.05363907531705,36.05363907531705 0 0,0 -0.6189086572240909,-0.005312586459879478 l 0.2584157323752369 -15.051420887051606" fill="#ff9b0e" stroke="none" /><path d="M 97.84075906011543 120.88869738790638 l -0.8016713909402592 7.755443489686832 a28.79676732632044,28.79676732632044 0 0,0 -0.49127847061789304,-0.055048777341564006 l 0.9346857631589515 -7.740538951838297" fill="#ff3204" stroke="none" /><path d="M 96.41257539226777 120.69131181640829 l -1.7834767623874788 10.286620024944678 a31.44008337608321,31.44008337608321 0 0,0 -0.530985978464549,-0.09676333334982679 l 1.9597974744030848 -10.254488517663486" fill="#ff5908" stroke="none" /><path d="M 96.05791012581884 120.62667999033965 l -1.6186457954676974 8.469438776495677 a29.622726216226155,29.622726216226155 0 0,0 -0.49865418217096047,-0.09974480205905818 l 1.763796463169616 -8.440404577773757" fill="#ff3e05" stroke="none" /><path d="M 95.70440661134978 120.55596938700252 l -1.5743651496851656 7.533907167843248 a28.696647506429215,28.696647506429215 0 0,0 -0.4813351318474815,-0.10490475169139173 l 1.7034626981517835 -7.505770958018138" fill="#ff3004" stroke="none" /><path d="M 95.00130118170881 120.39639698878247 l -2.429301632204562 9.912379660609327 a31.20572275521402,31.20572275521402 0 0,0 -0.5191959215118157,-0.13197757294844717 l 2.5991028469417565 -9.869216855825616" fill="#ff5607" stroke="none" /><path d="M 94.30408787586889 120.21278271476187 l -2.8421283419046355 10.085710834443072 a31.478514042928985,31.478514042928985 0 0,0 -0.5188558314792788,-0.1510313706577094 l 3.0148441857655213 -10.035435769482847" fill="#ff5a08" stroke="none" /><path d="M 92.59220618246901 119.65005319985036 l -3.0707198217571308 8.145449150672212 a29.705036593255585,29.705036593255585 0 0,0 -0.4756027260141561,-0.18397335153249617 l 3.210094810264815 -8.091535911001674" fill="#ff3f05" stroke="none" /><path d="M 92.25597844496254 119.51999308798841 l -4.637563664661547 11.689689915753556 a33.576002825630226,33.576002825630226 0 0,0 -0.5339312549845888,-0.21714519318334802 l 4.837549380836577 -11.608357465990917" fill="#ff780b" stroke="none" /><path d="M 91.59046798132341 119.24265499422711 l -6.314527119794957 14.44887379559876 a36.76842435716919,36.76842435716919 0 0,0 -0.57619026924099,-0.2577225785871444 l 6.561630791891583 -14.33834746610176" fill="#ffa50f" stroke="none" /><path d="M 91.26138138417905 119.09545874513695 l -4.787107202833876 10.4606931734913 a32.50402090755017,32.50402090755017 0 0,0 -0.5053776033748661,-0.23654223639058142 l 4.965973520080231 -10.376974705530191" fill="#ff6909" stroke="none" /><path d="M 90.93487009805054 118.94263497670748 l -4.8948433320341485 10.228339969728804 a32.33924291042003,32.33924291042003 0 0,0 -0.4987015411030387,-0.24393991400641263 l 5.069705122399256 -10.14280630562517" fill="#ff6609" stroke="none" /><path d="M 90.28995756902619 118.62028667847754 l -6.862342917942922 13.159447378985599 a35.84125350648429,35.84125350648429 0 0,0 -0.5430994153329719,-0.2891698484685866 l 7.087231149062456 -13.03970706279444" fill="#ff980e" stroke="none" /><line stroke="#e1ed5e" stroke-width="0.3" x1="58.13341422392154" x2="55.67067388415222" y1="173.97424548756322" y2="178.32567169271397" /><path d="M 57.64086615596768 174.84453072859336 a86.0,86.0 0 0,1 -31.369924170532247,-30.572349798747897" fill="none" id="id80" stroke="none" /><text fill="#e1ed5e" style="font-size:6.75px; font-family:Arial;" text-anchor="middle"><textPath startOffset="22.145653131862474" xlink:href="#id80">August</textPath></text><path d="M 89.03521579738668 117.91015095944536 l -4.507732531144955 7.36304232037388 a29.63331018694216,29.63331018694216 0 0,0 -0.43156805894610195,-0.26933038741799825 l 4.63346471888077 -7.284576136114334" fill="#ff3e05" stroke="none" /><path d="M 88.1277618465304 117.32195027204791 l -8.538309942630095 12.457649376781397 a36.102839622774184,36.102839622774184 0 0,0 -0.5081988864313491,-0.354762291443593 l 8.750903920235208 -12.309242269532675" fill="#ff9c0e" stroke="none" /><path d="M 87.54013794807813 116.9041958592261 l -6.779492576748823 9.197683719608664 a32.426237587418996,32.426237587418996 0 0,0 -0.44523850900960144,-0.334115277682566 l 6.936384074669191 -9.079949414662083" fill="#ff6709" stroke="none" /><path d="M 86.96720088162412 116.46651593811092 l -6.429407721873611 8.12334662440792 a31.359828378615525,31.359828378615525 0 0,0 -0.4192498885279765,-0.33771803305570114 l 6.567908380756849 -8.01178029755881" fill="#ff5808" stroke="none" /><path d="M 86.40962598614128 116.0094264158162 l -5.628842639309407 6.630762475582989 a29.697751460331983,29.697751460331983 0 0,0 -0.3858169525371895,-0.3332594944872187 l 5.741839071609459 -6.533158848631048" fill="#ff3f05" stroke="none" /><path d="M 86.13680546590413 115.77377054828092 l -8.746129484433004 9.951489848439772 a34.24865771171058,34.24865771171058 0 0,0 -0.4382767672139092,-0.39190978779133445 l 8.915671278470283 -9.799884530765056" fill="#ff820b" stroke="none" /><path d="M 85.60350026404147 115.28858382429668 l -10.221689649603583 10.855080186163411 a35.9102550327233,35.9102550327233 0 0,0 -0.4451632106957828,-0.426456285847338 l 10.40652534616468 -10.67801177001049" fill="#ff990e" stroke="none" /><path d="M 85.08716467003676 114.78537596483092 l -11.259244679275763 11.163012397021124 a36.855076049134766,36.855076049134766 0 0,0 -0.4415820751691898,-0.4531021103811631 l 11.449213555595763 -10.968087594572223" fill="#ffa60f" stroke="none" /><path d="M 84.83555147118756 114.52719865689866 l -6.206379226524702 5.945570905032716 a29.59470514271484,29.59470514271484 0 0,0 -0.34829327277703265,-0.36987538595858216 l 6.307528333037988 -5.838154059129644" fill="#ff3e05" stroke="none" /><path d="M 84.58840730492382 114.26474011684316 l -6.494457376058667 6.0111727906610115 a29.849416643407977,29.849416643407977 0 0,0 -0.3448351002961635,-0.3790341814438231 l 6.5966901771967095 -5.898801033659514" fill="#ff4206" stroke="none" /><path d="M 83.64595745247003 113.17365903436017 l -11.743824734120448 9.459993904073263 a36.080083025329884,36.080083025329884 0 0,0 -0.3843964646669456,-0.48567237586491585 l 11.904487629428955 -9.257001584293668" fill="#ff9b0e" stroke="none" /><path d="M 83.4222238831116 112.89097897827486 l -8.924873764703463 6.940035821049783 a32.30563881049392,32.30563881049392 0 0,0 -0.3366678654277589,-0.44070904302859976 l 9.042693607485518 -6.785805864780312" fill="#ff6609" stroke="none" /><path d="M 83.20337586046588 112.60449989151573 l -11.816009972058573 8.866954167320674 a35.772981008082056,35.772981008082056 0 0,0 -0.3643699233854639,-0.49433778034236214 l 11.966481915027869 -8.662810077709432" fill="#ff970d" stroke="none" /><path d="M 82.576782715395 111.72311816256416 l -12.423409053603757 8.359024050394725 a35.97378962014096,35.97378962014096 0 0,0 -0.3403387065204402,-0.5153161795302775 l 12.565072199044925 -8.144527992525386" fill="#ff9a0e" stroke="none" /><path d="M 82.18462484594161 111.11811171558189 l -12.722475075726342 7.939765397441495 a35.996707859356576,35.996707859356576 0 0,0 -0.3226539806319439,-0.5270310289742665 l 12.85689702081369 -7.720197252342672" fill="#ff9a0e" stroke="none" /><path d="M 81.99639281039703 110.81064883170644 l -14.44577044373149 8.674270090763367 a37.850022116320744,37.850022116320744 0 0,0 -0.3297030532021287,-0.5599078643094286 l 14.59254720706339 -8.42501105816038" fill="#ffb410" stroke="none" /><line stroke="#e1ed5e" stroke-width="0.3" x1="26.387840678322732" x2="22.057713659400548" y1="142.50000000000003" y2="145.00000000000006" /><path d="M 25.521815274538298 143.00000000000003 a86.0,86.0 0 0,1 -11.493303480769221,-40.785679425670985" fill="none" id="id81" stroke="none" /><text fill="#e1ed5e" style="font-size:6.75px; font-family:Arial;" text-anchor="middle"><textPath startOffset="21.40746469413373" xlink:href="#id81">September</textPath></text><path d="M 81.63589988554817 110.18625677009913 l -13.61703929991608 7.553142157416109 a36.57156754298023,36.57156754298023 0 0,0 -0.2998078773514819,-0.5516127262617458 l 13.74469252688289 -7.3182745976797765" fill="#ffa20f" stroke="none" /><path d="M 81.29705330413844 109.54985784667822 l -14.091814207697938 7.195380742602102 a36.822538724720715,36.822538724720715 0 0,0 -0.28262190416260285,-0.5654331292332868 l 14.213256025072278 -6.9524157572050616" fill="#ffa60f" stroke="none" /><path d="M 81.1358732173502 109.22738970284198 l -9.449586543259679 4.622266303128626 a31.51950719452165,31.51950719452165 0 0,0 -0.23357567134996915,-0.4880833181298775 l 9.52754147256956 -4.459370482933644" fill="#ff5a08" stroke="none" /><path d="M 80.9802524753101 108.90220220490708 l -14.358155765273349 6.720341883933585 a36.85306380535965,36.85306380535965 0 0,0 -0.26326343278532344,-0.5752781121210456 l 14.471403662913728 -6.472874789597851" fill="#ffa60f" stroke="none" /><path d="M 80.68587082218212 108.24405325689762 l -15.382946631211526 6.566065190315227 a37.72567664228181,37.72567664228181 0 0,0 -0.2491226832218126,-0.5978037498038946 l 15.493395158969825 -6.301028931070051" fill="#ffb210" stroke="none" /><path d="M 80.5471966667186 107.91128576633889 l -6.9801156970683405 2.838752287550137 a28.53528564120372,28.53528564120372 0 0,0 -0.18064374682674983,-0.4553402472327487 l 7.027818118861214 -2.7185110231038228" fill="#ff2e04" stroke="none" /><path d="M 80.28708602549918 107.23885506374661 l -14.60114545469113 5.3617428579007465 a36.55447636737724,36.55447636737724 0 0,0 -0.21124976362274273,-0.5909031864059185 l 14.691035388357815 -5.110304715113907" fill="#ffa20f" stroke="none" /><path d="M 80.16572619554312 106.89939002012753 l -14.349531555874167 4.991511954819171 a36.1929012195871,36.1929012195871 0 0,0 -0.19908608221207413,-0.5885626267814794 l 14.433103059658608 -4.7444476535635305" fill="#ff9d0e" stroke="none" /><path d="M 80.05021161711548 106.5578916946017 l -10.516841536313413 3.4570947040020563 a32.07047694060044,32.07047694060044 0 0,0 -0.16743123116865352,-0.5244759469375405 l 10.574637483259322 -3.276049723373124" fill="#ff6209" stroke="none" /><path d="M 79.73907114497094 105.5222062557868 l -14.772532347884095 4.026319381949255 a36.31139966609004,36.31139966609004 0 0,0 -0.1587508788595517,-0.6028029446242805 l 14.83947270754838 -3.7721359329521724" fill="#ff9f0e" stroke="none" /><path d="M 79.64726062577567 105.17358676015961 l -14.541633506309394 3.696426372688359 a36.00408854147849,36.00408854147849 0 0,0 -0.14712380444145917,-0.6003153282425217 l 14.602944837267147 -3.4462552198377376" fill="#ff9a0e" stroke="none" /><path d="M 79.34024301695615 103.76489593502545 l -22.179457039464495 4.041835909177711 a43.54472781122384,43.54472781122384 0 0,0 -0.12770047664310474,-0.7365424141963399 l 22.245572333599835 -3.660500462060778" fill="#feff18" stroke="none" /><path d="M 79.2786578344484 103.40968896794605 l -18.16885039773131 2.9896774188882493 a39.41318266471474,39.41318266471474 0 0,0 -0.10412307449144165,-0.6685448310888522 l 18.217494964361016 -2.6773444058679474" fill="#ffc912" stroke="none" /><path d="M 79.22317932658666 103.0534771498775 l -17.243896340811013 2.534258935916027 a38.42912589222149,38.42912589222149 0 0,0 -0.09031848032243767,-0.653499531512529 l 17.284859337688662 -2.237871096203412" fill="#ffbc11" stroke="none" /><path d="M 79.0935383218832 101.97986365728391 l -18.278090222081754 1.7309541476898946 a39.359868856502366,39.359868856502366 0 0,0 -0.05792718844983351,-0.673201736729039 l 18.30511103322933 -1.4169313635851937" fill="#ffc812" stroke="none" /><path d="M 79.03789590574601 101.26102812881392 l -30.104240380504184 1.8109963458676643 a51.15866370799483,51.15866370799483 0 0,0 -0.045210642092671637,-0.877074378477729 l 30.13089261205343 -1.2939501740132047" fill="#a1ff22" stroke="none" /><line stroke="#e1ed5e" stroke-width="0.3" x1="15.003131293944662" x2="10.003315487706104" y1="100.72959589197737" y2="100.7725132973878" /><path d="M 14.003168132696942 100.73817937305945 a86.0,86.0 0 0,1 10.791469493833604,-42.45332614584628" fill="none" id="id82" stroke="none" /><text fill="#e1ed5e" style="font-size:6.75px; font-family:Arial;" text-anchor="middle"><textPath startOffset="22.145653131862435" xlink:href="#id82">October</textPath></text><path d="M 79.00077361379809 100.18025310272382 l -17.439090948408037 0.1496936217707022 a38.439733406427,38.439733406427 0 0,0 0.0,-0.6598934489890331 l 17.439090948408037 0.14969362177069578" fill="#ffbc11" stroke="none" /><path d="M 79.00077361379809 99.81974689727619 l -22.845507720290303 -0.19610120745157494 a43.84634935129479,43.84634935129479 0 0,0 0.012921244386155868,-0.7525977070082165 l 22.838775044305482 0.5882458304288438" fill="#fbff18" stroke="none" /><path d="M 79.00696218219943 99.45929381324524 l -18.449363202585598 -0.47519015170186624 a39.45548179433943,39.45548179433943 0 0,0 0.023251139852143735,-0.6769315675763894 l 18.438487375736607 0.7918279838423943" fill="#ffca12" stroke="none" /><path d="M 79.0935383218832 98.0201363427161 l -17.024533721312526 -1.6122410437492625 a38.10070377532039,38.10070377532039 0 0,0 0.06725247303409376,-0.6506066700794403 l 16.99434885579677 1.9042522361116154" fill="#ffb711" stroke="none" /><path d="M 79.17382384314186 97.30363454192245 l -22.02145897636637 -2.8511187494586165 a43.20525914217849,43.20525914217849 0 0,0 0.10154364058665448,-0.7347191993770421 l 21.96927081922451 3.2287262570357256" fill="#fffb17" stroke="none" /><path d="M 79.2786578344484 96.59031103205396 l -29.307532157904543 -4.822543263759225 a50.70165592551093,50.70165592551093 0 0,0 0.14868908255326332,-0.8575991155811618 l 29.220428257859044 5.324935412260979" fill="#a6ff21" stroke="none" /><path d="M 79.48165901384962 95.52812308129327 l -14.560502524459274 -3.173393755754948 a35.90230390556606,35.90230390556606 0 0,0 0.13641018555810056,-0.6010484469373562 l 14.503881477343512 3.422876536631312" fill="#ff990e" stroke="none" /><path d="M 79.73907114497095 94.47779374421319 l -14.531657122616865 -3.960667768178132 a36.06173787778776,36.06173787778776 0 0,0 0.1679129099095833,-0.5958636806609011 l 14.4615257206327 4.2095393727420465" fill="#ff9b0e" stroke="none" /><path d="M 79.83685265289637 94.1308016681162 l -9.322634224758204 -2.713682953300119 a30.709561476177214,30.709561476177214 0 0,0 0.15168136797066037,-0.5048979422829973 l 9.274676536783913 2.87331849917384" fill="#ff4e07" stroke="none" /><path d="M 79.94057633289273 93.78553927170692 l -18.9211042060227 -5.8618064494584585 a40.808305309290915,40.808305309290915 0 0,0 0.2130490548205988,-0.6673731297993567 l 18.817690435424844 6.185748612949206" fill="#ffdc14" stroke="none" /><path d="M 80.16572619554312 93.10060997987247 l -11.745102111132082 -4.085556198821583 a33.43540079991991,33.43540079991991 0 0,0 0.193224502647185,-0.5404833233793422 l 11.673237438440955 4.286574478581847" fill="#ff760a" stroke="none" /><path d="M 80.41425534168474 92.42381321644754 l -29.083613752581634 -11.250166586681466 a52.18369505266237,52.18369505266237 0 0,0 0.33035093168877466,-0.8327001490563691 l 28.886204145926726 11.747767752951418" fill="#95ff23" stroke="none" /><path d="M 80.5471966667186 92.08871423366112 l -17.02465744274575 -6.923779971247462 a39.37872928504813,39.37872928504813 0 0,0 0.26003866794431857,-0.6239981393132039 l 16.903292930264953 7.215010620001929" fill="#ffc912" stroke="none" /><path d="M 80.9802524753101 91.09779779509293 l -18.866988549168244 -8.830703291110085 a41.831336431685514,41.831336431685514 0 0,0 0.3099916007632267,-0.6477632204520655 l 18.712617690445114 9.153279013627238" fill="#ffe915" stroke="none" /><path d="M 81.29705330413844 90.45014215332179 l -29.50435958659009 -15.065136231798128 a54.128017814192376,54.128017814192376 0 0,0 0.42965256247650374,-0.8239154403625653 l 29.241398955138646 15.569397915265181" fill="#7fff26" stroke="none" /><line stroke="#e1ed5e" stroke-width="0.3" x1="26.387840678322718" x2="22.05771365940052" y1="57.49999999999999" y2="54.99999999999999" /><path d="M 25.521815274538284 56.99999999999999 a86.0,86.0 0 0,1 29.574782752854787,-30.34633250058573" fill="none" id="id83" stroke="none" /><text fill="#e1ed5e" style="font-size:6.75px; font-family:Arial;" text-anchor="middle"><textPath startOffset="21.40746469413373" xlink:href="#id83">November</textPath></text><path d="M 81.99639281039701 89.18935116829357 l -12.884818924463342 -7.736963553222813 a36.029276886800204,36.029276886800204 0 0,0 0.32294591083822205,-0.5275078750268065 l 12.750105049169727 7.957008544374163" fill="#ff9b0e" stroke="none" /><path d="M 82.18462484594161 88.88188828441811 l -30.153697777948732 -18.81813757128522 a56.54388542823768,56.54388542823768 0 0,0 0.5209638798617443,-0.8190417489431338 l 29.826216206461098 19.332992994907027" fill="#64ff29" stroke="none" /><path d="M 82.576782715395 88.27688183743585 l -15.188117208443 -10.219243081975252 a39.30606002136728,39.30606002136728 0 0,0 0.3814751637003788,-0.556583664362238 l 15.010452307927308 10.478461481407525" fill="#ffc812" stroke="none" /><path d="M 82.98947788004972 87.6856937992154 l -30.349332619446425 -21.970576342686392 a58.46716182573222,58.46716182573222 0 0,0 0.5955241826281034,-0.8079429274658978 l 29.967706417234503 22.488325579421154" fill="#4fff2b" stroke="none" /><path d="M 83.64595745247003 86.82634096563983 l -17.953169449597326 -14.461802470411683 a44.053416752819096,44.053416752819096 0 0,0 0.4794546915363349,-0.5848567654319692 l 17.70226793882236 14.767861517542144" fill="#f8ff18" stroke="none" /><path d="M 83.8745106332314 86.54754324733833 l -22.835116156107382 -19.049866056474173 a50.73785343014057,50.73785343014057 0 0,0 0.5636865257729043,-0.6640213099908728 l 22.50473506682736 19.439054148914604" fill="#a6ff21" stroke="none" /><path d="M 84.34580500576568 86.00192230759919 l -7.633742208955269 -6.826139355238177 a31.240615148022933,31.240615148022933 0 0,0 0.3609069077154665,-0.39669991316390274 l 7.515437600397937 6.956176843959738" fill="#ff5608" stroke="none" /><path d="M 85.34317274990677 84.96080404539775 l -43.69605801818538 -44.836004939266694 a83.6068113326543,83.6068113326543 0 0,0 1.0364358742361297,-0.9928821223902338 l 42.91994965808396 45.5794991919625" fill="#4cd6ff" stroke="none" /><path d="M 86.96720088162412 83.53348406188908 l -6.342881331085347 -8.014023356241129 a31.220406740174745,31.220406740174745 0 0,0 0.4230960610807863,-0.32900205617006706 l 6.204375325369316 8.121726464032001" fill="#ff5607" stroke="none" /><path d="M 89.03521579738668 82.08984904055464 l -7.934054722466508 -12.959682121788378 a36.195479098629775,36.195479098629775 0 0,0 0.5327065214331671,-0.319874960219062 l 7.710415444475906 13.093971082543362" fill="#ff9d0e" stroke="none" /><line stroke="#e1ed5e" stroke-width="0.3" x1="56.869717070023135" x2="54.33264160355391" y1="26.7553504044142" y2="22.446841604673864" /><path d="M 56.362301976729285 25.89364864446614 a86.0,86.0 0 0,1 42.16139366436587,-11.88097634709845" fill="none" id="id84" stroke="none" /><text fill="#e1ed5e" style="font-size:6.75px; font-family:Arial;" text-anchor="middle"><textPath startOffset="22.145653131862474" xlink:href="#id84">December</textPath></text><path d="M 91.26138138417902 80.90454125486306 l -6.209945854248196 -13.569852408324849 a35.923281204092284,35.923281204092284 0 0,0 0.5629462080816876,-0.251798678488249 l 5.97608624331089 13.674454837722942" fill="#ff990e" stroke="none" /><path d="M 91.5904679813234 80.7573450057729 l -5.98779060788185 -13.701236714391637 a35.9525089489233,35.9525089489233 0 0,0 0.5676471870040074,-0.24229482974379937 l 5.751708345707411 13.80200619379484" fill="#ff9a0e" stroke="none" /><path d="M 92.93061703081487 80.22567764915836 l -3.5918765034419162 -10.047117850748092 a31.669871317068406,31.669871317068406 0 0,0 0.5134956373113938,-0.17862043805451278 l 3.4188750940855184 10.10729672137119" fill="#ff5c08" stroke="none" /><path d="M 93.61358852112211 79.99465700312896 l -4.5769568274852075 -14.337252073178378 a36.050094046567324,36.050094046567324 0 0,0 0.5911517890854591,-0.18314033537044105 l 4.330164405528132 14.413708996355462" fill="#ff9b0e" stroke="none" /><path d="M 95.00130118170881 79.60360301121753 l -3.566081670995358 -14.55083014601522 a35.98144173377163,35.98144173377163 0 0,0 0.601177665069596,-0.14187629203450924 l 3.315771852185856 14.609902581695962" fill="#ff9a0e" stroke="none" /><path d="M 96.05791012581881 79.37332000966035 l -2.8046419051413 -14.675071576561216 a35.94067408095329,35.94067408095329 0 0,0 0.6069956547274564,-0.11061482838046689 l 2.552311516862805 14.721054578873044" fill="#ff990e" stroke="none" /><path d="M 96.41257539226777 79.30868818359171 l -2.577216289448314 -14.864698688960493 a36.08646117935487,36.08646117935487 0 0,0 0.6112745750808795,-0.100584998712303 l 2.3216642113143617 14.906749686168464" fill="#ff9b0e" stroke="none" /><path d="M 97.48249496171623 79.15144685158666 l -1.2280865492460242 -10.170318352276984 a31.2441969894717,31.2441969894717 0 0,0 0.5330320983161952,-0.059727358414892004 l 1.0533185493290298 10.189901471198848" fill="#ff5608" stroke="none" /></svg>