<?xml version="1.0" encoding="utf-8" ?>
<svg baseProfile="full" height="200mm" version="1.1" viewBox="0,0,200,200" width="200mm" xmlns="http://www.w3.org/2000/svg" xmlns:ev="http://www.w3.org/2001/xml-events" xmlns:xlink="http://www.w3.org/1999/xlink"><defs /><rect fill="#1a1a1a" height="200" width="200" x="0" y="0" /><text alignment-baseline="middle" fill="#e1ed5e" style="dominant-baseline: central; font-size:9.0px; font-family:Arial;" text-anchor="middle" x="100.0" y="100.0">2023</text><line stroke="#e1ed5e" stroke-width="0.3" x1="100.0" x2="100.0" y1="15.0" y2="10.0" /><path d="M 100.0 14.0 a86.0,86.0 0 0,1 42.46469731375804,11.215312516191453" fill="none" id="id61" stroke="none" /><text fill="#e1ed5e" style="font-size:6.75px; font-family:Arial;" text-anchor="middle"><textPath startOffset="22.20632615414155" xlink:href="#id61">January</textPath></text><path d="M 100.36148047927253 79.00311137660856 l 0.2822499831520066 -16.39472060046918 a37.39715001518367,37.39715001518367 0 0,0 0.6435397111956773,0.01662073211309845 l -0.5644163295425517 16.38743307621372" fill="#ff9d0e" stroke="none" /><path d="M 109.73455568895987 81.39251694778311 l 7.612406788241531 -14.551021620784434 a37.421966000397205,37.421966000397205 0 0,0 0.5681990108512273,0.3035122336188434 l -7.861750845621069 14.417830660663835" fill="#ff9e0e" stroke="none" /><line stroke="#e1ed5e" stroke-width="0.3" x1="143.23703022742887" x2="145.7803849466894" y1="26.81831364943548" y2="22.513508569990506" /><path d="M 143.74570117128098 25.957352633546492 a86.0,86.0 0 0,1 28.547481713284135,27.462654790039103" fill="none" id="id62" stroke="none" /><text fill="#e1ed5e" style="font-size:6.75px; font-family:Arial;" text-anchor="middle"><textPath startOffset="19.985693538727396" xlink:href="#id62">February</textPath></text><path d="M 114.16331599549186 84.49514656593476 l 10.93117998334834 -11.966572203652785 a37.20770021112159,37.20770021112159 0 0,0 0.4691574132395148,0.4360306849841264 l -11.1355452803827 11.776636932594016" fill="#ff9b0e" stroke="none" /><path d="M 114.68862486808459 84.99185889309783 l 10.465895162094554 -10.693555919182684 a35.96285733877862,35.96285733877862 0 0,0 0.43868555113737895,0.4368016959669859 l -10.648416513399255 10.511818372565578" fill="#ff890c" stroke="none" /><path d="M 115.4437574822437 85.77008943001954 l 12.077014787392837 -11.127786782104039 a37.42199515414843,37.42199515414843 0 0,0 0.4324135764280959,0.47748187125554836 l -12.266772004436968 10.918252123578942" fill="#ff9e0e" stroke="none" /><path d="M 116.82858285166822 87.43820079747576 l 11.83334156320249 -8.833070610999108 a35.76655372693005,35.76655372693005 0 0,0 0.36403094061833563,0.4965377938972103 l -11.983635116334451 8.628070373430404" fill="#ff860c" stroke="none" /><path d="M 117.2510076193507 88.02491185347247 l 13.4569852714808 -9.341401289032106 a37.381459966669084,37.381459966669084 0 0,0 0.3623786041332148,0.5317458863943597 l -13.615788341282748 9.10837737936734" fill="#ff9d0e" stroke="none" /><line stroke="#e1ed5e" stroke-width="0.3" x1="172.23445277983987" x2="176.4835382374775" y1="55.19839476539836" y2="52.563006222186495" /><path d="M 173.08426987136738 54.67131705675599 a86.0,86.0 0 0,1 12.851231095245387,41.99856678651699" fill="none" id="id63" stroke="none" /><text fill="#e1ed5e" style="font-size:6.75px; font-family:Arial;" text-anchor="middle"><textPath startOffset="22.20632615414155" xlink:href="#id63">March</textPath></text><path d="M 118.21658344932153 89.55222093294921 l 8.394518048841803 -4.814518056729017 a30.67716473926638,30.67716473926638 0 0,0 0.2587726343035358,0.46032764179951075 l -8.476148324437773 4.669306904994712" fill="#ff3a05" stroke="none" /><path d="M 118.56541770881063 90.18545643968196 l 14.572735329927538 -7.703825894565464 a37.48373587539838,37.48373587539838 0 0,0 0.296640157733759,0.5730143660757806 l -14.703184920821412 7.451838806229338" fill="#ff9f0e" stroke="none" /><path d="M 119.34039704204932 91.81776055985345 l 5.9587839177283985 -2.5209511821781097 a27.470108240292724,27.470108240292724 0 0,0 0.1804894855261504,0.4370696054991459 l -6.001295090140747 2.4180070062256607" fill="#ff0801" stroke="none" /><path d="M 119.47837535516314 92.15188598940014 l 7.750160537641091 -3.1226497277523957 a29.35559271873883,29.35559271873883 0 0,0 0.18480946211728871,0.47031992295684505 l -7.802763549640081 2.988780799899766" fill="#ff2603" stroke="none" /><path d="M 120.28053869075195 94.5502522615342 l 15.734365450442779 -4.228108722222781 a37.29254920185984,37.29254920185984 0 0,0 0.16125239340171854,0.6213712507679107 l -15.804814175714801 3.95664104590602" fill="#ff9c0e" stroke="none" /><path d="M 120.53481517161879 95.60439243477599 l 16.15272544745561 -3.4575934374102895 a37.51864073582638,37.51864073582638 0 0,0 0.12974429078799954,0.6326792396292955 l -16.209849034158605 3.179038541617582" fill="#ff9f0e" stroke="none" /><path d="M 120.73433829027371 96.67025291283417 l 16.261523027731595 -2.611453434222644 a37.46987614466357,37.46987614466357 0 0,0 0.09678666449558886,0.6377031901267385 l -16.304065585666486 2.3311511317038236" fill="#ff9e0e" stroke="none" /><path d="M 120.96714384426684 98.82574320788733 l 16.402449412502783 -0.9186128436459593 a37.42815255243949,37.42815255243949 0 0,0 0.030488601936118517,0.643566199347901 l -16.415831622672396 0.6361355376750585" fill="#ff9e0e" stroke="none" /><path d="M 120.98425023603335 99.18683210126433 l 9.708581892008615 -0.3762205963056671 a30.715868684318565,30.715868684318565 0 0,0 0.015925893490244952,0.5285028715913292 l -9.713619479954504 0.20904757728933876" fill="#ff3b05" stroke="none" /><line stroke="#e1ed5e" stroke-width="0.3" x1="184.98032266829074" x2="189.97916517819016" y1="98.17113171792111" y2="98.06355123074" /><path d="M 185.9800911702706 98.14961562048488 a86.0,86.0 0 0,1 -9.607161424134198,41.387399972396054" fill="none" id="id64" stroke="none" /><text fill="#e1ed5e" style="font-size:6.75px; font-family:Arial;" text-anchor="middle"><textPath startOffset="21.466115282336823" xlink:href="#id64">April</textPath></text><path d="M 120.99513854157772 99.54816195383933 l 22.893719800065497 -0.4926975644064526 a43.89902087806121,43.89902087806121 0 0,0 0.00975601990367467,0.755614493050756 l -22.89880882708689 0.09854681329523393" fill="#fff717" stroke="none" /><path d="M 120.99980553446 99.90962569577887 l 16.45927836758098 -0.07083379072301867 a37.45943078625222,37.45943078625222 0 0,0 -0.002775035143230802,0.6448204371959654 l -16.458059035148246 -0.21249612467663137" fill="#ff9e0e" stroke="none" /><path d="M 120.9764740272857 100.99374915477107 l 5.956679000977376 0.28219445817080313 a26.963359659865162,26.963359659865162 0 0,0 -0.025953709097993414,0.463420910660277 l -5.950938940991853 -0.38468708516650346" fill="#ff0000" stroke="none" /><path d="M 120.95626037817324 101.35467743843564 l 16.330832569154182 1.0556754894754554 a37.36491806092613,37.36491806092613 0 0,0 -0.047014748590224344,0.6414788911219466 l -16.31024126189962 -1.3366275170941724" fill="#ff9d0e" stroke="none" /><path d="M 120.89721153311464 102.0752229133903 l 16.28372040220947 1.6170745862603417 a37.36381619167308,37.36381619167308 0 0,0 -0.06906558817611817,0.6394615698908519 l -16.2534725125323 -1.897132478035985" fill="#ff9d0e" stroke="none" /><path d="M 120.8583938346157 102.4346265915055 l 16.289988833300676 1.9013947240301652 a37.400580419169025,37.400580419169025 0 0,0 -0.08014141295973765,0.6388059131286872 l -16.25484591109409 -2.181518391446247" fill="#ff9d0e" stroke="none" /><path d="M 120.76222939487914 103.15116336523771 l 16.19541958700879 2.4580410858875545 a37.380890744375876,37.380890744375876 0 0,0 -0.10202890847047506,0.6353341104398468 l -16.150708924177028 -2.7364544260206065" fill="#ff9d0e" stroke="none" /><path d="M 120.49622156327973 104.57218783832717 l 15.939800733492948 3.5557657704873558 a37.3315865009506,37.3315865009506 0 0,0 -0.14530775016677694,0.6259819846613297 l -15.876232417395618 -3.8296164124972503" fill="#ff9d0e" stroke="none" /><path d="M 120.41448212921028 104.9243191809786 l 15.854186358466306 3.82429852933159 a37.30890812808837,37.30890812808837 0 0,0 -0.15596666712624757,0.6230093058571812 l -15.786008377044997 -4.0966356745861665" fill="#ff9c0e" stroke="none" /><path d="M 119.79798401119884 107.00284435728193 l 10.408771737368443 3.681738927864321 a32.04073052898184,32.04073052898184 0 0,0 -0.1883929942856393,0.5183766087025947 l -10.343854482077578 -3.860363333573047" fill="#ff4f07" stroke="none" /><path d="M 119.54520255179757 107.68017299344265 l 15.187682798007524 5.9679110998777105 a37.3181393445741,37.3181393445741 0 0,0 -0.24007538410620508,0.5958474149126508 l -15.082704799643926 -6.228457882633175" fill="#ff9c0e" stroke="none" /><path d="M 118.81262510543309 109.33194174019688 l 14.982087598818968 7.4318160190375036 a37.72407959080282,37.72407959080282 0 0,0 -0.2935675841817932,0.5792366943546056 l -14.851941344850905 -7.6886069250948035" fill="#ffa20f" stroke="none" /><line stroke="#e1ed5e" stroke-width="0.3" x1="174.80103733775053" x2="179.2010983576182" y1="140.37084112569926" y2="142.7455964860345" /><path d="M 175.68104954172406 140.8457921977663 a86.0,86.0 0 0,1 -30.038265399797805,32.042727171017184" fill="none" id="id65" stroke="none" /><text fill="#e1ed5e" style="font-size:6.75px; font-family:Arial;" text-anchor="middle"><textPath startOffset="22.206326154141568" xlink:href="#id65">May</textPath></text><path d="M 118.48025628344425 109.97397251340804 l 14.346156169094197 7.742758818328294 a37.30222411043475,37.30222411043475 0 0,0 -0.30982799356126184,0.5624278039378977 l -14.210751766081426 -7.988557140663997" fill="#ff9c0e" stroke="none" /><path d="M 118.12598468904814 110.60418214915192 l 14.154933959619399 8.281012071455239 a37.39930841007553,37.39930841007553 0 0,0 -0.32986034062886266,0.5528649044253173 l -14.01029274329231 -8.52343906976666" fill="#ff9d0e" stroke="none" /><path d="M 117.35343817320211 111.8261652097733 l 13.557573208029744 9.23932761920058 a37.40649158552823,37.40649158552823 0 0,0 -0.3671876305565702,0.5289611679643017 l -13.396524670311038 -9.471330049351902" fill="#ff9e0e" stroke="none" /><path d="M 116.498646956653 112.99209946851258 l 13.494147543005313 10.626162713955988 a38.17577805911176,38.17577805911176 0 0,0 -0.4109933148825944,0.5127773534271215 l -13.309236316067864 -10.85686790096136" fill="#ffa90f" stroke="none" /><path d="M 116.0416608686014 113.55231037782055 l 6.077482812240675 5.13437692406075 a28.955980375252842,28.955980375252842 0 0,0 -0.3249377937214221,0.3779760636707703 l -5.988202508948475 -5.238230086893048" fill="#ff1f03" stroke="none" /><path d="M 115.80600337817218 113.82643327865902 l 16.633706899173813 14.55047383678294 a43.09969443414382,43.09969443414382 0 0,0 -0.4932681019098684,0.5541919415949829 l -16.380779947615608 -14.83463994811879" fill="#ffec16" stroke="none" /><path d="M 115.32070863581623 114.36230785411682 l 5.407904840543593 5.069608463415415 a28.41258151636176,28.41258151636176 0 0,0 -0.3375596641306374,0.3539299582952207 l -5.3198386250339915 -5.161945538293143" fill="#ff1702" stroke="none" /><path d="M 114.81725581225074 114.88116024355365 l 12.170501251163696 12.222990657500596 a38.248843477692176,38.248843477692176 0 0,0 -0.47055193019202696,0.4605341017459581 l -11.958299368595876 -12.430674862169125" fill="#ffaa0f" stroke="none" /><path d="M 114.29624159901734 115.38237550388516 l 11.574571126119459 12.453930505108026 a38.002090512041704,38.002090512041704 0 0,0 -0.48298928946975933,0.4411992643651025 l -11.358482287182834 -12.651322536059713" fill="#ffa60f" stroke="none" /><path d="M 114.0293411484842 115.62618273729858 l 12.203578183075152 13.592608570805629 a39.26708318888285,39.26708318888285 0 0,0 -0.5068401513047557,0.4472275042325321 l -11.967795678863808 -13.800659216810448" fill="#ffb811" stroke="none" /><path d="M 113.48314897796784 116.09983520530334 l 12.179175479031914 14.54279845674734 a39.969061713817716,39.969061713817716 0 0,0 -0.531264717065107,0.4371946938267905 l -11.927040633422115 -14.75028826943131" fill="#ffc212" stroke="none" /><path d="M 112.63410532772338 116.77436683061366 l 10.22595467463921 13.577052783407225 a37.99725010968543,37.99725010968543 0 0,0 -0.5258367602209258,0.3890014642299566 l -9.99073294399972 -13.751064196376952" fill="#ffa60f" stroke="none" /><path d="M 112.34349029814194 116.9893568818739 l 11.35139102455967 15.623849378402676 a40.312139901923544,40.312139901923544 0 0,0 -0.5648933870985069,0.40303643284511714 l -11.080770309612278 -15.816930073092012" fill="#ffc612" stroke="none" /><path d="M 112.04921762599082 117.19931262002967 l 9.446658555538303 13.484363778185193 a37.46412537511051,37.46412537511051 0 0,0 -0.5313538960286575,0.3654700548320136 l -9.213147774886762 -13.6449746223823" fill="#ff9e0e" stroke="none" /><line stroke="#e1ed5e" stroke-width="0.3" x1="143.8653032363475" x2="146.44561519142675" y1="172.8068346515853" y2="177.08958963109032" /><path d="M 144.38136562736335 173.6633856474863 a86.0,86.0 0 0,1 -40.68145358897372,12.25698825130547" fill="none" id="id66" stroke="none" /><text fill="#e1ed5e" style="font-size:6.75px; font-family:Arial;" text-anchor="middle"><textPath startOffset="21.466115282336833" xlink:href="#id66">June</textPath></text><path d="M 110.8373102113329 117.98757091392108 l 8.766426034143533 14.550354919793923 a37.98714377710628,37.98714377710628 0 0,0 -0.5629914110142731,0.3326252491531863 l -8.51466675210088 -14.699098741240858" fill="#ffa60f" stroke="none" /><path d="M 110.21172684928248 118.3499491758327 l 10.719552508808349 19.26248582903724 a43.044322768072504,43.044322768072504 0 0,0 -0.6505374345309122,0.3547248782707 l -10.386392262408787 -19.44415135906771" fill="#ffec16" stroke="none" /><path d="M 109.89434966115114 118.52300852407294 l 4.372549302474368 8.18575962800964 a30.280401289282786,30.280401289282786 0 0,0 -0.4618613337193194,0.24162402088725066 l -4.230997066228553 -8.259813067841606" fill="#ff3404" stroke="none" /><path d="M 109.2508944713604 118.85261126421891 l 7.407822768044578 15.096572919790013 a37.81613368421222,37.81613368421222 0 0,0 -0.5868475672806881,0.2817224949626637 l -7.146862532763657 -15.221849691252237" fill="#ffa30f" stroke="none" /><path d="M 107.93186726928326 119.44442032107085 l 5.635049913844545 13.81393249976917 a35.91906560880065,35.91906560880065 0 0,0 -0.5744979574412177,0.22860459355245966 l -5.396430880361462 -13.908883937727698" fill="#ff880c" stroke="none" /><path d="M 107.59598834532513 119.57807347666477 l 2.536509292433492 6.537656858316351 a28.012477207641552,28.012477207641552 0 0,0 -0.45104060638941296,0.1705449633259567 l -2.4235984652838045 -6.580350071748938" fill="#ff1101" stroke="none" /><path d="M 106.91757812671514 119.82793768551818 l 5.453229563624752 15.630657723228584 a37.5546118509108,37.5546118509108 0 0,0 -0.6121943002076703,0.20768954516976817 l -5.183365530479854 -15.722210255296476" fill="#ffa00e" stroke="none" /><path d="M 106.2309692047433 120.05430185196036 l 4.922965153689353 15.844506039865092 a37.59168338511078,37.59168338511078 0 0,0 -0.6195915415478883,0.1866778488814622 l -4.649498637701219 -15.926899257852279" fill="#ffa00e" stroke="none" /><path d="M 105.53697534728816 120.25689768951611 l 4.761833376215597 17.421058514151703 a39.06013114172592,39.06013114172592 0 0,0 -0.6500899590033079,0.1716946667484657 l -4.461252974400791 -17.50044453020375" fill="#ffb510" stroke="none" /><path d="M 105.18746579009965 120.34920634021253 l 3.629653745196663 14.238276644733915 a35.69363495265877,35.69363495265877 0 0,0 -0.5966730145574176,0.14664770999589322 l -3.3840274458960344 -14.298645613043838" fill="#ff850c" stroke="none" /><path d="M 104.13013068566511 120.58985236759428 l 3.326018665497532 16.581129873721874 a37.911424187586036,37.911424187586036 0 0,0 -0.6409420649667931,0.12283807220585735 l -3.0401089859590344 -16.6359251442762" fill="#ffa50f" stroke="none" /><path d="M 103.41894727170886 120.7198165907248 l 2.8506916359886727 17.27602187467378 a38.50963662152081,38.50963662152081 0 0,0 -0.6549648146035858,0.10229203400934829 l -2.5528909577765697 -17.322532216030236" fill="#ffad10" stroke="none" /><path d="M 103.06178313531738 120.77559828337769 l 2.407141713558474 16.333556963977582 a37.50997923453127,37.50997923453127 0 0,0 -0.6395833861457785,0.08864042942271758 l -2.125629736225865 -16.3725719588929" fill="#ff9f0e" stroke="none" /><path d="M 101.62511606390274 120.93702456842531 l 1.3160164124805345 16.95476930699089 a38.005766711653976,38.005766711653976 0 0,0 -0.6526807038748057,0.04501268266889026 l -1.0239729478267983 -16.974910334176066" fill="#ffa60f" stroke="none" /><path d="M 100.90346689309514 120.98055641714683 l 0.7262909885750125 16.86612888366094 a37.88175944978328,37.88175944978328 0 0,0 -0.6517099396172915,0.022446208038470476 l -0.4358606972830687 -16.876131890125507" fill="#ffa40f" stroke="none" /><line stroke="#e1ed5e" stroke-width="0.3" x1="102.19456741930631" x2="102.32365962044197" y1="184.97166512339345" y2="189.96999836594603" /><path d="M 102.22038585953345 185.97133177190398 a86.0,86.0 0 0,1 -42.740103519485714,-10.115201625700543" fill="none" id="id67" stroke="none" /><text fill="#e1ed5e" style="font-size:6.75px; font-family:Arial;" text-anchor="middle"><textPath startOffset="22.20632615414155" xlink:href="#id67">July</textPath></text><path d="M 100.54218724476979 120.99299961872073 l 0.5112758270347476 19.796137488551143 a40.80273876101308,40.80273876101308 0 0,0 -0.7022740262385251,0.01209028423871032 l -0.17044211090355468 -19.802005250069012" fill="#ffcd13" stroke="none" /><path d="M 100.18074693466247 120.99922214144158 l 0.11110438128016413 12.90813361646529 a33.90861176285277,33.90861176285277 0 0,0 -0.5837026318852303,0.0 l 0.11110438128015525 -12.90813361646529" fill="#ff6b09" stroke="none" /><path d="M 99.45781275523022 120.99299961872073 l -0.43537973151044307 16.85750933052363 a37.863130680253335,37.863130680253335 0 0,0 -0.6513894541266171,-0.02243516987016881 l 0.7254895373117032 -16.847517362227364" fill="#ffa40f" stroke="none" /><path d="M 97.65516085044442 120.86867818915974 l -0.8220497784556704 7.316106217909594 a28.362144798222488,28.362144798222488 0 0,0 -0.48468552340608273,-0.05868866697246966 l 0.9478627249131425 -7.300872022211776" fill="#ff1602" stroke="none" /><path d="M 96.93821686468263 120.77559828337769 l -1.4142961277068855 9.596645779397852 a30.700301219657113,30.700301219657113 0 0,0 -0.5221450748608201,-0.08154832223743748 l 1.5792770661762228 -9.570879149813308" fill="#ff3a05" stroke="none" /><path d="M 96.58105272829116 120.7198165907248 l -2.904453781573549 17.60183614073761 a38.8398567061138,38.8398567061138 0 0,0 -0.6587073768457442,-0.11452472082299987 l 3.207010129891343 -17.549232841393604" fill="#ffb210" stroke="none" /><path d="M 95.86986931433489 120.58985236759428 l -3.321664657707728 16.559423931604723 a37.88928586544937,37.88928586544937 0 0,0 -0.6383596599780397,-0.13377447340311754 l 3.6062157791151543 -16.499793477475063" fill="#ffa40f" stroke="none" /><path d="M 95.51606077576429 120.51570834832081 l -1.5563985642259919 7.121108788634011 a28.28920893309317,28.28920893309317 0 0,0 -0.4748274351681322,-0.10806917833885799 l 1.6787461487869868 -7.093262876717467" fill="#ff1502" stroke="none" /><path d="M 94.11515582081647 120.15858648285463 l -4.2359826084383085 14.510396393183516 a36.11605610423251,36.11605610423251 0 0,0 -0.5952700401045236,-0.17934998000889496 l 4.485127622983078 -14.435331044068896" fill="#ff8b0c" stroke="none" /><path d="M 93.42475214034765 119.94407469862007 l -4.7218156991028 14.322234997997823 a36.08051586764085,36.08051586764085 0 0,0 -0.5881644110824835,-0.19953730209727072 l 4.967649843122509 -14.238834709002429" fill="#ff8a0c" stroke="none" /><path d="M 93.08242187328487 119.8279376855182 l -3.4755403997241143 9.961983400389087 a31.550852777844177,31.550852777844177 0 0,0 -0.5112446688453155,-0.18331414903385934 l 3.6465046291991565 -9.90068171031527" fill="#ff4706" stroke="none" /><path d="M 92.7421414339146 119.70592522655815 l -4.2545196139290375 11.551512698080892 a33.31009271935963,33.31009271935963 0 0,0 -0.536339728459599,-0.20279779253716312 l 4.45272956314892 -11.476566655437097" fill="#ff6209" stroke="none" /><path d="M 91.40352486487194 119.15986991738527 l -9.01177394206065 20.085490127133642 a43.01451755614886,43.01451755614886 0 0,0 -0.6729355078009099,-0.3089116862290096 l 9.35617744562898 -19.92739137057056" fill="#ffeb16" stroke="none" /><path d="M 91.07499286063937 119.00905698771935 l -4.600310791347455 9.798039220415527 a31.824252026897227,31.824252026897227 0 0,0 -0.49386288504444886,-0.23708419681943832 l 4.768286344392146 -9.717400747096525" fill="#ff4b07" stroke="none" /><path d="M 90.7491055286396 118.85261126421891 l -7.188502272790347 14.649614622718893 a37.318265027878766,37.318265027878766 0 0,0 -0.5742500721818153,-0.28794090742790857 l 7.439606252654923 -14.523705874381681" fill="#ff9c0e" stroke="none" /><path d="M 90.42595943632237 118.69057910512821 l -6.656528045258956 12.99496938287739 a35.600636797045524,35.600636797045524 0 0,0 -0.5430098972354134,-0.2840771140009055 l 6.879228845020865 -12.878462849931768" fill="#ff840c" stroke="none" /><line stroke="#e1ed5e" stroke-width="0.3" x1="58.666819895761336" x2="56.23545636021788" y1="174.27360380694188" y2="178.64263932499728" /><path d="M 58.180547188652646 175.14741091055294 a86.0,86.0 0 0,1 -31.652253787137756,-30.449443065178592" fill="none" id="id68" stroke="none" /><text fill="#e1ed5e" style="font-size:6.75px; font-family:Arial;" text-anchor="middle"><textPath startOffset="22.20632615414155" xlink:href="#id68">August</textPath></text><path d="M 89.4739219176387 118.17145234162733 l -8.210455164219523 14.17393007654892 a37.38022795380324,37.38022795380324 0 0,0 -0.5539965679765032,-0.3273109373395445 l 8.453219603224408 -14.030500566915627" fill="#ff9d0e" stroke="none" /><path d="M 89.1626897886671 117.98757091392108 l -6.761868396834182 11.223226513481633 a34.10281181995002,34.10281181995002 0 0,0 -0.5002083514923297,-0.30726882428171676 l 6.954055948258821 -11.105169222371538" fill="#ff6e0a" stroke="none" /><path d="M 88.54995079064634 117.60387380957326 l -9.914516426703969 15.243069515898602 a39.18375110481608,39.18375110481608 0 0,0 -0.5622407431503362,-0.3726225065093814 l 10.175431868594266 -15.070148988297904" fill="#ffb710" stroke="none" /><path d="M 88.24862548938628 117.40417183066458 l -8.431616165706352 12.48750062604369 a36.06750885353124,36.06750885353124 0 0,0 -0.5115456762298681,-0.3518457806334112 l 8.645318726559111 -12.340514056045178" fill="#ff8a0c" stroke="none" /><path d="M 87.95078237400918 117.19931262002967 l -6.268609400215522 8.947948000756414 a31.925256849919414,31.925256849919414 0 0,0 -0.4473681258255435,-0.31918527941608216 l 6.421704853889952 -8.838718459496112" fill="#ff4d07" stroke="none" /><path d="M 86.51685102203217 116.09983520530335 l -6.163547224084888 7.359712093222583 a30.599722729258968,30.599722729258968 0 0,0 -0.40090667285661313,-0.3416613640929337 l 6.289319373518558 -7.252526338906697" fill="#ff3905" stroke="none" /><path d="M 86.24171649860922 115.8653595955263 l -10.706499474855113 12.346195959744467 a37.34189969622514,37.34189969622514 0 0,0 -0.4819908318884283,-0.4253008690284501 l 10.917432659650128 -12.160071948943727" fill="#ff9d0e" stroke="none" /><path d="M 85.18274418774928 114.88116024355367 l -10.47475426583427 10.519930189289859 a35.84551811548339,35.84551811548339 0 0,0 -0.43349073215089146,-0.4391238230188758 l 10.654285623040694 -10.338065872290318" fill="#ff870c" stroke="none" /><path d="M 84.9287848128048 114.62390073753433 l -11.679327021315567 11.332683988616534 a37.27379507234491,37.27379507234491 0 0,0 -0.44283655599015964,-0.46431235851846203 l 11.872670128684684 -11.12996451351557" fill="#ff9c0e" stroke="none" /><path d="M 84.67929136418377 114.36230785411682 l -11.880147645343717 11.136974267358827 a37.284044457903526,37.284044457903526 0 0,0 -0.43489812449573345,-0.47199602071735963 l 12.07009217783518 -10.930826991840124" fill="#ff9c0e" stroke="none" /><path d="M 83.72743513129214 113.27417163493432 l -12.656705045744506 10.32457246079442 a37.33367622775623,37.33367622775623 0 0,0 -0.4019274034399491,-0.5014662349548108 l 12.832550361239315 -10.10517839226135" fill="#ff9d0e" stroke="none" /><path d="M 83.28015986056508 112.70617746262583 l -11.986138985769658 9.108819688154897 a36.0545051030416,36.0545051030416 0 0,0 -0.3712562149246337,-0.4973583697150991 l 12.141156467389376 -8.90114843893049" fill="#ff8a0c" stroke="none" /><path d="M 82.85270091963577 112.12312394758628 l -14.204012799731315 10.042223379740987 a38.39540830286968,38.39540830286968 0 0,0 -0.3768949826996681,-0.5429453327349751 l 14.374768689593116 -9.796236784819" fill="#ffac0f" stroke="none" /><path d="M 82.6465618267979 111.8261652097733 l -13.471666315909593 9.18078307668797 a37.3025326630071,37.3025326630071 0 0,0 -0.35703301074186783,-0.5337159081840606 l 13.62770243206219 -8.947530254298089" fill="#ff9c0e" stroke="none" /><path d="M 82.24976979558568 111.22182372390057 l -13.841939189750935 8.750973919521698 a37.376166372900336,37.376166372900336 0 0,0 -0.33911815846147597,-0.546766449012249 l 13.990521987880367 -8.511411139144185" fill="#ff9d0e" stroke="none" /><line stroke="#e1ed5e" stroke-width="0.3" x1="26.63291911575756" x2="22.317208475507996" y1="142.92168965132927" y2="145.44649492493687" /><path d="M 25.769776987707644 143.4266507060508 a86.0,86.0 0 0,1 -11.730757126820373,-40.83630448921669" fill="none" id="id69" stroke="none" /><text fill="#e1ed5e" style="font-size:6.75px; font-family:Arial;" text-anchor="middle"><textPath startOffset="21.46611528233685" xlink:href="#id69">September</textPath></text><path d="M 81.87401531095188 110.60418214915194 l -14.067692613421396 8.229973568339895 a37.29823427249971,37.29823427249971 0 0,0 -0.3194291895690507,-0.5569517167801638 l 14.207273799142824 -7.9866020057014255" fill="#ff9c0e" stroke="none" /><path d="M 81.51974371655577 109.97397251340807 l -19.45790168427017 10.501617163251655 a43.11094527599907,43.11094527599907 0 0,0 -0.3468326701159162,-0.656076704554905 l 19.63578686261097 -10.165125443610624" fill="#ffed16" stroke="none" /><path d="M 80.87730276802145 108.67885076344099 l -14.860850485554433 6.7446083581898595 a37.31976161159739,37.31976161159739 0 0,0 -0.2604544657087112,-0.5872560622023042 l 14.974746035994425 -6.487803959494859" fill="#ff9c0e" stroke="none" /><path d="M 80.73074385275274 108.34839909993369 l -12.210585363227173 5.290232226768745 a34.30732700153567,34.30732700153567 0 0,0 -0.23010254028957072,-0.5438944340529742 l 12.29983888470905 -5.079263267049612" fill="#ff710a" stroke="none" /><path d="M 80.45479744820244 107.68017299344265 l -20.379258110086845 8.007910245427025 a42.89613636275486,42.89613636275486 0 0,0 -0.2641293245257661,-0.6895583195227268 l 20.51408171420612 -7.655928359071139" fill="#ffea16" stroke="none" /><path d="M 80.0844068197444 106.66101706037122 l -15.547971803006224 5.200211939289373 a37.394561031043324,37.394561031043324 0 0,0 -0.19891724938158728,-0.6122043436818981 l 15.63518130340406 -4.931808695629671" fill="#ff9d0e" stroke="none" /><path d="M 79.97269907076064 106.31721596034903 l -15.546507374433356 4.903838258607738 a37.30158032860298,37.30158032860298 0 0,0 -0.1878813591418179,-0.6140071524181511 l 15.628615506081303 -4.635504133637539" fill="#ff9c0e" stroke="none" /><path d="M 79.76711848015287 105.62410040840567 l -21.315275472861266 5.924971654413378 a43.12343231936589,43.12343231936589 0 0,0 -0.19264248288690428,-0.7168943435848396 l 21.414106032089947 -5.557186377653" fill="#ffed16" stroke="none" /><path d="M 79.67330655649465 105.27499134158121 l -15.761369488263018 4.090241623071972 a37.28345309449623,37.28345309449623 0 0,0 -0.1558602545575075,-0.6225842405415709 l 15.829441057115584 -3.818329543133008" fill="#ff9c0e" stroke="none" /><path d="M 79.23777060512086 103.15116336523772 l -16.105430620824848 2.4443831145723895 a37.28987121781536,37.28987121781536 0 0,0 -0.09085579277753969,-0.6354452030744266 l 16.145120464618987 -2.166792439517562" fill="#ff9c0e" stroke="none" /><path d="M 79.18660465613746 102.79330883721812 l -25.70070775892144 3.4492216632460737 a46.93113012176081,46.93113012176081 0 0,0 -0.10056333451519149,-0.8015887212334767 l 25.75627260268348 -3.0063151877251886" fill="#dfff1b" stroke="none" /><path d="M 79.10278846688536 102.07522291339032 l -16.08852018752901 1.5976899924085994 a37.167655833062845,37.167655833062845 0 0,0 -0.057743322713732906,-0.6371927544725747 l 16.113638106519815 -1.3205158493874585" fill="#ff9a0e" stroke="none" /><path d="M 79.0235259727143 100.99374915477108 l -16.231880688120476 0.7689766017483516 a37.25008540554218,37.25008540554218 0 0,0 -0.024829606989914335,-0.6407418285311279 l 16.242712427961592 -0.4894575262032269" fill="#ff9b0e" stroke="none" /><path d="M 79.0095281055655 100.63252640178507 l -22.081317795388248 0.6653979273087689 a43.09134106347092,43.09134106347092 0 0,0 -0.015960083314792428,-0.7416023576952101 l 22.08949994138805 -0.28520575382342994" fill="#ffec16" stroke="none" /><line stroke="#e1ed5e" stroke-width="0.3" x1="15.007084014347285" x2="10.007500721073583" y1="101.09737516637583" y2="101.16192664675087" /><path d="M 14.007167355692545 101.11028546245083 a86.0,86.0 0 0,1 10.666146001902534,-42.60595125391555" fill="none" id="id70" stroke="none" /><text fill="#e1ed5e" style="font-size:6.75px; font-family:Arial;" text-anchor="middle"><textPath startOffset="22.20632615414155" xlink:href="#id70">October</textPath></text><path d="M 79.00019446554 99.90962569577889 l -22.425590066796993 -0.0965102793789733 a43.42579773560017,43.42579773560017 0 0,0 0.009650851854265244,-0.74746911172472 l 22.42060620782501 0.4825156491641653" fill="#fff116" stroke="none" /><path d="M 79.00486145842228 99.54816195383935 l -16.318230439506166 -0.3511859349717639 a37.32200895226282,37.32200895226282 0 0,0 0.019351116047685135,-0.6421693329773411 l 16.309767629002838 0.6320254153740994" fill="#ff9c0e" stroke="none" /><path d="M 79.03285615573316 98.82574320788736 l -16.345942147439803 -0.9154481760928987 a37.37155673876375,37.37155673876375 0 0,0 0.041499172209190985,-0.6419738261077761 l 16.3277623842262 1.1966810664536867" fill="#ff9d0e" stroke="none" /><path d="M 79.08570108090925 98.10471618934814 l -15.048913666761099 -1.3637541736804115 a36.110580001967485,36.110580001967485 0 0,0 0.061427319569148146,-0.6185647251029983 l 15.02320922150972 1.6225944294878403" fill="#ff8b0c" stroke="none" /><path d="M 79.21141760316559 97.0276538004421 l -28.00366413808547 -4.003956743448228 a49.28845833130711,49.28845833130711 0 0,0 0.12731468504456836,-0.8388447026873593 l 27.930593559601597 4.4854005585276795" fill="#c2ff1e" stroke="none" /><path d="M 79.32604984820605 96.31383870115002 l -8.346262778674689 -1.488137033266143 a29.477892084738322,29.477892084738322 0 0,0 0.09336669774664712,-0.49876863275714434 l 8.31941035701818 1.63158374348586" fill="#ff2703" stroke="none" /><path d="M 79.3925641242962 95.95851677861259 l -30.585557414885145 -5.9983696105917375 a52.16820110889472,52.16820110889472 0 0,0 0.1804043569226712,-0.8797157136582382 l 30.47777376204748 6.523960980413379" fill="#9eff22" stroke="none" /><path d="M 79.46518482838121 95.60439243477599 l -11.256554675386045 -2.409536997336608 a32.51155470392637,32.51155470392637 0 0,0 0.12184961154711017,-0.5462279162579017 l 11.213410676836899 2.6029430831444693" fill="#ff5607" stroke="none" /><path d="M 79.54389044137918 95.25157060432595 l -21.35994831879368 -4.958235396441465 a42.927870175374125,42.927870175374125 0 0,0 0.17327977835875005,-0.7183565501445042 l 21.271435740174116 5.325177178245365" fill="#ffea16" stroke="none" /><path d="M 79.71946130924805 94.55025226153421 l -15.798901408930414 -4.245450702097208 a37.35937460274815,37.35937460274815 0 0,0 0.17223246213872054,-0.6196118040702197 l 15.723482176225332 4.51677380958637" fill="#ff9d0e" stroke="none" /><path d="M 80.02781315780177 93.51064311812611 l -10.60037773426653 -3.444271513371943 a32.14589675023769,32.14589675023769 0 0,0 0.1755207388340686,-0.5247846684125426 l 10.53951970166069 3.6262292847068074" fill="#ff5007" stroke="none" /><path d="M 80.2630227832202 92.82701384747504 l -38.60502178538788 -14.030177146330592 a62.07546199140906,62.07546199140906 0 0,0 0.3736215982074154,-1.0011201302240367 l 38.35779559867884 14.69262041358397" fill="#2fff30" stroke="none" /><path d="M 80.65960295795068 91.81776055985345 l -21.157286274441653 -8.950901153933303 a43.97279682507469,43.97279682507469 0 0,0 0.30091901990302405,-0.6945625867522355 l 21.000076544695947 9.313762885272139" fill="#fff817" stroke="none" /><path d="M 80.95270993114464 91.15688171328213 l -11.962551688380177 -5.5538745516505745 a34.18894102771861,34.18894102771861 0 0,0 0.252415007979778,-0.5316503806580996 l 11.865178486558648 5.7589673479492065" fill="#ff6f0a" stroke="none" /><path d="M 81.26839172434947 90.50648371742162 l -56.19482482695157 -28.480548847735136 a84.0,84.0 0 0,0 0.6647622673595439,-1.284109110958658 l 55.69625312643191 29.44363068095413" fill="#4dd2ff" stroke="none" /><line stroke="#e1ed5e" stroke-width="0.3" x1="26.266209847984243" x2="21.928928074336255" y1="57.711370442889674" y2="55.22380399835377" /><path d="M 25.398753493254645 57.213857153982495 a86.0,86.0 0 0,1 29.58750427330803,-30.492523968695096" fill="none" id="id71" stroke="none" /><text fill="#e1ed5e" style="font-size:6.75px; font-family:Arial;" text-anchor="middle"><textPath startOffset="21.46611528233685" xlink:href="#id71">November</textPath></text><path d="M 81.78341655067845 89.55222093294921 l -5.541836626751098 -3.1784162416109862 a27.388605716628355,27.388605716628355 0 0,0 0.23807261920558373,-0.4069432785957113 l 5.48630433307519 3.2733389325605895" fill="#ff0701" stroke="none" /><path d="M 81.96595687620814 89.24020034530311 l -18.942389810876335 -11.301754018615568 a43.057737319237546,43.057737319237546 0 0,0 0.3852318382774625,-0.6332198522364278 l 18.74504217431266 11.626141644059071" fill="#ffec16" stroke="none" /><path d="M 82.15384107792192 88.93136811851018 l -25.295810231357763 -15.689091014903934 a50.76618202146193,50.76618202146193 0 0,0 0.4669821624047997,-0.7386536349155235 l 25.022000472707 16.122192297533672" fill="#afff20" stroke="none" /><path d="M 85.83668400450813 84.49514656593479 l -11.14020890803911 -12.195400173165135 a37.51762815595478,37.51762815595478 0 0,0 0.48056332121008827,-0.4314544946804141 l 10.92863459923305 12.385353676614828" fill="#ff9f0e" stroke="none" /><path d="M 87.51073957382395 83.11751280151077 l -9.735703148921399 -13.160337615786384 a37.370045875482454,37.370045875482454 0 0,0 0.5204307116361374,-0.37811504488374936 l 9.50772712093148 13.3259718954868" fill="#ff9d0e" stroke="none" /><line stroke="#e1ed5e" stroke-width="0.3" x1="56.762969772571076" x2="54.21961505331055" y1="26.818313649435495" y2="22.513508569990535" /><path d="M 56.25429882871897 25.957352633546506 a86.0,86.0 0 0,1 42.265352541879196,-11.944610805530505" fill="none" id="id72" stroke="none" /><text fill="#e1ed5e" style="font-size:6.75px; font-family:Arial;" text-anchor="middle"><textPath startOffset="22.20632615414155" xlink:href="#id72">December</textPath></text><path d="M 89.63071344664047 81.73862282372117 l -8.087923609496034 -14.243663037558319 a37.37975717282001,37.37975717282001 0 0,0 0.5622554689157265,-0.312894559710524 l 7.841544051508262 14.380772994829028" fill="#ff9d0e" stroke="none" /><path d="M 94.28887869178378 79.79150937346287 l -3.117910378186099 -11.032555474055611 a32.46466944200813,32.46466944200813 0 0,0 0.5390713695277309,-0.14734856883088757 l 2.9275411194346455 11.084590583712796" fill="#ff5507" stroke="none" /><path d="M 96.04723909329186 79.375362276772 l -3.089782409356627 -16.12180557858576 a37.41521764859938,37.41521764859938 0 0,0 0.6335730448018606,-0.11578142424055574 l 2.811814243451873 16.17260248417705" fill="#ff9e0e" stroke="none" /><path d="M 97.11714578562143 79.19881850522333 l -2.251727547114566 -16.247298649617967 a37.40259096473214,37.40259096473214 0 0,0 0.6384894274524546,-0.08289425245259732 l 1.9717233911542535 16.283651225234703" fill="#ff9e0e" stroke="none" /></svg>