<?xml version="1.0" encoding="utf-8" ?>
<svg baseProfile="full" height="200mm" version="1.1" viewBox="0,0,200,200" width="200mm" xmlns="http://www.w3.org/2000/svg" xmlns:ev="http://www.w3.org/2001/xml-events" xmlns:xlink="http://www.w3.org/1999/xlink"><defs /><rect fill="#1a1a1a" height="200" width="200" x="0" y="0" /><text alignment-baseline="middle" fill="#e1ed5e" style="dominant-baseline: central; font-size:9.0px; font-family:Arial;" text-anchor="middle" x="100.0" y="100.0">2018</text><line stroke="#e1ed5e" stroke-width="0.3" x1="100.0" x2="100.0" y1="15.0" y2="10.0" /><path d="M 100.0 14.0 a86.0,86.0 0 0,1 42.46469731375804,11.215312516191453" fill="none" id="id1" stroke="none" /><text fill="#e1ed5e" style="font-size:6.75px; font-family:Arial;" text-anchor="middle"><textPath startOffset="22.20632615414155" xlink:href="#id1">January</textPath></text><line stroke="#e1ed5e" stroke-width="0.3" x1="143.23703022742887" x2="145.7803849466894" y1="26.81831364943548" y2="22.513508569990506" /><path d="M 143.74570117128098 25.957352633546492 a86.0,86.0 0 0,1 28.547481713284135,27.462654790039103" fill="none" id="id2" stroke="none" /><text fill="#e1ed5e" style="font-size:6.75px; font-family:Arial;" text-anchor="middle"><textPath startOffset="19.985693538727396" xlink:href="#id2">February</textPath></text><line stroke="#e1ed5e" stroke-width="0.3" x1="172.23445277983987" x2="176.4835382374775" y1="55.19839476539836" y2="52.563006222186495" /><path d="M 173.08426987136738 54.67131705675599 a86.0,86.0 0 0,1 12.851231095245387,41.99856678651699" fill="none" id="id3" stroke="none" /><text fill="#e1ed5e" style="font-size:6.75px; font-family:Arial;" text-anchor="middle"><textPath startOffset="22.20632615414155" xlink:href="#id3">March</textPath></text><line stroke="#e1ed5e" stroke-width="0.3" x1="184.98032266829074" x2="189.97916517819016" y1="98.17113171792111" y2="98.06355123074" /><path d="M 185.9800911702706 98.14961562048488 a86.0,86.0 0 0,1 -9.607161424134198,41.387399972396054" fill="none" id="id4" stroke="none" /><text fill="#e1ed5e" style="font-size:6.75px; font-family:Arial;" text-anchor="middle"><textPath startOffset="21.466115282336823" xlink:href="#id4">April</textPath></text><path d="M 120.99980553446 99.90962569577887 l 9.06891150920693 -0.03902876940182345 a30.068995490497663,30.068995490497663 0 0,0 -0.0022275437041185185,0.5176027080833834 l -9.068239668213309 -0.11708341688524466" fill="#ff6108" stroke="none" /><path d="M 120.99824983174949 100.27111621757518 l 14.092676884476898 0.18195579550880558 a35.093851485019584,35.093851485019584 0 0,0 -0.012997989380578112,0.6039654918969181 l -14.087456832411313 -0.4245111031958385" fill="#ffa60f" stroke="none" /><path d="M 120.9764740272857 100.99374915477107 l 14.609750667773282 0.6921290660494447 a35.6261361000974,35.6261361000974 0 0,0 -0.03429210544573782,0.6123085788670842 l -14.595672211440014 -0.9435093612519523" fill="#ffad10" stroke="none" /><path d="M 120.95626037817324 101.35467743843564 l 6.870895353696785 0.44415591090859863 a27.885236193090773,27.885236193090773 0 0,0 -0.03508685250853437,0.47873222584484565 l -6.862231942523913 -0.5623612732502146" fill="#ff4206" stroke="none" /><path d="M 120.92983693683757 101.71520430193887 l 22.843371206891558 1.8720188161564844 a43.91994900831776,43.91994900831776 0 0,0 -0.06823362228031579,0.752952336047245 l -22.80776298833417 -2.2649525407523" fill="#e8ff1a" stroke="none" /><path d="M 120.8583938346157 102.4346265915055 l 6.369286515629869 0.7434337678549087 a27.412527152797985,27.412527152797985 0 0,0 -0.05873915950503356,0.4682088952296831 l -6.3555458468779875 -0.8529604173719867" fill="#ff3b05" stroke="none" /><path d="M 120.81339534386255 102.79330883721812 l 14.142816968423807 1.8980687662143416 a35.26961586180983,35.26961586180983 0 0,0 -0.08593349361187762,0.6010186541742965 l -14.108049423795327 -2.1412328923690476" fill="#ffa80f" stroke="none" /><path d="M 120.76222939487914 103.15116336523771 l 11.894459862895294 1.8052678956764847 a33.03067610756716,33.03067610756716 0 0,0 -0.09015525746410742,0.5613968742889106 l -11.861622851069898 -2.0097439996586" fill="#ff8a0c" stroke="none" /><path d="M 120.70491114924044 103.5080841355445 l 14.012114168277106 2.3741070446938144 a35.21181648222692,35.21181648222692 0 0,0 -0.10639595369032816,0.59672501136417 l -13.96917177224759 -2.6149508067912026" fill="#ffa70f" stroke="none" /><path d="M 120.5718875245553 104.21870165774334 l 15.567267086366382 3.1923981397135712 a36.89123061379177,36.89123061379177 0 0,0 -0.1329243060490861,0.6209781050812643 l -15.510008741592854 -3.459890064211004" fill="#ffbd11" stroke="none" /><path d="M 120.49622156327973 104.57218783832717 l 28.732533365545603 6.409500366332677 a50.43875283615476,50.43875283615476 0 0,0 -0.1963254815236197,0.8457650360885265 l -28.61794731809143 -6.9031340597697675" fill="#9bff22" stroke="none" /><path d="M 120.32669344350535 105.2749913415812 l 14.270452579718263 3.7033329600644365 a35.74315067558788,35.74315067558788 0 0,0 -0.15967303440393352,0.5942027608438217 l -14.204591468972554 -3.948426654083806" fill="#ffae10" stroke="none" /><path d="M 120.13307415673323 105.97154293290107 l 5.458479024981632 1.6190047079877614 a26.693519957868855,26.693519957868855 0 0,0 -0.1344504647197976,0.4393918979561244 l -5.429801787755702 -1.712723578495943" fill="#ff3104" stroke="none" /><path d="M 120.02730092923936 106.31721596034902 l 13.82417518078365 4.360562633939715 a35.49559677672865,35.49559677672865 0 0,0 -0.18881586736968173,0.5811154865611398 l -13.747067062397722 -4.597877020478649" fill="#ffab0f" stroke="none" /><path d="M 119.9155931802556 106.66101706037122 l 8.175530589623609 2.7344075690930914 a29.62068936778173,29.62068936778173 0 0,0 -0.16588879349683275,0.48215048472477756 l -8.127250965183546 -2.8747307569071694" fill="#ff5a08" stroke="none" /><path d="M 119.79798401119884 107.00284435728193 l 14.006121178850394 4.95417546600898 a35.85648966023424,35.85648966023424 0 0,0 -0.21082888374075567,0.5801105406519744 l -13.918768034104412 -5.194533803667086" fill="#ffb010" stroke="none" /><path d="M 119.67450827220406 107.3425965602758 l 6.545305579663325 2.442731354210661 a27.98626950525212,27.98626950525212 0 0,0 -0.1723230828508047,0.44988119224901746 l -6.502288217219014 -2.5550361132928225" fill="#ff4306" stroke="none" /><path d="M 119.54520255179757 107.68017299344265 l 9.029429413872133 3.548061461467922 a30.701512030320487,30.701512030320487 0 0,0 -0.19750923874483395,0.49020173294990116 l -8.967017560869907 -3.7029625622606366" fill="#ff6a09" stroke="none" /><path d="M 119.41010516605496 108.01547362559984 l 13.44412403819273 5.551799989001741 a35.5453413253932,35.5453413253932 0 0,0 -0.23840602137457648,0.5635214105292692 l -13.346567035625844 -5.782395925197173" fill="#ffac0f" stroke="none" /><path d="M 119.12269723197855 108.67885076344098 l 13.513455437779072 6.133092085292615 a35.84009084862757,35.84009084862757 0 0,0 -0.2597986458060755,0.5595831702937432 l -13.405882175133165 -6.36479532286519" fill="#ffb010" stroke="none" /><line stroke="#e1ed5e" stroke-width="0.3" x1="174.80103733775053" x2="179.2010983576182" y1="140.37084112569926" y2="142.7455964860345" /><path d="M 175.68104954172406 140.8457921977663 a86.0,86.0 0 0,1 -30.038265399797805,32.042727171017184" fill="none" id="id5" stroke="none" /><text fill="#e1ed5e" style="font-size:6.75px; font-family:Arial;" text-anchor="middle"><textPath startOffset="22.206326154141568" xlink:href="#id5">May</textPath></text><path d="M 117.94076556474637 110.91462005526583 l 12.782961620973577 7.776767873726127 a35.96269448879787,35.96269448879787 0 0,0 -0.32629356918733654,0.5260891276642174 l -12.647203412118277 -7.9956533327556185" fill="#ffb110" stroke="none" /><path d="M 117.75023020441432 111.22182372390056 l 7.293092455389154 4.610745719575669 a29.62833550885914,29.62833550885914 0 0,0 -0.2762420951841746,0.42873386625821525 l -7.212645496827928 -4.735601185755337" fill="#ff5b08" stroke="none" /><path d="M 117.55443506779139 111.5257021239791 l 7.406686521512149 4.863002554224632 a29.86046268940539,29.86046268940539 0 0,0 -0.2858028700747387,0.4272365125191007 l -7.321880546026689 -4.989775980949539" fill="#ff5e08" stroke="none" /><path d="M 117.14729908036423 112.12312394758627 l 9.763126966339355 6.902521369356076 a32.956732388712226,32.956732388712226 0 0,0 -0.3314822789412139,0.46039989318992547 l -9.642864895022537 -7.069554867997132" fill="#ff890c" stroke="none" /><path d="M 116.27256486870786 113.27417163493432 l 11.625338801602107 9.483246421925726 a36.00268192527598,36.00268192527598 0 0,0 -0.39586491767174514,0.4768447948204304 l -11.460377884036816 -9.681952473859928" fill="#ffb210" stroke="none" /><path d="M 116.0416608686014 113.55231037782055 l 11.081960085823816 9.362257680666035 a35.50729844674681,35.50729844674681 0 0,0 -0.39845527828008276,0.4634935071980765 l -10.919162297972955 -9.55162828702564" fill="#ffab0f" stroke="none" /><path d="M 115.56566222782051 114.09645910891815 l 10.851434559670631 9.827195355048932 a35.639924881949,35.639924881949 0 0,0 -0.4157203627902882,0.45118234804003937 l -10.680667788884621 -10.012528957890305" fill="#ffad10" stroke="none" /><path d="M 115.07121518719521 114.62390073753431 l 10.378461985478479 10.070428694619157 a35.46118969094282,35.46118969094282 0 0,0 -0.42884293184280586,0.43441562584523313 l -10.203578428580137 -10.247584814445055" fill="#ffab0f" stroke="none" /><path d="M 113.48314897796784 116.09983520530334 l 9.352051728682712 11.167012387781023 a35.56581742315934,35.56581742315934 0 0,0 -0.47273724026330716,0.3890305649492433 l -9.158444359874714 -11.326338071587443" fill="#ffac0f" stroke="none" /><path d="M 113.20401910651253 116.32954008644616 l 5.57675151295056 6.896823357212479 a29.869404143333867,29.869404143333867 0 0,0 -0.40258623998895043,0.3198388571766933 l -5.457207780244259 -6.991796128394298" fill="#ff5e08" stroke="none" /><path d="M 112.63410532772338 116.77436683061366 l 23.582002085004845 31.309945842081135 a60.19723881820283,60.19723881820283 0 0,0 -0.8330582066606078,0.6162765456785615 l -23.039558907925674 -31.711232336499464" fill="#34ff2f" stroke="none" /><path d="M 112.34349029814194 116.9893568818739 l 2.2322322396288117 3.072404096917972 a24.797700318139466,24.797700318139466 0 0,0 -0.34748978742006975,0.24792473689813382 l -2.1790151243598572 -3.110373095660325" fill="#ff1502" stroke="none" /><path d="M 111.7513745106137 117.40417183066458 l 5.281192501015797 7.821619647597801 a30.437623013475026,30.437623013475026 0 0,0 -0.43674409162736966,0.2894501690032091 l -5.145773710648463 -7.911367837692328" fill="#ff6609" stroke="none" /><path d="M 111.45004920935366 117.60387380957326 l 7.977428640409832 12.264894634332968 a35.63102894891951,35.63102894891951 0 0,0 -0.5170201396442098,0.329986715082191 l -7.765126698718691 -12.400395778238968" fill="#ffad10" stroke="none" /><path d="M 111.1453310114006 117.79835938074945 l 7.56609756338925 12.082559360979607 a35.256018835927534,35.256018835927534 0 0,0 -0.5171231966211425,0.31765930368921086 l -7.356995166835798 -12.211007131497196" fill="#ffa80f" stroke="none" /><line stroke="#e1ed5e" stroke-width="0.3" x1="143.8653032363475" x2="146.44561519142675" y1="172.8068346515853" y2="177.08958963109032" /><path d="M 144.38136562736335 173.6633856474863 a86.0,86.0 0 0,1 -40.68145358897372,12.25698825130547" fill="none" id="id6" stroke="none" /><text fill="#e1ed5e" style="font-size:6.75px; font-family:Arial;" text-anchor="middle"><textPath startOffset="21.466115282336833" xlink:href="#id6">June</textPath></text><path d="M 110.5260780823613 118.17145234162733 l 11.6768319335452 20.158029735421618 a44.295805777401284,44.295805777401284 0 0,0 -0.6630686269688175,0.3765076714210541 l -11.328114539655184 -20.356040572637298" fill="#e3ff1b" stroke="none" /><path d="M 109.89434966115114 118.52300852407294 l 7.0864615072802515 13.266418855223202 a36.040472264406674,36.040472264406674 0 0,0 -0.549718625882427,0.28758680375492596 l -6.857051978871329 -13.386435077922846" fill="#ffb210" stroke="none" /><path d="M 109.2508944713604 118.85261126421891 l 2.777869689967157 5.661084727508063 a27.30590519326633,27.30590519326633 0 0,0 -0.4237451710129597,0.2034234330378558 l -2.6800118509539645 -5.708062437045479" fill="#ff3905" stroke="none" /><path d="M 108.92500713936063 119.00905698771935 l 2.7396824860760622 5.835152811968206 a27.446306575360218,27.446306575360218 0 0,0 -0.4293804813326165,0.1971075191971063 l -2.6388340089760263 -5.881447401499387" fill="#ff3b05" stroke="none" /><path d="M 107.93186726928326 119.44442032107085 l 22.37623372187562 54.853778929912025 a80.24215474193747,80.24215474193747 0 0,0 -1.283411837657334,0.510696056805546 l -21.42870080817642 -55.23082183112364" fill="#48f6ff" stroke="none" /><line stroke="#e1ed5e" stroke-width="0.3" x1="102.19456741930631" x2="102.32365962044197" y1="184.97166512339345" y2="189.96999836594603" /><path d="M 102.22038585953345 185.97133177190398 a86.0,86.0 0 0,1 -42.740103519485714,-10.115201625700543" fill="none" id="id7" stroke="none" /><text fill="#e1ed5e" style="font-size:6.75px; font-family:Arial;" text-anchor="middle"><textPath startOffset="22.20632615414155" xlink:href="#id7">July</textPath></text><line stroke="#e1ed5e" stroke-width="0.3" x1="58.666819895761336" x2="56.23545636021788" y1="174.27360380694188" y2="178.64263932499728" /><path d="M 58.180547188652646 175.14741091055294 a86.0,86.0 0 0,1 -31.652253787137756,-30.449443065178592" fill="none" id="id8" stroke="none" /><text fill="#e1ed5e" style="font-size:6.75px; font-family:Arial;" text-anchor="middle"><textPath startOffset="22.20632615414155" xlink:href="#id8">August</textPath></text><path d="M 88.8546689885994 117.79835938074946 l -3.151664704233929 5.033000903804445 a26.93835739119921,26.93835739119921 0 0,0 -0.39088608190772206,-0.24948199160837498 l 3.237832588188575 -4.978004483372266" fill="#ff3405" stroke="none" /><path d="M 87.65650970185807 116.9893568818739 l -4.380413068072822 6.029121351091098 a28.452403834543972,28.452403834543972 0 0,0 -0.39374743723995004,-0.29128494089835555 l 4.483545475731336 -5.952826461452976" fill="#ff4a06" stroke="none" /><path d="M 86.79598089348748 116.32954008644616 l -5.409342295488951 6.689786734095843 a29.60315236511887,29.60315236511887 0 0,0 -0.3934821006832201,-0.3238089807372571 l 5.52369452471686 -6.595682634501405" fill="#ff5a08" stroke="none" /><path d="M 86.51685102203217 116.09983520530335 l -5.741709131573839 6.856007522143148 a29.942710041999675,29.942710041999675 0 0,0 -0.39229872654271253,-0.33432548549882035 l 5.858873334693608 -6.756157646421376" fill="#ff5f08" stroke="none" /><path d="M 86.24171649860922 115.8653595955263 l -5.880592993266711 6.781203662773597 a29.97586191228851,29.97586191228851 0 0,0 -0.3869136475972361,-0.341406308326137 l 5.996448993770534 -6.678974212675171" fill="#ff5f08" stroke="none" /><path d="M 84.9287848128048 114.62390073753433 l -8.345666900025547 8.097967072900154 a32.62872420861193,32.62872420861193 0 0,0 -0.3876501393767374,-0.406449621331675 l 8.483823590781242 -7.953110334985979" fill="#ff840c" stroke="none" /><path d="M 84.67929136418377 114.36230785411682 l -6.202250849220283 5.814263439271614 a29.50138664794775,29.50138664794775 0 0,0 -0.3441176489772211,-0.3734717439036805 l 6.301414906193233 -5.706640440566589" fill="#ff5908" stroke="none" /><path d="M 84.19399662182784 113.82643327865904 l -5.641526935680867 4.934972737869272 a28.49538405217009,28.49538405217009 0 0,0 -0.319769080692917,-0.371963682708911 l 5.725638525944563 -4.837131955998831" fill="#ff4b06" stroke="none" /><path d="M 83.28015986056508 112.70617746262583 l -8.536261796811134 6.487098940730737 a31.721483951884977,31.721483951884977 0 0,0 -0.3266387384908474,-0.4375859687482503 l 8.646661801997066 -6.339200092473179" fill="#ff780b" stroke="none" /><path d="M 83.06392112726016 112.41649034213515 l -11.563387793815465 8.477564018397016 a35.338097117685464,35.338097117685464 0 0,0 -0.3554342957261177,-0.49366714960156716 l 11.70760188191719 -8.277263263344311" fill="#ffa90f" stroke="none" /><line stroke="#e1ed5e" stroke-width="0.3" x1="26.63291911575756" x2="22.317208475507996" y1="142.92168965132927" y2="145.44649492493687" /><path d="M 25.769776987707644 143.4266507060508 a86.0,86.0 0 0,1 -11.730757126820373,-40.83630448921669" fill="none" id="id9" stroke="none" /><text fill="#e1ed5e" style="font-size:6.75px; font-family:Arial;" text-anchor="middle"><textPath startOffset="21.46611528233685" xlink:href="#id9">September</textPath></text><path d="M 81.87401531095188 110.60418214915194 l -7.546503346208409 4.414904759393846 a29.74305992138068,29.74305992138068 0 0,0 -0.25472523596097846,-0.4441349197520079 l 7.621380578321765 -4.284349993783532" fill="#ff5c08" stroke="none" /><path d="M 81.69416730710424 110.29060199501025 l -8.138165400489095 4.574859964632878 a30.335902729876665,30.335902729876665 0 0,0 -0.2519665274606966,-0.45739243596642515 l 8.215708337401308 -4.43409701026863" fill="#ff6509" stroke="none" /><path d="M 81.35079622478065 109.6543875284942 l -7.855835468509057 4.066837431089421 a29.84609052628306,29.84609052628306 0 0,0 -0.23226132454688955,-0.4582736279685889 l 7.924675462842213 -3.931009591418147" fill="#ff5e08" stroke="none" /><path d="M 80.73074385275274 108.34839909993369 l -25.828390593298263 11.190142013480397 a49.14826884413742,49.14826884413742 0 0,0 -0.3296421639425468,-0.7791767008391237 l 26.017183738433115 -10.743890786975115" fill="#aaff21" stroke="none" /><path d="M 80.45479744820244 107.68017299344265 l -13.79411851300005 5.420318167137487 a35.82084864586679,35.82084864586679 0 0,0 -0.22056383998693713,-0.5758225866133818 l 13.885376632580497 -5.182072013690948" fill="#ffaf10" stroke="none" /><path d="M 79.86692584326677 105.97154293290107 l -14.170886129873264 4.203136305117612 a35.781081438962175,35.781081438962175 0 0,0 -0.17005787560887523,-0.5919937744918411 l 14.241136642368241 -3.9585850551211745" fill="#ffaf10" stroke="none" /><path d="M 79.76711848015287 105.62410040840567 l -3.9065834516005844 1.085906501457322 a25.05469939628412,25.05469939628412 0 0,0 -0.11192521652590402,-0.41651536789543514 l 3.9246967444682634 -1.0185002003863477" fill="#ff1902" stroke="none" /><path d="M 79.50377843672027 104.57218783832718 l -9.381819985391104 2.092846386644743 a30.61241656589933,30.61241656589933 0 0,0 -0.11030085363936319,-0.5152888671581481 l 9.416454877754907 -1.9310437000704312" fill="#ff6809" stroke="none" /><path d="M 79.1416061653843 102.43462659150553 l -7.914736117126115 0.9238212284363798 a28.96846870269629,28.96846870269629 0 0,0 -0.05354710876559425,-0.495779723862601 l 7.929465527392761 -0.7874451826889967" fill="#ff5107" stroke="none" /><line stroke="#e1ed5e" stroke-width="0.3" x1="15.007084014347285" x2="10.007500721073583" y1="101.09737516637583" y2="101.16192664675087" /><path d="M 14.007167355692545 101.11028546245083 a86.0,86.0 0 0,1 10.666146001902534,-42.60595125391555" fill="none" id="id10" stroke="none" /><text fill="#e1ed5e" style="font-size:6.75px; font-family:Arial;" text-anchor="middle"><textPath startOffset="22.20632615414155" xlink:href="#id10">October</textPath></text><path d="M 79.00175016825051 100.2711162175752 l -14.789991148965205 0.1909590794664869 a35.79122386946056,35.79122386946056 0 0,0 -0.0026514525707487732,-0.6161041996333507 l 14.791086898825457 0.06365459837053923" fill="#ffaf10" stroke="none" /><path d="M 79.00019446554 99.90962569577889 l -3.2931033127890146 -0.014172127457713924 a24.29313380807684,24.29313380807684 0 0,0 0.005398851550984681,-0.41814700236691 l 3.2923714541203144 0.0708553878850959" fill="#ff0d01" stroke="none" /><path d="M 79.00486145842228 99.54816195383935 l -25.21710256261556 -0.542699269602851 a46.22294162366276,46.22294162366276 0 0,0 0.023966167217015326,-0.7953204134505312 l 25.204024700942895 0.9766898304783767" fill="#ccff1d" stroke="none" /><path d="M 79.01574976396665 99.18683210126434 l -15.098113375161644 -0.5850721846173351 a36.10944528930324,36.10944528930324 0 0,0 0.029414396075707727,-0.6208914114272145 l 15.085805370852437 0.8448747026675587" fill="#ffb310" stroke="none" /><path d="M 79.03285615573316 98.82574320788736 l -3.3936824029919084 -0.19006187211693418 a24.399000407121118,24.399000407121118 0 0,0 0.02709382236081651,-0.41912943991219137 l 3.389907989626679 0.24845037628213731" fill="#ff0f01" stroke="none" /><path d="M 79.05617556472873 98.46500227214037 l -26.968166060820348 -1.976528869206229 a48.04050012582586,48.04050012582586 0 0,0 0.06754383637069161,-0.8242058859863347 l 26.93014774063016 2.440448672400342" fill="#b7ff1f" stroke="none" /><path d="M 79.08570108090925 98.10471618934814 l -14.948528173132194 -1.354657096047774 a36.009783156021925,36.009783156021925 0 0,0 0.061255855137750954,-0.6168381016785015 l 14.922995192312214 1.611770728430706" fill="#ffb210" stroke="none" /><path d="M 79.12142395522702 97.74499172005258 l -6.876197568177201 -0.7426695392225214 a27.916187608870587,27.916187608870587 0 0,0 0.05571226515111198,-0.47730866490775664 l 6.8623949500225 0.8609219424551399" fill="#ff4206" stroke="none" /><path d="M 79.21141760316559 97.0276538004421 l -15.20184932354693 -2.1735565321653283 a36.35645046403442,36.35645046403442 0 0,0 0.09391062729237205,-0.6187536983866113 l 15.162182802815256 2.4349093429440316" fill="#ffb610" stroke="none" /><path d="M 79.3925641242962 95.95851677861259 l -14.278603635837095 -2.800287108359426 a35.55060581826696,35.55060581826696 0 0,0 0.12293857262719224,-0.5994921408755863 l 14.228285767294908 3.0456549053984148" fill="#ffac0f" stroke="none" /><path d="M 79.46518482838121 95.60439243477599 l -17.461123027310418 -3.7376642465344525 a38.85667806157383,38.85667806157383 0 0,0 0.14563041266193555,-0.6528325847091629 l 17.394198227646445 4.037675000793575" fill="#ffd714" stroke="none" /><path d="M 79.62865764111835 94.90015583598534 l -13.699560861607461 -3.429603424203011 a35.122327975521316,35.122327975521316 0 0,0 0.15186839111578368,-0.5852108619847641 l 13.63849613862137 3.6649107117366393" fill="#ffa60f" stroke="none" /><path d="M 79.71946130924805 94.55025226153421 l -6.811933072857988 -1.8304896839508793 a28.05358948849074,28.05358948849074 0 0,0 0.12933136169458972,-0.4652737198745949 l 6.779414940597038 1.9474747072444167" fill="#ff4406" stroke="none" /><path d="M 79.91906864156998 93.8553929516997 l -28.325304957426567 -8.667320523138644 a50.621703968239814,50.621703968239814 0 0,0 0.26213489089787784,-0.8310392389648567 l 28.171914582760486 9.153609928529914" fill="#99ff23" stroke="none" /><path d="M 80.14247586403 93.16781622104843 l -12.448445636885818 -4.283014728882121 a34.16465016406903,34.16465016406903 0 0,0 0.19611634868995984,-0.554447327058057 l 12.372876207386048 4.496659682366789" fill="#ff990e" stroke="none" /><path d="M 80.52162464483688 92.15188598940014 l -13.121456028706541 -5.286820949934369 a35.14648663343461,35.14648663343461 0 0,0 0.2309263303599065,-0.5592064258787283 l 13.028508011460435 5.511901946266408" fill="#ffa60f" stroke="none" /><path d="M 80.95270993114464 91.15688171328213 l -57.141870206566075 -26.529354860153617 a84.0,84.0 0 0,0 0.6201672246329939,-1.3062303374378712 l 56.676744788091334 27.50902761323202" fill="#4dd2ff" stroke="none" /><line stroke="#e1ed5e" stroke-width="0.3" x1="26.266209847984243" x2="21.928928074336255" y1="57.711370442889674" y2="55.22380399835377" /><path d="M 25.398753493254645 57.213857153982495 a86.0,86.0 0 0,1 29.58750427330803,-30.492523968695096" fill="none" id="id11" stroke="none" /><text fill="#e1ed5e" style="font-size:6.75px; font-family:Arial;" text-anchor="middle"><textPath startOffset="21.46611528233685" xlink:href="#id11">November</textPath></text><path d="M 81.78341655067845 89.55222093294921 l -2.076856213277535 -1.1911418477960276 a23.394191018319223,23.394191018319223 0 0,0 0.2033515830470186,-0.34759377281148907 l 2.0560449557601914 1.2267150329614085" fill="#ff0000" stroke="none" /><path d="M 82.15384107792192 88.93136811851018 l -21.21061512538729 -13.15535134635762 a45.959035699389936,45.959035699389936 0 0,0 0.4227627333461318,-0.6687091174635685 l 20.981024795795193 13.518508111535404" fill="#cfff1d" stroke="none" /><path d="M 83.84228863543731 86.58626213691792 l -9.372430014765024 -7.780762790073713 a33.181244352571866,33.181244352571866 0 0,0 0.3686110542259674,-0.4363192222920077 l 9.237108347051933 7.940940961994837" fill="#ff8c0c" stroke="none" /><path d="M 84.31358615837235 86.03803664274999 l -10.616834998046668 -9.44969721628333 a35.21316160659484,35.21316160659484 0 0,0 0.40689036180262683,-0.44929850018636996 l 10.452600995627998 9.631048503739256" fill="#ffa70f" stroke="none" /><path d="M 85.57189188830299 84.74124197986013 l -20.900150890793068 -22.1034069441494 a51.42000831355229,51.42000831355229 0 0,0 0.6483625150776953,-0.602582296665177 l 20.516580491920518 22.45989382688922" fill="#90ff24" stroke="none" /><line stroke="#e1ed5e" stroke-width="0.3" x1="56.762969772571076" x2="54.21961505331055" y1="26.818313649435495" y2="22.513508569990535" /><path d="M 56.25429882871897 25.957352633546506 a86.0,86.0 0 0,1 42.265352541879196,-11.944610805530505" fill="none" id="id12" stroke="none" /><text fill="#e1ed5e" style="font-size:6.75px; font-family:Arial;" text-anchor="middle"><textPath startOffset="22.20632615414155" xlink:href="#id12">December</textPath></text><path d="M 96.40284397218896 79.31037775812273 l -1.222499313599966 -7.031401694501713 a28.13688407928796,28.13688407928796 0 0,0 0.47788594196846595,-0.0788552751095528 l 1.1012841654926144 7.051403232550893" fill="#ff4506" stroke="none" /><path d="M 96.75951476605007 79.25152402106235 l -1.0476390342319308 -6.707919267344695 a27.78923621943298,27.78923621943298 0 0,0 0.47325204201261606,-0.06974504903418573 l 0.9320180117906659 6.72495880053985" fill="#ff4006" stroke="none" /><path d="M 99.27714615592234 79.0124445844662 l -0.271781249387292 -7.890978348046211 a28.895657308726907,28.895657308726907 0 0,0 0.4972438528528728,-0.012842341706928238 l 0.13591076133954014 7.894487481895499" fill="#ff5007" stroke="none" /><path d="M 99.63851952072746 79.00311137660856 l -0.12251734718771717 -7.116520091239382 a28.117574636726733,28.117574636726733 0 0,0 0.48399782646025113,-0.004165922095910462 l 1.7433029993119557e-15 7.117574636726733" fill="#ff4506" stroke="none" /></svg>