<?xml version="1.0" encoding="utf-8" ?>
<svg baseProfile="full" height="200mm" version="1.1" viewBox="0,0,200,200" width="200mm" xmlns="http://www.w3.org/2000/svg" xmlns:ev="http://www.w3.org/2001/xml-events" xmlns:xlink="http://www.w3.org/1999/xlink"><defs /><rect fill="#1a1a1a" height="200" width="200" x="0" y="0" /><text alignment-baseline="middle" fill="#e1ed5e" style="dominant-baseline: central; font-size:9.0px; font-family:Arial;" text-anchor="middle" x="100.0" y="100.0">2021</text><line stroke="#e1ed5e" stroke-width="0.3" x1="100.0" x2="100.0" y1="15.0" y2="10.0" /><path d="M 100.0 14.0 a86.0,86.0 0 0,1 42.46469731375804,11.215312516191453" fill="none" id="id37" stroke="none" /><text fill="#e1ed5e" style="font-size:6.75px; font-family:Arial;" text-anchor="middle"><textPath startOffset="22.20632615414155" xlink:href="#id37">January</textPath></text><path d="M 100.0 79.0 l 0.0 -21.71553823318544 a42.71553823318544,42.71553823318544 0 0,0 0.7352777729959944,0.0063287679276540585 l -0.37379729372346604 21.712320841866347" fill="#fdff18" stroke="none" /><path d="M 100.72285384407766 79.0124445844662 l 0.9391504025475413 -27.267574598205755 a48.28374292408065,48.28374292408065 0 0,0 0.8303864954089748,0.03575818925670372 l -1.4083777303458476 27.247368682424856" fill="#b9ff1f" stroke="none" /><path d="M 101.44485096284872 79.0497635885617 l 1.8774778592944579 -27.223295703737165 a48.28795983735785,48.28795983735785 0 0,0 0.8287359267171913,0.06432585790019243 l -2.3458039753739905 27.186944583648508" fill="#b9ff1f" stroke="none" /><path d="M 102.88285421437855 79.19881850522331 l 3.7442351541267347 -27.01645980280777 a48.27468418086865,48.27468418086865 0 0,0 0.822120215385176,0.12115914912947591 l -4.208724349940566 26.948006169517324" fill="#b9ff1f" stroke="none" /><path d="M 105.71112130821622 79.79150937346287 l 5.127163996905501 -18.14218959473392 a39.852767805880276,39.852767805880276 0 0,0 0.6585381085446347,0.1922453321881222 l -5.438692323173563 18.051245933627097" fill="#ffdd14" stroke="none" /><path d="M 106.0581310904928 79.89281104454417 l 7.797002443563124 -25.87857526967477 a48.02765075053975,48.02765075053975 0 0,0 0.7895165501632082,0.24530663530534777 l -8.24130436643705 25.740528499486903" fill="#bcff1f" stroke="none" /><path d="M 107.08798089147638 80.2323363322302 l 1.879236015701729 -5.240999669655404 a26.56772893916708,26.56772893916708 0 0,0 0.42915443905947004,0.15806120168889878 l -1.9691727805337755 5.207875200160181" fill="#ff2403" stroke="none" /><path d="M 107.76421540070413 80.48803036053334 l 7.034949863791284 -17.679278725963353 a40.02754361068074,40.02754361068074 0 0,0 0.6379935479642439,0.2602535872785943 l -7.338227281343915 17.555564252501178" fill="#ffdf14" stroke="none" /><path d="M 108.76106565485865 80.91482961587045 l 1.3099663434963422 -2.8536403958162366 a24.1399483004864,24.1399483004864 0 0,0 0.37614843152478045,0.17660673220069809 l -1.3588929863207206 2.8306686809755357" fill="#ff0000" stroke="none" /><path d="M 110.36928655335952 81.73862282372117 l 9.479235529019542 -16.69390603176313 a40.197458290408235,40.197458290408235 0 0,0 0.598756966658494,0.34683868217661235 l -9.765189228143365 16.52826319219647" fill="#ffe115" stroke="none" /><line stroke="#e1ed5e" stroke-width="0.3" x1="143.23703022742887" x2="145.7803849466894" y1="26.81831364943548" y2="22.513508569990506" /><path d="M 143.74570117128098 25.957352633546492 a86.0,86.0 0 0,1 28.547481713284135,27.462654790039103" fill="none" id="id38" stroke="none" /><text fill="#e1ed5e" style="font-size:6.75px; font-family:Arial;" text-anchor="middle"><textPath startOffset="19.985693538727396" xlink:href="#id38">February</textPath></text><path d="M 114.42810811169701 84.74124197986012 l 35.82311939188254 -37.88551528000882 a73.14027379096558,73.14027379096558 0 0,0 0.9073460423486672,0.8728661738500907 l -36.469948677843625 37.26326601939642" fill="#3fffbe" stroke="none" /><path d="M 115.4437574822437 85.77008943001954 l 10.09402197831764 -9.300653044314025 a34.72557564364669,34.72557564364669 0 0,0 0.4012562744380843,0.4430772001988365 l -10.25262189337176 9.125523056845639" fill="#ff980e" stroke="none" /><path d="M 115.9244219780498 86.31012108654704 l 16.523637809352277 -14.20501171920642 a42.79020340422383,42.79020340422383 0 0,0 0.4753571571872784,0.5626729387441214 l -16.765705580026673 13.918479830833192" fill="#fcff18" stroke="none" /><path d="M 116.15771136456269 86.58626213691792 l 10.400982851686994 -8.63464226727862 a34.51804317809946,34.51804317809946 0 0,0 0.3755916627032074,0.46043096801603617 l -10.548073006466609 8.454327129654484" fill="#ff960d" stroke="none" /><path d="M 117.04232023915458 87.72973835380427 l 22.582141212050576 -16.258864832652964 a48.82631465658851,48.82631465658851 0 0,0 0.4852112233483205,0.6862968653850614 l -22.858665055202778 15.867741466936112" fill="#b3ff20" stroke="none" /><path d="M 117.45458315368197 88.32363383020206 l 13.472678051422225 -9.0126427443798 a37.20928077106125,37.20928077106125 0 0,0 0.35154507147096276,0.5354272619713142 l -13.625819758251113 8.779397418430813" fill="#ffba11" stroke="none" /><line stroke="#e1ed5e" stroke-width="0.3" x1="172.23445277983987" x2="176.4835382374775" y1="55.19839476539836" y2="52.563006222186495" /><path d="M 173.08426987136738 54.67131705675599 a86.0,86.0 0 0,1 12.851231095245387,41.99856678651699" fill="none" id="id39" stroke="none" /><text fill="#e1ed5e" style="font-size:6.75px; font-family:Arial;" text-anchor="middle"><textPath startOffset="22.20632615414155" xlink:href="#id39">March</textPath></text><path d="M 118.03404312379186 89.2402003453031 l 14.13686867872119 -8.434596373296065 a37.461879358682815,37.461879358682815 0 0,0 0.32563350728987084,0.5566132196106519 l -14.279961860481388 8.190003741331518" fill="#ffbd11" stroke="none" /><path d="M 118.21658344932153 89.55222093294921 l 14.326689069828962 -8.21680325404154 a37.51574628707962,37.51574628707962 0 0,0 0.31645846599847305,0.5629442996267294 l -14.466005177119868 7.968975444480017" fill="#ffbe11" stroke="none" /><path d="M 118.89224826269711 90.83032412892265 l 19.48316574462103 -9.456487779350558 a42.6568443812431,42.6568443812431 0 0,0 0.3149330570418602,0.6633293360731493 l -19.643056995504644 9.11971602763687" fill="#feff18" stroke="none" /><path d="M 119.04729006885535 91.15688171328212 l 12.442046070815975 -5.7764902374708855 a34.71759271490095,34.71759271490095 0 0,0 0.24698704343887554,0.544203210844311 l -12.539635431218198 5.561465017784512" fill="#ff980e" stroke="none" /><path d="M 119.34039704204932 91.81776055985345 l 15.26700738337567 -6.45893203090253 a37.577072040136215,37.577072040136215 0 0,0 0.24689623865970628,0.5978788255484613 l -15.375925308921573 6.195178634900765" fill="#ffbf11" stroke="none" /><path d="M 119.7369772167798 92.82701384747503 l 12.931650169033093 -4.699734238579904 a34.75918158930733,34.75918158930733 0 0,0 0.19952915496016127,0.5640957899573457 l -13.010632404803063 4.4764408221959435" fill="#ff990e" stroke="none" /><path d="M 119.85752413597 93.16781622104841 l 10.583726164207912 -3.641438969170593 a32.192646571974535,32.192646571974535 0 0,0 0.1757759988853119,0.5255478634756493 l -10.644839456864993 3.45871800277263" fill="#ff750a" stroke="none" /><path d="M 120.18372546131832 94.20196356495316 l 26.404986580733276 -7.585174231358917 a48.47286269118629,48.47286269118629 0 0,0 0.22346735128699985,0.8039309602983519 l -26.53164070258664 7.129531967641613" fill="#b7ff1f" stroke="none" /><path d="M 120.37134235888165 94.90015583598534 l 26.76048691465396 -6.699328429792318 a48.58631293448962,48.58631293448962 0 0,0 0.19612027110039112,0.8130451383046319 l -26.871839986015168 6.23769805982828" fill="#b6ff1f" stroke="none" /><path d="M 120.53481517161879 95.60439243477599 l 10.889855242298509 -2.3310426554702843 a32.13654825607281,32.13654825607281 0 0,0 0.11113232196274693,0.5419206697311731 l -10.928366860176252 2.1432463295756996" fill="#ff750a" stroke="none" /><path d="M 120.6074358757038 95.95851677861258 l 26.607688850429415 -5.218239119971799 a48.11455560164079,48.11455560164079 0 0,0 0.15239546834485532,0.814102685638544 l -26.69357004268413 4.7594583568706925" fill="#bbff1f" stroke="none" /><path d="M 120.73433829027371 96.67025291283417 l 6.430155662788816 -1.032624807623474 a27.512542962700092,27.512542962700092 0 0,0 0.07106634820116875,0.46823844167714224 l -6.446977904429285 0.9217872535542498" fill="#ff3204" stroke="none" /><path d="M 120.83666639777658 97.38593545837742 l 14.116178550577363 -1.7709455585570553 a35.22683186950466,35.22683186950466 0 0,0 0.0703020994501364,0.6023054553201562 l -14.14457100303109 1.5276963649120463" fill="#ff9f0e" stroke="none" /><path d="M 120.94382443527127 98.46500227214037 l 14.344114016950734 -1.0512971254236791 a35.38258782616003,35.38258782616003 0 0,0 0.039290525563829254,0.6078070400741967 l -14.360085133518977 0.8042310210964472" fill="#ffa10e" stroke="none" /><path d="M 120.98425023603335 99.18683210126433 l 27.24136657166032 -1.0556395660840368 a48.26181262471471,48.26181262471471 0 0,0 0.025023302951538106,0.8304016019376421 l -27.2555015690675 0.5865678167213956" fill="#b9ff1f" stroke="none" /><line stroke="#e1ed5e" stroke-width="0.3" x1="184.98032266829074" x2="189.97916517819016" y1="98.17113171792111" y2="98.06355123074" /><path d="M 185.9800911702706 98.14961562048488 a86.0,86.0 0 0,1 -9.607161424134198,41.387399972396054" fill="none" id="id40" stroke="none" /><text fill="#e1ed5e" style="font-size:6.75px; font-family:Arial;" text-anchor="middle"><textPath startOffset="21.466115282336823" xlink:href="#id40">April</textPath></text><path d="M 120.99980553446 99.90962569577887 l 14.843235714244868 -0.06387902487305598 a35.84337316779623,35.84337316779623 0 0,0 -0.002655315847166455,0.6170018890174622 l -14.8421361011082 -0.1916323423480909" fill="#ffa80f" stroke="none" /><path d="M 120.9904718944345 100.63252640178507 l 42.71347466557 1.2871268723174467 a63.732863390975005,63.732863390975005 0 0,0 -0.042482102607584935,1.0962743033222977 l -42.684990430111206 -2.0221784226537505" fill="#33ff52" stroke="none" /><path d="M 120.9764740272857 100.99374915477107 l 39.85453928507665 1.8880873247247032 a60.899237779329866,60.899237779329866 0 0,0 -0.05861884874706158,1.0466789222940225 l -39.81613408544205 -2.573837963354149" fill="#30ff2f" stroke="none" /><path d="M 120.76222939487914 103.15116336523771 l 13.471565437666456 2.0446312711508345 a34.62584281342983,34.62584281342983 0 0,0 -0.09450916970607555,0.5885086899757799 l -13.434374513599092 -2.2762191908198193" fill="#ff970d" stroke="none" /><path d="M 120.5718875245553 104.21870165774334 l 26.728166326522064 5.481177138244916 a48.28439440411032,48.28439440411032 0 0,0 -0.1739754817711966,0.8127555314148694 l -26.629856806026424 -5.940446489075954" fill="#b9ff1f" stroke="none" /><path d="M 120.41448212921028 104.9243191809786 l 26.60147432877791 6.4167265890167515 a48.36444438651779,48.36444438651779 0 0,0 -0.2021833813115247,0.8076221052078418 l -26.487079633171327 -6.87367653362199" fill="#b8ff1f" stroke="none" /><path d="M 120.23288151984713 105.62410040840565 l 26.20336216726398 7.283704979043648 a48.19684810948773,48.19684810948773 0 0,0 -0.22906668191472168,0.7974111704706015 l -26.07410284846316 -7.733673625018831" fill="#baff1f" stroke="none" /><path d="M 120.02730092923936 106.31721596034902 l 15.663780848616945 4.940829856499812 a37.42454961770273,37.42454961770273 0 0,0 -0.19907677116782604,0.6126953012572277 l -15.57641182643287 -5.209724057734836" fill="#ffbd11" stroke="none" /><path d="M 119.67450827220406 107.3425965602758 l 12.784090984124052 4.7710682873278385 a34.645368257863446,34.645368257863446 0 0,0 -0.21332591911101365,0.5569266591543695 l -12.700070785419532 -4.990418513315352" fill="#ff970e" stroke="none" /><path d="M 119.54520255179757 107.68017299344265 l 20.397584438516358 8.015111468965136 a42.91582676483689,42.91582676483689 0 0,0 -0.2760864763291472,0.6852239925618149 l -20.256595347929817 -8.365034829369765" fill="#faff18" stroke="none" /><path d="M 118.97047184881838 109.00673069616215 l 25.323028609403607 12.0227741784037 a49.032175743198465,49.032175743198465 0 0,0 -0.36855091724566086,0.759324050701889 l -25.112324435543233 -12.456887185070865" fill="#b0ff20" stroke="none" /><line stroke="#e1ed5e" stroke-width="0.3" x1="174.80103733775053" x2="179.2010983576182" y1="140.37084112569926" y2="142.7455964860345" /><path d="M 175.68104954172406 140.8457921977663 a86.0,86.0 0 0,1 -30.038265399797805,32.042727171017184" fill="none" id="id41" stroke="none" /><text fill="#e1ed5e" style="font-size:6.75px; font-family:Arial;" text-anchor="middle"><textPath startOffset="22.206326154141568" xlink:href="#id41">May</textPath></text><path d="M 118.30583269289576 110.29060199501025 l 17.00707924818879 9.560509296505757 a40.51010206438569,40.51010206438569 0 0,0 -0.34693623771157783,0.6049125737926406 l -16.839991014324834 -9.851841716156711" fill="#ffe515" stroke="none" /><path d="M 118.12598468904814 110.60418214915192 l 20.220279618297024 11.82940027025179 a44.42636161669053,44.42636161669053 0 0,0 -0.39183865688368147,0.6567441274544839 l -20.013660085715117 -12.17570649159238" fill="#e8ff1a" stroke="none" /><path d="M 117.94076556474637 110.91462005526583 l 23.32684459141196 14.191347904561592 a48.30450574429411,48.30450574429411 0 0,0 -0.4382722098880969,0.7066343512492557 l -23.0791077418559 -14.590778587176121" fill="#b9ff1f" stroke="none" /><path d="M 117.35343817320211 111.8261652097733 l 10.861047646436095 7.401676978128865 a34.14333207625516,34.14333207625516 0 0,0 -0.33515597622196075,0.4828171808616277 l -10.732030763051997 -7.587535421177512" fill="#ff900d" stroke="none" /><path d="M 117.14729908036423 112.12312394758627 l 14.063818272989973 9.943105984255364 a38.223714495712635,38.223714495712635 0 0,0 -0.3844581386647668,0.5339787289463118 l -13.890580341949605 -10.183718318652808" fill="#ffc712" stroke="none" /><path d="M 116.93607887273984 112.41649034213515 l 26.676651712434747 19.557678659674544 a54.077885983563654,54.077885983563654 0 0,0 -0.5568444554710972,0.745984146323911 l -26.33604599026856 -20.01397568550777" fill="#77ff27" stroke="none" /><path d="M 116.498646956653 112.99209946851258 l 17.10559297087579 13.470047933590791 a42.77254009569184,42.77254009569184 0 0,0 -0.46048119864530895,0.5745210975310928 l -16.871193860175627 -13.762496864700134" fill="#fcff18" stroke="none" /><path d="M 115.80600337817218 113.82643327865902 l 12.748122529755092 11.15152650348299 a37.93727166315558,37.93727166315558 0 0,0 -0.4341851196536338,0.48781158469570873 l -12.55427856045312 -11.369312257919564" fill="#ffc412" stroke="none" /><path d="M 115.56566222782051 114.09645910891815 l 24.22653051357211 21.9398501481774 a53.684580542658345,53.684580542658345 0 0,0 -0.6262014685317683,0.6796180177991618 l -23.845282637044622 -22.353619420777896" fill="#7cff26" stroke="none" /><path d="M 115.32070863581623 114.36230785411682 l 19.94763510354946 18.699792752993723 a48.34209932008285,48.34209932008285 0 0,0 -0.5743350987118137,0.6021880548378712 l -19.62279345345868 -19.0403879244141" fill="#b8ff1f" stroke="none" /><path d="M 114.55890576462653 115.13401014063108 l 18.99842644197839 19.748900300427913 a48.403636078949546,48.403636078949546 0 0,0 -0.6054238420537277,0.5724660313126917 l -18.65566676553385 -20.073000968486525" fill="#b8ff1f" stroke="none" /><path d="M 114.29624159901734 115.38237550388516 l 11.10228397015536 11.945762093964143 a37.308339626079636,37.308339626079636 0 0,0 -0.4741720311830432,0.43314490797536354 l -10.895012389505453 -12.135099768526091" fill="#ffbb11" stroke="none" /><path d="M 113.48314897796784 116.09983520530334 l 19.2932261910575 23.037479060880617 a51.049193305974455,51.049193305974455 0 0,0 -0.6785407031139935,0.5583928038469422 l -18.893815359398815 -23.366166983584737" fill="#99ff23" stroke="none" /><path d="M 113.20401910651253 116.32954008644616 l 17.188463376907322 21.257141441061844 a48.33695914882621,48.33695914882621 0 0,0 -0.6514959100906069,0.5175877529852698 l -16.820009974099364 -21.54986310805224" fill="#b9ff1f" stroke="none" /><path d="M 112.63410532772338 116.77436683061366 l 16.36997580964005 21.734501345071138 a48.209642715903115,48.209642715903115 0 0,0 -0.6671641306663157,0.493552074225211 l -15.99342670855517 -22.013063368036118" fill="#baff1f" stroke="none" /><path d="M 111.7513745106137 117.40417183066458 l 4.564288609813654 6.759861425418348 a29.156497839424322,29.156497839424322 0 0,0 -0.4183614521501009,0.2772671579323684 l -4.44725245892359 -6.837426604442034" fill="#ff4a06" stroke="none" /><path d="M 111.45004920935366 117.60387380957326 l 11.818703533388758 18.170661260090565 a42.67613166224758,42.67613166224758 0 0,0 -0.6192473302727627,0.395232944853455 l -11.504174401069065 -18.371408633767828" fill="#fdff18" stroke="none" /><line stroke="#e1ed5e" stroke-width="0.3" x1="143.8653032363475" x2="146.44561519142675" y1="172.8068346515853" y2="177.08958963109032" /><path d="M 144.38136562736335 173.6633856474863 a86.0,86.0 0 0,1 -40.68145358897372,12.25698825130547" fill="none" id="id42" stroke="none" /><text fill="#e1ed5e" style="font-size:6.75px; font-family:Arial;" text-anchor="middle"><textPath startOffset="21.466115282336833" xlink:href="#id42">June</textPath></text><path d="M 109.89434966115114 118.52300852407294 l 12.971532162057715 24.283738601989857 a48.53108437968018,48.53108437968018 0 0,0 -0.7402356112888497,0.3872562861307613 l -12.55160564824237 -24.503424307065334" fill="#b6ff1f" stroke="none" /><path d="M 108.2653958097858 119.30500536409082 l 5.473909946354345 12.785093818714445 a34.90763509925851,34.90763509925851 0 0,0 -0.5544139327167091,0.23174506883988572 l -5.253024554140175 -12.877423930574304" fill="#ff9b0e" stroke="none" /><path d="M 107.2578585660854 119.70592522655815 l 4.710240340907549 12.788847166403945 a34.62868210483872,34.62868210483872 0 0,0 -0.5611172934022742,0.20119669781699528 l -4.48940348687554 -12.8680314052609" fill="#ff970d" stroke="none" /><path d="M 106.91757812671514 119.82793768551818 l 7.141540026007296 20.46988238086547 a42.679891112031235,42.679891112031235 0 0,0 -0.6957437391710346,0.23603405110784065 l -6.788126553899034 -20.589779418871434" fill="#fdff18" stroke="none" /><path d="M 106.57524785965236 119.94407469862006 l 4.215503320353241 12.786485758097484 a34.46345744175466,34.46345744175466 0 0,0 -0.5650015605506151,0.18089565752709372 l -3.9947804147116854 -12.857154262284284" fill="#ff950d" stroke="none" /><path d="M 104.83641907484287 120.43548508189849 l 6.300434251107495 26.621437918336863 a48.356835134795695,48.356835134795695 0 0,0 -0.811657620197466,0.18473063182660504 l -5.841256481517167 -26.72594528374115" fill="#b8ff1f" stroke="none" /><path d="M 104.48393922423573 120.51570834832081 l 3.612678294705445 16.529361916835263 a37.91955229427658,37.91955229427658 0 0,0 -0.6388695895471558,0.13388133410227487 l -3.3276172437289113 -16.58909923166408" fill="#ffc312" stroke="none" /><path d="M 102.34483914955558 120.86867818915974 l 1.8471664426245187 16.439473923084222 a37.542923766206634,37.542923766206634 0 0,0 -0.6428196006880347,0.06663087994208755 l -1.5639142453308812 -16.46883417148207" fill="#ffbe11" stroke="none" /><path d="M 101.98527174616119 120.90594882070398 l 1.2839753740033593 13.520931584234127 a34.58175922576258,34.58175922576258 0 0,0 -0.5930865279834409,0.05117400121237153 l -1.0510445282783767 -13.54102983772516" fill="#ff970d" stroke="none" /><line stroke="#e1ed5e" stroke-width="0.3" x1="102.19456741930631" x2="102.32365962044197" y1="184.97166512339345" y2="189.96999836594603" /><path d="M 102.22038585953345 185.97133177190398 a86.0,86.0 0 0,1 -42.740103519485714,-10.115201625700543" fill="none" id="id43" stroke="none" /><text fill="#e1ed5e" style="font-size:6.75px; font-family:Arial;" text-anchor="middle"><textPath startOffset="22.20632615414155" xlink:href="#id43">July</textPath></text><path d="M 99.45781275523022 120.99299961872073 l -0.27942972470715294 10.819266149883903 a31.8228739710427,31.8228739710427 0 0,0 -0.5474741293790696,-0.018856115975366555 l 0.4656242057608656 -10.812853235482443" fill="#ff700a" stroke="none" /><path d="M 99.09653310690486 120.98055641714683 l -0.7198463950461592 16.716470762095042 a37.73196263360755,37.73196263360755 0 0,0 -0.6486518434718439,-0.033527891142118786 l 1.007486306931492 -16.70160306419072" fill="#ffc111" stroke="none" /><path d="M 97.2962882734958 120.8252237178851 l -2.1570915225031566 16.614905019539226 a37.754346082278616,37.754346082278616 0 0,0 -0.6437500900238786,-0.089217896613126 l 2.4427702037138666 -16.575312557433495" fill="#ffc112" stroke="none" /><path d="M 92.40401165467489 119.57807347666478 l -2.4014088157789506 6.189445810796405 a27.638976106696425,27.638976106696425 0 0,0 -0.44206426447723757,-0.1759064940021574 l 2.507594156298046 -6.147192472388181" fill="#ff3405" stroke="none" /><path d="M 92.06813273071674 119.44442032107085 l -3.6641182814763957 8.982330837412619 a30.700929339675824,30.700929339675824 0 0,0 -0.48760172165398175,-0.20381755919703562 l 3.81819146262784 -8.91792823519561" fill="#ff6008" stroke="none" /><line stroke="#e1ed5e" stroke-width="0.3" x1="58.666819895761336" x2="56.23545636021788" y1="174.27360380694188" y2="178.64263932499728" /><path d="M 58.180547188652646 175.14741091055294 a86.0,86.0 0 0,1 -31.652253787137756,-30.449443065178592" fill="none" id="id44" stroke="none" /><text fill="#e1ed5e" style="font-size:6.75px; font-family:Arial;" text-anchor="middle"><textPath startOffset="22.20632615414155" xlink:href="#id44">August</textPath></text><path d="M 88.8546689885994 117.79835938074946 l -7.423317126486317 11.854548409493349 a34.986992355521124,34.986992355521124 0 0,0 -0.5076749172558315,-0.32402215200003437 l 7.626273845789072 -11.72501182866951" fill="#ff9c0e" stroke="none" /><path d="M 87.95078237400918 117.19931262002967 l -9.224282977116523 13.166940090518873 a37.076557709573116,37.076557709573116 0 0,0 -0.5195532243505254,-0.3706874305804203 l 9.449563529315936 -13.006208398094234" fill="#ffb811" stroke="none" /><path d="M 87.65650970185807 116.9893568818739 l -15.898516476087108 21.882430639999377 a48.048171783963454,48.048171783963454 0 0,0 -0.6649295649681164,-0.49189899594260944 l 16.27283101147379 -21.605521695317" fill="#bcff1f" stroke="none" /><path d="M 86.51685102203217 116.09983520530335 l -17.363840247619272 20.73365554105285 a48.044175347750475,48.044175347750475 0 0,0 -0.6294576803596026,-0.5364374909952017 l 17.718163404555934 -20.4316936598347" fill="#bcff1f" stroke="none" /><path d="M 85.70375840098266 115.38237550388516 l -18.47604769679862 19.879735630613855 a48.13979047887945,48.13979047887945 0 0,0 -0.6021237094636078,-0.5693455499648418 l 18.815507240653044 -19.55875544390308" fill="#bbff1f" stroke="none" /><path d="M 84.9287848128048 114.62390073753433 l -9.844320592615372 9.552140646043298 a34.71692526960702,34.71692526960702 0 0,0 -0.41245930528729857,-0.4324619326031602 l 10.007286449281628 -9.381271596857639" fill="#ff980e" stroke="none" /><path d="M 84.67929136418377 114.36230785411682 l -13.97436896999987 13.100189683456033 a40.154580597137155,40.154580597137155 0 0,0 -0.46838136917589296,-0.5083354697965337 l 14.197796747171493 -12.857702958858155" fill="#ffe115" stroke="none" /><path d="M 83.72743513129214 113.27417163493432 l -21.018131643680203 17.145317233939505 a48.124228299501794,48.124228299501794 0 0,0 -0.5180964768904721,-0.6464050158959476 l 21.310146032625536 -16.7809843844653" fill="#bbff1f" stroke="none" /><path d="M 82.85270091963577 112.12312394758628 l -24.25875562089003 17.150916877808864 a50.709277574918794,50.709277574918794 0 0,0 -0.4977697370360623,-0.7170744316217292 l 24.55038626508823 -16.730801184000125" fill="#9dff22" stroke="none" /><path d="M 82.44556493220864 111.52570212397912 l -22.483864390005806 14.762213796934947 a47.8969722105405,47.8969722105405 0 0,0 -0.4465711532280297,-0.6930883468545666 l 22.734640406610882 -14.373003850158932" fill="#beff1f" stroke="none" /><line stroke="#e1ed5e" stroke-width="0.3" x1="26.63291911575756" x2="22.317208475507996" y1="142.92168965132927" y2="145.44649492493687" /><path d="M 25.769776987707644 143.4266507060508 a86.0,86.0 0 0,1 -11.730757126820373,-40.83630448921669" fill="none" id="id45" stroke="none" /><text fill="#e1ed5e" style="font-size:6.75px; font-family:Arial;" text-anchor="middle"><textPath startOffset="21.46611528233685" xlink:href="#id45">September</textPath></text><path d="M 81.51974371655577 109.97397251340807 l -4.940171446653274 2.6662581657260382 a26.613753336995586,26.613753336995586 0 0,0 -0.2141108034765225,-0.4050169504145378 l 4.985334758354682 -2.5808262002253746" fill="#ff2503" stroke="none" /><path d="M 81.18737489456691 109.33194174019688 l -31.70312078057763 15.726230361191513 a56.38929483051555,56.38929483051555 0 0,0 -0.4238507881328259,-0.8732581640101588 l 31.969124825325174 -15.17818324121607" fill="#5eff29" stroke="none" /><path d="M 81.02952815118164 109.00673069616217 l -22.487125890170407 10.676354738961136 a45.89287812432524,45.89287812432524 0 0,0 -0.33266956937135933,-0.7165406567516547 l 22.667570076381594 -10.287694014930654" fill="#d6ff1c" stroke="none" /><path d="M 80.73074385275274 108.34839909993369 l -25.29647956051103 10.95969172762439 a48.5685821347401,48.5685821347401 0 0,0 -0.32575414945519093,-0.7699865830919272 l 25.481384691158528 -10.522630618866305" fill="#b6ff1f" stroke="none" /><path d="M 80.45479744820244 107.68017299344265 l -20.159276079264757 7.921469593421241 a42.6597805288861,42.6597805288861 0 0,0 -0.26267398350811483,-0.6857588833629369 l 20.29264434236638 -7.573287143225147" fill="#feff18" stroke="none" /><path d="M 80.32549172779594 107.34259656027581 l -34.197158569359445 12.762501375311672 a57.50105608845786,57.50105608845786 0 0,0 -0.33809454254773214,-0.9302909752632561 l 34.411777372912404 -12.1719626030423" fill="#53ff2b" stroke="none" /><path d="M 79.86692584326677 105.97154293290107 l -18.57332766434778 5.508916457122335 a40.373091159099516,40.373091159099516 0 0,0 -0.19188246520698415,-0.6679680340000292 l 18.66540276644087 -5.18839094761771" fill="#ffe315" stroke="none" /><path d="M 79.76711848015287 105.62410040840567 l -20.858279284971164 5.797941184510643 a42.64910937449626,42.64910937449626 0 0,0 -0.1905235710824541,-0.7090090845059412 l 20.954990932395393 -5.438041166829162" fill="#feff18" stroke="none" /><path d="M 79.50377843672027 104.57218783832718 l -29.788721611911253 6.6451092096557325 a51.52090122653982,51.52090122653982 0 0,0 -0.18563707224234643,-0.8672345997526973 l 29.89869272287804 -6.131360790486871" fill="#94ff23" stroke="none" /><path d="M 79.4281124754447 104.21870165774334 l -19.70354499078804 4.040629612466973 a41.113586772854646,41.113586772854646 0 0,0 -0.13620357082848814,-0.6944990732700327 l 19.770178494592194 -3.7008668121289854" fill="#ffed16" stroke="none" /><path d="M 79.35854240842038 103.8639653848113 l -27.17528377308713 5.087061093227629 a48.647318834093895,48.647318834093895 0 0,0 -0.14699264050871658,-0.8244127904836666 l 27.258822855935037 -4.618529552010748" fill="#b5ff20" stroke="none" /><path d="M 79.18660465613746 102.79330883721812 l -21.531566768808673 2.8896926590211867 a42.724610265394105,42.724610265394105 0 0,0 -0.09154966571235021,-0.7297409122469901 l 21.57811794376787 -2.5186339924867878" fill="#fdff18" stroke="none" /><path d="M 79.1416061653843 102.43462659150553 l -16.253903540626858 1.8971827883556287 a37.364250145986986,37.364250145986986 0 0,0 -0.0690663903241048,-0.63946899678499 l 16.284152232452012 -1.6171174696858568" fill="#ffbc11" stroke="none" /><path d="M 79.07016306316243 101.71520430193888 l -29.81689757763949 2.443500689946877 a50.91685272178901,50.91685272178901 0 0,0 -0.06406659385194616,-0.8741377719639509 l 29.854540730155772 -1.9298897814861657" fill="#9bff22" stroke="none" /><line stroke="#e1ed5e" stroke-width="0.3" x1="15.007084014347285" x2="10.007500721073583" y1="101.09737516637583" y2="101.16192664675087" /><path d="M 14.007167355692545 101.11028546245083 a86.0,86.0 0 0,1 10.666146001902534,-42.60595125391555" fill="none" id="id46" stroke="none" /><text fill="#e1ed5e" style="font-size:6.75px; font-family:Arial;" text-anchor="middle"><textPath startOffset="22.20632615414155" xlink:href="#id46">October</textPath></text><path d="M 79.00175016825051 100.2711162175752 l -32.44358984692784 0.4188912616212801 a53.44629396471563,53.44629396471563 0 0,0 -0.003959359256520326,-0.9200156520659433 l 32.445993503473865 0.13963386864833846" fill="#7eff26" stroke="none" /><path d="M 79.00019446554 99.90962569577889 l -19.513502646804035 -0.08397788359173258 a40.51368334865975,40.51368334865975 0 0,0 0.009003670086824811,-0.6973441706171286 l 19.509165969599497 0.4198583122693331" fill="#ffe515" stroke="none" /><path d="M 79.03285615573316 98.82574320788736 l -27.52261525641351 -1.5413934363970943 a48.56574403636393,48.56574403636393 0 0,0 0.05392973563614058,-0.8342691404250779 l 27.492004929772953 2.014921641075184" fill="#b6ff1f" stroke="none" /><path d="M 79.05617556472873 98.46500227214037 l -30.31008377891936 -2.221461981581671 a51.391381541824046,51.391381541824046 0 0,0 0.07225509844054881,-0.8816952164278223 l 30.267354196659316 2.7428711152172722" fill="#95ff23" stroke="none" /><path d="M 79.08570108090925 98.10471618934814 l -38.38588502247793 -3.4785840406171635 a59.543179888101236,59.543179888101236 0 0,0 0.10128826341062332,-1.0199589897818027 l 38.320319633385076 4.138818561103396" fill="#3dff2e" stroke="none" /><path d="M 79.21141760316559 97.0276538004421 l -62.36574719050324 -8.91703859867371 a84.0,84.0 0 0,0 0.21697642624279112,-1.4296035504316318 l 62.20301487082115 9.989241261497433" fill="#4dd2ff" stroke="none" /><path d="M 79.26566170972629 96.67025291283419 l -27.357359897137293 -4.393344420003536 a48.70788002959216,48.70788002959216 0 0,0 0.1400656287753988,-0.8266752696930627 l 27.27768240684167 4.863605478012426" fill="#b4ff20" stroke="none" /><path d="M 79.46518482838121 95.60439243477599 l -29.46899181834132 -6.308024800498562 a51.136566753251316,51.136566753251316 0 0,0 0.19165403966313663,-0.8591474802291823 l 29.356043391676145 6.814350450277703" fill="#98ff23" stroke="none" /><path d="M 79.62865764111835 94.90015583598534 l -47.698394540823514 -11.941008832234921 a70.17036235074514,70.17036235074514 0 0,0 0.3034155378779686,-1.1691838384312931 l 47.485782671075235 12.760289096215079" fill="#3bff9d" stroke="none" /><path d="M 79.71946130924805 94.55025226153421 l -20.912599248649645 -5.619593848004639 a42.65448319288995,42.65448319288995 0 0,0 0.19664372703459826,-0.7074321121233458 l 20.812768751048687 5.978737263546927" fill="#feff18" stroke="none" /><path d="M 80.02781315780177 93.51064311812611 l -54.520757014589506 -17.714867807568506 a78.32651643771439,78.32651643771439 0 0,0 0.4276728735322898,-1.278687456630731 l 54.20774684728545 18.65072836712156" fill="#46fff5" stroke="none" /><path d="M 80.38941819471856 92.48833698450439 l -55.80241111822598 -21.37462885774102 a80.7560360584074,80.7560360584074 0 0,0 0.508403278709914,-1.2938308901202278 l 55.42621428963438 22.33200875275701" fill="#49f1ff" stroke="none" /><path d="M 80.52162464483688 92.15188598940014 l -28.285561462931494 -11.396654349618208 a51.495191713415196,51.495191713415196 0 0,0 0.33834379457565594,-0.819326335753997 l 28.08519598146964 11.881855255825515" fill="#94ff23" stroke="none" /><path d="M 80.803312248108 91.48605970444005 l -27.38010381388048 -12.143374532652706 a50.952155680337114,50.952155680337114 0 0,0 0.36248257163642694,-0.7986822977152113 l 27.1670189252807 12.612878839209987" fill="#9aff22" stroke="none" /><path d="M 81.43458229118936 90.18545643968196 l -28.811677305697955 -15.231193092326862 a53.589906292952364,53.589906292952364 0 0,0 0.4381406130543319,-0.8118080139628066 l 28.54522859342515 15.72488208962214" fill="#7dff26" stroke="none" /><path d="M 81.6062741919709 89.86733742301443 l -26.18852326298984 -14.426629622671673 a50.89927077649065,50.89927077649065 0 0,0 0.42935318484965757,-0.7637714073317489 l 25.936312436847754 14.875284539938207" fill="#9bff22" stroke="none" /><line stroke="#e1ed5e" stroke-width="0.3" x1="26.266209847984243" x2="21.928928074336255" y1="57.711370442889674" y2="55.22380399835377" /><path d="M 25.398753493254645 57.213857153982495 a86.0,86.0 0 0,1 29.58750427330803,-30.492523968695096" fill="none" id="id47" stroke="none" /><text fill="#e1ed5e" style="font-size:6.75px; font-family:Arial;" text-anchor="middle"><textPath startOffset="21.46611528233685" xlink:href="#id47">November</textPath></text><path d="M 82.54541684631803 88.32363383020206 l -22.949116769208377 -15.351973078440535 a48.61059647830746,48.61059647830746 0 0,0 0.4712346739158423,-0.6914787366668652 l 22.681457629623793 15.744729838377816" fill="#b5ff1f" stroke="none" /><path d="M 82.95767976084542 87.72973835380427 l -22.375202655414757 -16.109871608785834 a48.571319466475366,48.571319466475366 0 0,0 0.4943574728347689,-0.6743030373765284 l 22.094582570066354 16.492637089833863" fill="#b6ff1f" stroke="none" /><path d="M 84.5562425177563 85.77008943001954 l -16.066898433413737 -14.804073950740433 a42.847330061328414,42.847330061328414 0 0,0 0.5044409598799053,-0.5381024448710854 l 15.809690151563375 15.07844581248957" fill="#fbff18" stroke="none" /><path d="M 85.31137513191541 84.99185889309783 l -11.443475774943945 -11.692401482520212 a37.3604825796848,37.3604825796848 0 0,0 0.4634777018444709,-0.4458651819614743 l 11.240514829487047 11.887649751244" fill="#ffbc11" stroke="none" /><path d="M 86.10567301691215 84.25364557470407 l -17.80506524709506 -20.178369797078908 a47.91072195465924,47.91072195465924 0 0,0 0.6230816798632197,-0.5403302928285512 l 17.45508976858507 20.48186508332714" fill="#beff1f" stroke="none" /><path d="M 86.37877921826538 84.01681056812374 l -19.5059142441478 -22.888309895410508 a51.07250272871207,51.07250272871207 0 0,0 0.674017104757039,-0.5644699415397824 l 19.10903960243165 23.220680994344104" fill="#99ff23" stroke="none" /><path d="M 87.51073957382395 83.11751280151077 l -17.778310357065738 -24.032015249267108 a50.89324465649652,50.89324465649652 0 0,0 0.7087603697973942,-0.5149445508226148 l 17.362004670914562 24.33447903490639" fill="#9bff22" stroke="none" /><path d="M 88.39885842347998 82.49532879139004 l -14.80487458725971 -22.338703499593393 a47.79929076649668,47.79929076649668 0 0,0 0.6897505355415786,-0.4486329349756048 l 14.418157025933844 22.59023535872853" fill="#bfff1e" stroke="none" /><line stroke="#e1ed5e" stroke-width="0.3" x1="56.762969772571076" x2="54.21961505331055" y1="26.818313649435495" y2="22.513508569990535" /><path d="M 56.25429882871897 25.957352633546506 a86.0,86.0 0 0,1 42.265352541879196,-11.944610805530505" fill="none" id="id48" stroke="none" /><text fill="#e1ed5e" style="font-size:6.75px; font-family:Arial;" text-anchor="middle"><textPath startOffset="22.20632615414155" xlink:href="#id48">December</textPath></text><path d="M 89.63071344664047 81.73862282372117 l -13.460021795802147 -23.704478948403747 a48.2593930409095,48.2593930409095 0 0,0 0.7259037970298796,-0.4039646771277653 l 13.049993909700222 23.9326590230917" fill="#b9ff1f" stroke="none" /><path d="M 91.56875222667455 80.76684994638697 l -11.528399147521032 -26.298293757148457 a49.71418188703689,49.71418188703689 0 0,0 0.7867061956775819,-0.33682653646816735 l 11.074009194053142 26.49283982157941" fill="#a8ff21" stroke="none" /><path d="M 92.57280143429618 80.3572730644239 l -11.862058358726216 -31.371609520479733 a54.53932486516807,54.53932486516807 0 0,0 0.8809858540331706,-0.3244745249858803 l 11.320290178920475 31.571147313271936" fill="#72ff27" stroke="none" /><path d="M 92.91201910852362 80.23233633223022 l -9.428170855985332 -26.29421739941611 a48.933425753698884,48.933425753698884 0 0,0 0.795326610122406,-0.2774738376243562 l 8.974162241799641 26.452612090212675" fill="#b2ff20" stroke="none" /><path d="M 93.94186890950719 79.89281104454417 l -6.597500512495408 -21.89737849130475 a43.869678568004254,43.869678568004254 0 0,0 0.7249146480203165,-0.21162246422563688 l 6.21959564675167 22.007699284449085" fill="#eeff19" stroke="none" /><path d="M 94.28887869178378 79.79150937346287 l -7.474424582828482 -26.447842896200875 a48.48373003626898,48.48373003626898 0 0,0 0.8050656667597237,-0.22005485825718152 l 7.018061026845036 26.57258429528435" fill="#b7ff1f" stroke="none" /><path d="M 97.83486435360386 79.11191278185805 l -2.8936343876555815 -27.916258996229963 a49.06582684180199,49.06582684180199 0 0,0 0.8408361047098077,-0.0798475197729058 l 2.4126731558555377 27.961932060518052" fill="#b0ff20" stroke="none" /></svg>