<?xml version="1.0" encoding="utf-8" ?>
<svg baseProfile="full" height="200mm" version="1.1" viewBox="0,0,200,200" width="200mm" xmlns="http://www.w3.org/2000/svg" xmlns:ev="http://www.w3.org/2001/xml-events" xmlns:xlink="http://www.w3.org/1999/xlink"><defs /><rect fill="#1a1a1a" height="200" width="200" x="0" y="0" /><text alignment-baseline="middle" fill="#e1ed5e" style="dominant-baseline: central; font-size:9.0px; font-family:Arial;" text-anchor="middle" x="100.0" y="100.0">2020</text><line stroke="#e1ed5e" stroke-width="0.3" x1="100.0" x2="100.0" y1="15.0" y2="10.0" /><path d="M 100.0 14.0 a86.0,86.0 0 0,1 42.35913384403234,11.155469271406648" fill="none" id="id25" stroke="none" /><text fill="#e1ed5e" style="font-size:6.75px; font-family:Arial;" text-anchor="middle"><textPath startOffset="22.145653131862478" xlink:href="#id25">January</textPath></text><path d="M 100.0 79.0 l 0.0 -5.376998963661492 a26.376998963661492,26.376998963661492 0 0,0 0.45279626214978774,0.0038867113317983637 l -0.09230333730093297 5.376206650524129" fill="#ff3c05" stroke="none" /><path d="M 100.72087961077811 79.0123766808444 l 0.36501537800559286 -10.627024463920613 a31.633291361706767,31.633291361706767 0 0,0 0.5425474598045177,0.02329932236204539 l -0.5473885984109468 10.619192573132736" fill="#ff840c" stroke="none" /><path d="M 101.08105385017728 79.02784411241856 l 0.5532463306667413 -10.732831013989397 a31.74708067696753,31.74708067696753 0 0,0 0.5440174421387207,0.0327267384045854 l -0.7374081249379245 10.721752297760121" fill="#ff860c" stroke="none" /><path d="M 101.80034050326958 79.07731436759882 l 0.911394956027218 -10.591790895823797 a31.630930116726745,31.630930116726745 0 0,0 0.5405883156872082,0.05119427554313128 l -1.093082835099439 10.574584864775481" fill="#ff840c" stroke="none" /><path d="M 102.15924093988457 79.11130261209362 l 0.6582514091329337 -6.367985265820249 a27.40191621808106,27.40191621808106 0 0,0 0.4674820384895866,0.052382337486979305 l -0.7674693492233169 6.3557471678263" fill="#ff4a06" stroke="none" /><path d="M 103.23170211078529 79.25015418208739 l 1.9924441181515 -12.792920521503216 a33.94714829734543,33.94714829734543 0 0,0 0.575036397931401,0.09462202045259935 l -2.2117580191359716 12.756832502554948" fill="#ffa30f" stroke="none" /><path d="M 103.94208987418118 79.37332000966035 l 0.47332622446324946 -2.4766428150162514 a23.52146730058834,23.52146730058834 0 0,0 0.39594863601079305,0.07920081639044911 l -0.5157713460049994 2.4681526019629434" fill="#ff1302" stroke="none" /><path d="M 104.29559338865022 79.4440306129975 l 1.3226547977730494 -6.329382013770651 a27.466103338975916,27.466103338975916 0 0,0 0.46069494595285754,0.1004063192419895 l -1.431112160345041 6.3057442363949425" fill="#ff4b07" stroke="none" /><path d="M 104.9986988182912 79.60360301121754 l 2.5286866202100664 -10.317904326882081 a31.623248360173143,31.623248360173143 0 0,0 0.5261426470506296,0.1337434034154538 l -2.7054345604860903 10.272975691631359" fill="#ff840c" stroke="none" /><path d="M 105.3480935250658 79.69241777938227 l 1.7074221856667529 -6.483360146606222 a27.704420132323815,27.704420132323815 0 0,0 0.45886250468293155,0.1250650161222562 l -1.8184660912843773 6.453094636339824" fill="#ff4e07" stroke="none" /><path d="M 106.04205211174951 79.88797359093562 l 6.110283946762205 -20.339147996620007 a42.2371493176102,42.2371493176102 0 0,0 0.6926075242056527,0.21457158145346766 l -6.458532103839488 20.231259827359892" fill="#f3ff19" stroke="none" /><path d="M 106.72888874123014 80.10723608172694 l 3.422733251789337 -10.118702679072825 a31.681912133152004,31.681912133152004 0 0,0 0.5136908672340552,0.1786883491559388 l -3.5959298910684105 10.058455897348296" fill="#ff850c" stroke="none" /><line stroke="#e1ed5e" stroke-width="0.3" x1="143.13028292997686" x2="145.6673583964461" y1="26.7553504044142" y2="22.446841604673864" /><path d="M 143.63769802327073 25.89364864446614 a86.0,86.0 0 0,1 29.32050498858742,28.57503671076993" fill="none" id="id26" stroke="none" /><text fill="#e1ed5e" style="font-size:6.75px; font-family:Arial;" text-anchor="middle"><textPath startOffset="20.669276256404974" xlink:href="#id26">February</textPath></text><path d="M 110.65571695917076 81.90426304109057 l 2.176656528531148 -3.6964386480154645 a25.289696064028274,25.289696064028274 0 0,0 0.37220079285759633,0.22349588191359385 l -2.239790077946179 3.6585287655659493" fill="#ff2c04" stroke="none" /><path d="M 110.96478420261332 82.08984904055464 l 2.34500326320476 -3.830386596608001 a25.491202710178555,25.491202710178555 0 0,0 0.371244009003119,0.23168371870613663 l -2.4104114009975914 3.7895670810603193" fill="#ff2f04" stroke="none" /><path d="M 111.5731344415666 82.4767994020092 l 5.487834643076069 -8.309281101396056 a30.957935603917285,30.957935603917285 0 0,0 0.44093492628503195,0.296680696705099 l -5.629665857458102 8.213850730633839" fill="#ff7b0b" stroke="none" /><path d="M 113.31354834802062 83.75963576809568 l 8.52838887525321 -10.403247731174911 a34.45217380811513,34.45217380811513 0 0,0 0.4541545692381748,0.3788718942254654 l -8.705717778653277 10.255313653037575" fill="#ffa90f" stroke="none" /><path d="M 117.81537515405839 88.88188828441811 l 5.424551462841269 -3.385321310904502 a27.394228565751895,27.394228565751895 0 0,0 0.2455462573859735,0.40108135792234195 l -5.481865684682646 3.2917028368576053" fill="#ff4a06" stroke="none" /><line stroke="#e1ed5e" stroke-width="0.3" x1="172.87174338648825" x2="177.1583165268699" y1="56.24261187166439" y2="53.66864786411523" /><path d="M 173.72905801456457 55.72781907015455 a86.0,86.0 0 0,1 12.242430191666344,42.057860355516425" fill="none" id="id27" stroke="none" /><text fill="#e1ed5e" style="font-size:6.75px; font-family:Arial;" text-anchor="middle"><textPath startOffset="22.145653131862474" xlink:href="#id27">March</textPath></text><path d="M 118.00360718960297 89.18935116829356 l 9.084687011795898 -5.455093526324368 a31.59667794562235,31.59667794562235 0 0,0 0.27523157470558524,0.4674033852196349 l -9.176992296631251 5.298338972811176" fill="#ff840c" stroke="none" /><path d="M 118.36410011445183 89.81374322990088 l 9.248050248096042 -5.129737578360893 a31.575473559806063,31.575473559806063 0 0,0 0.25885069578183084,0.47625612527709676 l -9.334746293493215 4.9702266196091935" fill="#ff830c" stroke="none" /><path d="M 118.53625476483649 90.13048839642627 l 9.364299027945464 -4.985961786140629 a31.608954294257046,31.608954294257046 0 0,0 0.2509027442377345,0.48113909484273665 l -9.448509841158144 4.824476448193394" fill="#ff840c" stroke="none" /><path d="M 119.0197475246899 91.09779779509293 l 9.618691262895519 -4.502033187228914 a31.620147100196547,31.620147100196547 0 0,0 0.22588158517133233,0.49359202873508723 l -9.694557312921903 4.336252176279142" fill="#ff840c" stroke="none" /><path d="M 119.16976305983485 91.42560881287824 l 9.66823436893195 -4.324478258246767 a31.59131096789467,31.59131096789467 0 0,0 0.2171769012585553,0.49694325134294454 l -9.741045152207475 4.157872937127973" fill="#ff840c" stroke="none" /><path d="M 119.4528033332814 92.08871423366111 l 5.907993543424289 -2.402729541183837 a27.37789126257422,27.37789126257422 0 0,0 0.17331681624190387,0.43687159585363045 l -5.948369034632318 2.3009569281166415" fill="#ff4a06" stroke="none" /><path d="M 119.58574465831526 92.42381321644754 l 9.877161336338846 -3.8206981904880246 a31.590375381773086,31.590375381773086 0 0,0 0.1913012588259625,0.5074493169926503 l -9.941293278979249 3.6505805933012163" fill="#ff830c" stroke="none" /><path d="M 119.94978838288452 93.4421083053983 l 10.049179974752105 -3.303365059777933 a31.578196390837164,31.578196390837164 0 0,0 0.16486116840719162,0.516425261942303 l -10.104405858936554 3.130370764144243" fill="#ff830c" stroke="none" /><path d="M 120.05942366710727 93.78553927170692 l 10.157713240670484 -3.146885527270606 a31.63400332901197,31.63400332901197 0 0,0 0.15624739230012502,0.520096752256843 l -10.210236952974237 2.9720511714230393" fill="#ff840c" stroke="none" /><path d="M 120.16314734710363 94.1308016681162 l 5.0985958254702775 -1.4841269370626518 a26.310208296933173,26.310208296933173 0 0,0 0.12250723052885563,0.434734942833191 l -5.123321548073715 1.3963840703264476" fill="#ff3b05" stroke="none" /><path d="M 120.43855184770803 95.1765574152323 l 10.34265348527119 -2.4408380609386233 a31.626766749868885,31.626766749868885 0 0,0 0.12016535574708007,0.5294707294177482 l -10.383029702575937 2.262932997581849" fill="#ff840c" stroke="none" /><path d="M 120.65975698304385 96.23510406497455 l 11.457609340112372 -2.0879580948170133 a32.64630331033595,32.64630331033595 0 0,0 0.09573945464623403,0.552199732629469 l -11.49176361225084 1.8909653292669517" fill="#ff920d" stroke="none" /><path d="M 120.77682067341334 96.94652285012252 l 10.480985907364119 -1.540343995810527 a31.593569993906435,31.593569993906435 0 0,0 0.074253139085523,0.537258725262997 l -10.505883563004854 1.3601969623474444" fill="#ff840c" stroke="none" /><path d="M 120.82617615685814 97.30363454192243 l 10.558660678725929 -1.3670300166122045 a31.64678760917075,31.64678760917075 0 0,0 0.06512895890723269,0.5393612090659047 l -10.580571723892824 1.185575130622887" fill="#ff840c" stroke="none" /><path d="M 120.93736805541906 98.37931529534042 l 22.23147611991864 -1.7208568533632551 a43.29797925329289,43.29797925329289 0 0,0 0.05100097601350551,0.7415429980607618 l -22.257741057097213 1.3389704311481592" fill="#e6ff1a" stroke="none" /><path d="M 120.98066250479742 99.09900007780936 l 10.665801582713998 -0.4580354120814225 a31.67563205812869,31.67563205812869 0 0,0 0.018666469585334005,0.5434538950721761 l -10.67209273929618 0.2748752524451264" fill="#ff850c" stroke="none" /><path d="M 120.99303781780057 99.45929381324524 l 10.589086291103737 -0.2727373007838315 a31.592598081475572,31.592598081475572 0 0,0 0.009310140676336379,0.5422690195722679 l -10.59220786337874 0.09092136524249719" fill="#ff840c" stroke="none" /><line stroke="#e1ed5e" stroke-width="0.3" x1="184.99686870605535" x2="189.99668451229388" y1="99.2704041080226" y2="99.22748670261217" /><path d="M 185.99683186730306 99.26182062694052 a86.0,86.0 0 0,1 -10.086455211305974,41.156179273409016" fill="none" id="id28" stroke="none" /><text fill="#e1ed5e" style="font-size:6.75px; font-family:Arial;" text-anchor="middle"><textPath startOffset="21.40746469413373" xlink:href="#id28">April</textPath></text><path d="M 120.99922638620191 100.18025310272382 l 1.2405986995705827 0.010649047765858519 a22.240644403362438,22.240644403362438 0 0,0 -0.006554178532376294,0.381748041239391 l -1.240233089439538 -0.03194400497432055" fill="#ff0000" stroke="none" /><path d="M 120.99303781780057 100.54070618675476 l 10.329334404842417 0.2660470135971101 a31.332760050465954,31.332760050465954 0 0,0 -0.018464414898916273,0.5375712933380372 l -10.323245302946654 -0.44332457149925797" fill="#ff800b" stroke="none" /><path d="M 120.96210409425399 101.26102812881392 l 8.47933795361168 0.5100959152356631 a29.49466714911771,29.49466714911771 0 0,0 -0.034741963429715486,0.5051405234551928 l -8.469332029016897 -0.6555798628451993" fill="#ff6709" stroke="none" /><path d="M 120.93736805541906 101.62068470465957 l 21.132931000676667 1.6358225134490154 a42.19614795133464,42.19614795133464 0 0,0 -0.062101431870757146,0.7217127726639132 l -21.101735946108167 -1.9983563334885859" fill="#f3ff19" stroke="none" /><path d="M 120.86939407059847 102.33845913500097 l 10.690058827851772 1.1978433889897304 a31.756959911028673,31.756959911028673 0 0,0 -0.06535569305191222,0.5412388930403329 l -10.667921048540196 -1.381175958953472" fill="#ff860c" stroke="none" /><path d="M 120.77682067341334 103.0534771498775 l 8.937431842856643 1.3134947035314042 a30.033435463981185,30.033435463981185 0 0,0 -0.07934334216682452,0.5094411737842469 l -8.913567008551551 -1.4667240592471016" fill="#ff6e0a" stroke="none" /><path d="M 120.7213421655516 103.40968896794604 l 12.561789248593247 2.067037640534581 a33.73071850813848,33.73071850813848 0 0,0 -0.09891964073532276,0.5705422008897741 l -12.524454790365688 -2.282372874344943" fill="#ffa00e" stroke="none" /><path d="M 120.65975698304385 103.76489593502545 l 15.657270745537659 2.853276300967538 a36.91512842702604,36.91512842702604 0 0,0 -0.11896112435891024,0.622454870832176 l -15.605983328896588 -3.121633736833029" fill="#ffc912" stroke="none" /><path d="M 120.51834098615036 104.47187691870673 l 10.400386196908887 2.2667157647387794 a31.644530680258676,31.644530680258676 0 0,0 -0.12023284949475743,0.5297681193234455 l -10.359942485856466 -2.444918218001242" fill="#ff840c" stroke="none" /><path d="M 120.43855184770803 104.8234425847677 l 10.203915011621415 2.408096158922556 a31.48421712265682,31.48421712265682 0 0,0 -0.12865421652348438,0.5249531067748677 l -10.161073268581635 -2.5829050903055233" fill="#ff820c" stroke="none" /><path d="M 120.26092885502905 105.52220625578681 l 10.29123018698041 2.804920550529406 a31.666630117155044,31.666630117155044 0 0,0 -0.14744813541771185,0.5232414155879593 l -10.24156355948812 -2.9811698900203742" fill="#ff850c" stroke="none" /><path d="M 120.16314734710363 105.8691983318838 l 10.200499717838586 2.969216804187036 a31.62386195900021,31.62386195900021 0 0,0 -0.15619730181355843,0.5199300173181224 l -10.148026096021399 -3.1438844250958815" fill="#ff840c" stroke="none" /><path d="M 119.58574465831526 107.57618678355244 l 14.864605002378099 5.749948543004833 a36.937954389567295,36.937954389567295 0 0,0 -0.23383717145666363,0.5894224258169412 l -14.763709155955311 -6.004271986035338" fill="#ffca12" stroke="none" /><path d="M 119.4528033332814 107.91128576633889 l 5.0157534021641155 2.0398632432641373 a26.414685978202336,26.414685978202336 0 0,0 -0.17443020332672127,0.4185689888982408 l -4.979997354300909 -2.125664741603656" fill="#ff3c05" stroke="none" /><path d="M 119.16976305983485 108.57439118712176 l 8.753820217333521 3.9154724391152445 a30.589592943335404,30.589592943335404 0 0,0 -0.21851972167906958,0.4775050283996738 l -8.685316030799395 -4.065166449729607" fill="#ff760a" stroke="none" /><path d="M 119.0197475246899 108.90220220490707 l 9.585249773613388 4.4863808816850925 a31.583223830105126,31.583223830105126 0 0,0 -0.2340478442123405,0.48906997781093736 l -9.506822671441135 -4.650263361561133" fill="#ff830c" stroke="none" /><path d="M 118.8641267826498 109.22738970284198 l 4.76628759958871 2.3314301066762857 a26.30594608192636,26.30594608192636 0 0,0 -0.20190450821582767,0.4039442668997799 l -4.72556317816115 -2.4129062297398116" fill="#ff3b05" stroke="none" /><path d="M 118.70294669586154 109.54985784667822 l 9.489723526625644 4.845520449652237 a31.65522975068066,31.65522975068066 0 0,0 -0.25127006543726643,0.48184348167596114 l -9.405145392213427 -5.007710174432701" fill="#ff840c" stroke="none" /><line stroke="#e1ed5e" stroke-width="0.3" x1="174.33088141563837" x2="178.70328620479359" y1="141.23008692659167" y2="143.65538615756765" /><path d="M 175.20536237346943 141.71514677278685 a86.0,86.0 0 0,1 -30.301960400862466,31.631185727798858" fill="none" id="id29" stroke="none" /><text fill="#e1ed5e" style="font-size:6.75px; font-family:Arial;" text-anchor="middle"><textPath startOffset="22.145653131862474" xlink:href="#id29">May</textPath></text><path d="M 118.36410011445183 110.18625677009912 l 11.163253197062557 6.192068369602405 a33.76557607926716,33.76557607926716 0 0,0 -0.28550665345286247,0.5044628999320514 l -11.055313178588317 -6.382788039633579" fill="#ffa00e" stroke="none" /><path d="M 118.00360718960297 110.81064883170644 l 13.667018505995925 8.206651927513724 a36.94166022416109,36.94166022416109 0 0,0 -0.33112399525669783,0.540866161317491 l -13.524126546283822 -8.440055204955772" fill="#ffca12" stroke="none" /><path d="M 117.81537515405839 111.11811171558189 l 4.5988470832387485 2.8700207092006527 a26.42092366357009,26.42092366357009 0 0,0 -0.24342768094303285,0.38270874670555743 l -4.548901710669826 -2.948543130584882" fill="#ff3c05" stroke="none" /><path d="M 117.62189284568427 111.42229804090321 l 8.875983872440807 5.753305509521293 a31.577505092871256,31.577505092871256 0 0,0 -0.29874659722903846,0.45234042494221194 l -8.775912836291042 -5.9048258128025655" fill="#ff830c" stroke="none" /><path d="M 117.01052211995028 112.31430620078461 l 8.637945509251189 6.253206409335211 a31.66380293415739,31.66380293415739 0 0,0 -0.3225154047577107,0.4375540874307659 l -8.52932808490965 -6.4005668060348535" fill="#ff840c" stroke="none" /><path d="M 116.57777611688842 112.89097897827486 l 8.367082861585292 6.506294241016973 a31.599053748487407,31.599053748487407 0 0,0 -0.3366556706427728,0.42535344218406523 l -8.254160760300959 -6.648967627115722" fill="#ff840c" stroke="none" /><path d="M 116.1254893667686 113.45245675266167 l 8.2223065505728 6.859340560953943 a31.70779519521831,31.70779519521831 0 0,0 -0.35226671420225836,0.41496930356820644 l -8.103345272863427 -6.999476646971707" fill="#ff850c" stroke="none" /><path d="M 115.16444852881244 114.52719865689866 l 7.274807130431422 6.969100668158379 a31.07428324536795,31.07428324536795 0 0,0 -0.3723190385387099,0.3820321330577958 l -7.154101290741905 -7.092955493283912" fill="#ff7d0b" stroke="none" /><path d="M 114.39649973595853 115.28858382429668 l 3.8086626601624056 4.0446677599640015 a26.555650146239195,26.555650146239195 0 0,0 -0.3345635443855611,0.3096670219395742 l -3.738669344462877 -4.1094525280359555" fill="#ff3e05" stroke="none" /><path d="M 113.86319453409587 115.77377054828091 l 4.188192863195588 4.765394662356831 a27.34428449451484,27.34428449451484 0 0,0 -0.35524199625266767,0.3068495754612602 l -4.105771387180065 -4.83658837028281" fill="#ff4906" stroke="none" /><path d="M 113.59037401385872 116.0094264158162 l 6.933999518517376 8.16823399751968 a31.714494666620332,31.714494666620332 0 0,0 -0.41806600489553347,0.34876553031656854 l -6.792759179459948 -8.286061711748118" fill="#ff850c" stroke="none" /><path d="M 113.31354834802062 116.24036423190432 l 6.4579718442658205 7.8776755984705416 a31.1864210189874,31.1864210189874 0 0,0 -0.41693160364083204,0.3358505868533934 l -6.321789470269736 -7.987374479117339" fill="#ff7e0b" stroke="none" /><path d="M 112.7482090630111 116.68781488649013 l 6.493573262863051 8.500295847589827 a31.69679967171129,31.69679967171129 0 0,0 -0.43522273554438823,0.32659925455154964 l -6.346697538407897 -8.610514129405392" fill="#ff850c" stroke="none" /><path d="M 111.8722381534696 117.32195027204791 l 6.002077963421334 8.75721112290482 a31.616670218581525,31.616670218581525 0 0,0 -0.45031730573288875,0.30299358031990675 l -5.8508643695914415 -8.858954377281849" fill="#ff840c" stroke="none" /><path d="M 111.27062007382361 117.71928675628689 l 7.878908149122248 12.386952262279557 a35.680387596051325,35.680387596051325 0 0,0 -0.5196353535980479,0.32429089270976486 l -7.665108666734485 -12.52037895183087" fill="#ffb911" stroke="none" /><line stroke="#e1ed5e" stroke-width="0.3" x1="143.1302829299769" x2="145.66735839644613" y1="173.24464959558577" y2="177.55315839532614" /><path d="M 143.63769802327073 174.10635135553383 a86.0,86.0 0 0,1 -40.68552437913181,11.842963189579606" fill="none" id="id30" stroke="none" /><text fill="#e1ed5e" style="font-size:6.75px; font-family:Arial;" text-anchor="middle"><textPath startOffset="21.407464694133747" xlink:href="#id30">June</textPath></text><path d="M 110.02825361518725 118.45085714620011 l 4.869319235763265 8.958998950948917 a31.196760859355187,31.196760859355187 0 0,0 -0.4727218198418621,0.2516977429034015 l -4.714808600134849 -9.041267161574886" fill="#ff7e0b" stroke="none" /><path d="M 109.71004243097381 118.62028667847754 l 2.4664804921134214 4.729801561270659 a26.33428053508385,26.33428053508385 0 0,0 -0.4026295531225382,0.20558551867351446 l -2.384923717277301 -4.77144503161701" fill="#ff3b05" stroke="none" /><path d="M 109.06512990194946 118.94263497670748 l 3.230123249407367 6.749715261128439 a28.48280377349775,28.48280377349775 0 0,0 -0.44285509012525076,0.20727854324299774 l -3.1137794454106102 -6.80417003594197" fill="#ff5908" stroke="none" /><path d="M 108.73861861582097 119.09545874513695 l 5.3249054219716845 11.635879339433068 a33.79641769226016,33.79641769226016 0 0,0 -0.5296165759055134,0.2368907579516509 l -5.124375443210544 -11.725573848294568" fill="#ffa10e" stroke="none" /><path d="M 108.4095320186766 119.2426549942271 l 4.238532246196177 9.698591255057098 a31.58431990893675,31.58431990893675 0 0,0 -0.4986786979237937,0.21285628287532085 l -4.071418473101952 -9.769922187591822" fill="#ff830c" stroke="none" /><path d="M 106.72888874123015 119.89276391827305 l 4.081960693469284 12.067591473359647 a33.7392765521018,33.7392765521018 0 0,0 -0.5502350032052293,0.1808731746094323 l -3.8742029526163204 -12.1358855693711" fill="#ffa00e" stroke="none" /><path d="M 106.38641147887787 120.00534299687104 l 1.6875492605273072 5.286224023087319 a26.549052795655466,26.549052795655466 0 0,0 -0.435353096122369,0.13487350203533682 l -1.596555531533314 -5.314414112929301" fill="#ff3e05" stroke="none" /><path d="M 104.64783097203109 120.47920084513623 l 1.4116565539762949 6.220019244933961 a27.378198306240805,27.378198306240805 0 0,0 -0.459220495652968,0.10008496966171415 l -1.304673641704191 -6.243335672729393" fill="#ff4a06" stroke="none" /><path d="M 104.29559338865022 120.5559693870025 l 2.340028083292702 11.19788147825734 a32.43976752524706,32.43976752524706 0 0,0 -0.5460748489873101,0.10923026351555871 l -2.147456748774433 -11.23640113843576" fill="#ff8f0d" stroke="none" /><path d="M 103.94208987418118 120.62667999033965 l 1.0370651927472088 5.426363310491449 a26.524574462477226,26.524574462477226 0 0,0 -0.4479688223418719,0.08163484205730583 l -0.9437616368542796 -5.443366326480119" fill="#ff3e05" stroke="none" /><path d="M 100.72087961077811 120.9876233191556 l 0.1822951986999418 5.307325808639969 a26.310455609316865,26.310455609316865 0 0,0 -0.4515208524919292,0.01162957550546526 l -0.09116103213726875 -5.309673101495479" fill="#ff3b05" stroke="none" /><line stroke="#e1ed5e" stroke-width="0.3" x1="101.45913802915013" x2="101.54496967792366" y1="184.9874750549273" y2="189.98673829345242" /><path d="M 101.47630435890484 185.9873277026323 a86.0,86.0 0 0,1 -42.54439059252881,-10.42667462771756" fill="none" id="id31" stroke="none" /><text fill="#e1ed5e" style="font-size:6.75px; font-family:Arial;" text-anchor="middle"><textPath startOffset="22.145653131862474" xlink:href="#id31">July</textPath></text><path d="M 100.36049292484886 120.99690560180557 l 0.18238266955173407 10.622876156553295 a31.62444169241948,31.62444169241948 0 0,0 -0.542875594400585,0.004659934060620713 l -1.3011188511349205e-15 -10.62444169241948" fill="#ff840c" stroke="none" /><path d="M 99.63950707515114 120.99690560180557 l -0.12796267189568808 7.453184118592985 a28.454282524230308,28.454282524230308 0 0,0 -0.48831164663819565,-0.012577175856738643 l 0.2558876326046276 -7.449889225386199" fill="#ff5908" stroke="none" /><path d="M 99.27912038922189 120.98762331915562 l -0.2924163625016792 8.513383339998464 a29.518403795478477,29.518403795478477 0 0,0 -0.5062746969197036,-0.02174161385168214 l 0.43851682002222153 -8.507109157720954" fill="#ff6709" stroke="none" /><path d="M 98.91894614982273 120.97215588758144 l -0.5462330180583358 10.596774623007956 a31.61084364793123,31.61084364793123 0 0,0 -0.5416828866936303,-0.03258629734621988 l 0.7280602568844124 -10.585836347837045" fill="#ff840c" stroke="none" /><path d="M 98.19965949673042 120.92268563240118 l -0.9214689165599149 10.7088655874813 a31.748437427595107,31.748437427595107 0 0,0 -0.5425965740289241,-0.05138445969607044 l 1.1051650539738542 -10.691469372280046" fill="#ff860c" stroke="none" /><path d="M 97.48249496171623 120.84855314841334 l -1.2219152873667145 10.119211451068475 a31.192718840473127,31.192718840473127 0 0,0 -0.5310518467140009,-0.06875529358549064 l 1.3954449559715092 -10.096744561282588" fill="#ff7e0b" stroke="none" /><path d="M 97.12497278360702 120.80226474461374 l -1.4515280981613399 10.50253424038217 a31.602365740255888,31.602365740255888 0 0,0 -0.5367509744263373,-0.07888390920573252 l 1.6316041781953623 -10.476069257877556" fill="#ff840c" stroke="none" /><path d="M 96.76829788921471 120.74984581791261 l -1.6405840054950473 10.53372619083499 a31.660717768638715,31.660717768638715 0 0,0 -0.5363061704663049,-0.08824897626179609 l 1.8211676790144158 -10.504011216077526" fill="#ff840c" stroke="none" /><path d="M 96.41257539226777 120.69131181640829 l -1.8129879398592748 10.456832654311766 a31.612835362444667,31.612835362444667 0 0,0 -0.5339035560489523,-0.09729501317532797 l 1.9922262294592843 -10.424169467205072" fill="#ff840c" stroke="none" /><path d="M 96.05791012581884 120.62667999033965 l -1.974518823647661 10.331516837561182 a31.518505823060096,31.518505823060096 0 0,0 -0.5305667894887955,-0.10612821728731872 l 2.1515820986674146 -10.296099223611002" fill="#ff830c" stroke="none" /><path d="M 95.70440661134978 120.55596938700252 l -1.0995179685182856 5.26159150934514 a26.375247433775254,26.375247433775254 0 0,0 -0.4423977817688247,-0.09641853746920487 l 1.1896781669062468 -5.241941513742217" fill="#ff3c05" stroke="none" /><path d="M 95.35216902796893 120.47920084513623 l -2.347655388780955 10.344202814458571 a31.607262497512018,31.607262497512018 0 0,0 -0.5280939104133359,-0.12462872493237935 l 2.5248814529341788 -10.302377945879964" fill="#ff840c" stroke="none" /><path d="M 94.6519064749342 120.30758222061772 l -2.7279953875204686 10.358642826624116 a31.711836445908993,31.711836445908993 0 0,0 -0.5252365012573401,-0.1431555440406612 l 2.9054132897125036 -10.31028678843931" fill="#ff850c" stroke="none" /><path d="M 94.30408787586889 120.21278271476187 l -4.256325432742245 15.104197406917969 a36.69245313826222,36.69245313826222 0 0,0 -0.6047964416650743,-0.17604742977092175 l 4.514981886788926 -15.028906282844531" fill="#ffc612" stroke="none" /><path d="M 93.95794788825049 120.11202640906438 l -3.0491667750502485 10.149684506394523 a31.59780701850224,31.59780701850224 0 0,0 -0.5181428965493183,-0.16052199383623014 l 3.2229503044712002 -10.095845924751643" fill="#ff840c" stroke="none" /><path d="M 93.61358852112213 120.00534299687104 l -3.1632488557972054 9.908831987099255 a31.401494828738016,31.401494828738016 0 0,0 -0.5121094277483207,-0.16834054068659576 l 3.3328810211932693 -9.853070525010638" fill="#ff810b" stroke="none" /><path d="M 92.93061703081489 119.77432235084164 l -3.575322726050651 10.00081398919672 a31.620697389622165,31.620697389622165 0 0,0 -0.5095612870909727,-0.18711796277907353 l 3.7464731647957428 -9.937965177408927" fill="#ff840c" stroke="none" /><path d="M 92.59220618246901 119.65005319985036 l -3.694346198283489 9.799692205678998 a31.472925148153088,31.472925148153088 0 0,0 -0.50390811501305,-0.19492248406627935 l 3.8620265757900674 -9.734829833474679" fill="#ff820c" stroke="none" /><path d="M 92.25597844496254 119.51999308798841 l -3.870916093686967 9.757237225637754 a31.497031469979305,31.497031469979305 0 0,0 -0.5008711021497085,-0.20369991683553748 l 4.0378416570271165 -9.689350052222924" fill="#ff820c" stroke="none" /><path d="M 91.59046798132341 119.24265499422711 l -4.040399913774258 9.24522570421204 a31.089550524431207,31.089550524431207 0 0,0 -0.4871978280396605,-0.21791739157594409 l 4.198511144669553 -9.174504561726241" fill="#ff7d0b" stroke="none" /><path d="M 90.93487009805054 118.94263497670748 l -2.3981646464860162 5.011241758671336 a26.5555141648192,26.5555141648192 0 0,0 -0.4095110041834588,-0.20031235300424446 l 2.4838358999315444 -4.9693356555698704" fill="#ff3e05" stroke="none" /><path d="M 89.97174638481275 118.45085714620012 l -6.058797486809464 11.147504959146401 a33.6876275875501,33.6876275875501 0 0,0 -0.50572478020038,-0.2805170105813679 l 6.249266455165947 -11.041855033131885" fill="#ff9f0e" stroke="none" /><line stroke="#e1ed5e" stroke-width="0.3" x1="58.13341422392154" x2="55.67067388415222" y1="173.97424548756322" y2="178.32567169271397" /><path d="M 57.64086615596768 174.84453072859336 a86.0,86.0 0 0,1 -31.369924170532247,-30.572349798747897" fill="none" id="id32" stroke="none" /><text fill="#e1ed5e" style="font-size:6.75px; font-family:Arial;" text-anchor="middle"><textPath startOffset="22.145653131862474" xlink:href="#id32">August</textPath></text><path d="M 89.65649057296885 118.27599006163327 l -2.895337442505251 5.1157838350313805 a26.8782840313089,26.8782840313089 0 0,0 -0.3996001297886752,-0.23070924250170277 l 2.982730040154326 -5.065327695253506" fill="#ff4306" stroke="none" /><path d="M 88.1277618465304 117.32195027204791 l -1.6180771904053333 2.3608229776240712 a23.86210742736673,23.86210742736673 0 0,0 -0.3358931471651694,-0.23447950349771718 l 1.6583654287442682 -2.3326986583212252" fill="#ff1802" stroke="none" /><path d="M 87.83215693770417 117.11559508785305 l -3.1016929062693093 4.362919508312192 a26.353089343623218,26.353089343623218 0 0,0 -0.36645726303094167,-0.26528679805612565 l 3.1761311796742047 -4.309031938883001" fill="#ff3b05" stroke="none" /><path d="M 87.54013794807813 116.9041958592261 l -5.081571012137636 6.894127021935273 a29.564540346450336,29.564540346450336 0 0,0 -0.4059450877679053,-0.30462876184081916 l 5.199169088816308 -6.8058792328304385" fill="#ff6809" stroke="none" /><path d="M 87.2517909369889 116.68781488649013 l -3.215238279819012 4.2088501188184395 a26.296430545064432,26.296430545064432 0 0,0 -0.3563667916531314,-0.2771129726547434 l 3.2870150161073717 -4.1530360945429035" fill="#ff3a05" stroke="none" /><path d="M 86.13680546590413 115.77377054828092 l -8.431226712154817 9.593188299491796 a33.77164224449069,33.77164224449069 0 0,0 -0.4321724463192343,-0.3864512664062056 l 8.594664185297423 -9.44704150320221" fill="#ffa10e" stroke="none" /><path d="M 85.86807049272751 115.53346607816431 l -3.5724347299101593 3.926731566624246 a26.308626064792243,26.308626064792243 0 0,0 -0.33145139116082883,-0.3067864593765148 l 3.6393158923849556 -3.864827361115354" fill="#ff3b05" stroke="none" /><path d="M 85.60350026404147 115.28858382429668 l -5.412704203675428 5.748104292831782 a28.89544614051396,28.89544614051396 0 0,0 -0.3582037935034616,-0.3431511312786931 l 5.510580483044204 -5.6543410312475055" fill="#ff5f08" stroke="none" /><path d="M 85.08716467003676 114.78537596483092 l -6.044439443566924 5.992777878411043 a29.511676385232253,29.511676385232253 0 0,0 -0.35359653803287633,-0.36282119817654246 l 6.1464227827506095 -5.888133988166763" fill="#ff6709" stroke="none" /><path d="M 84.58840730492382 114.26474011684316 l -7.846718912614887 7.262805880804919 a31.692022584892097,31.692022584892097 0 0,0 -0.3661217878126616,-0.4024319799032512 l 7.9702384012694285 -7.127036325343994" fill="#ff850c" stroke="none" /><path d="M 84.3458050057657 113.99807769240083 l -1.894230357440107 1.693832466026961 a23.54109761127247,23.54109761127247 0 0,0 -0.2667867035120788,-0.3035542952370626 l 1.9230281249107781 -1.6610658929785982" fill="#ff1302" stroke="none" /><path d="M 84.1078160697243 113.72728997021213 l -9.885390632652452 8.5387649852656 a34.0625975760463,34.0625975760463 0 0,0 -0.3784280569314793,-0.4457872995214674 l 10.030513253091044 -8.367810903294579" fill="#ffa40f" stroke="none" /><path d="M 83.8745106332314 113.45245675266167 l -5.901843327112649 4.9235276098090734 a28.685888288437216,28.685888288437216 0 0,0 -0.3122024291089362,-0.38083620010800734 l 5.985492575460215 -4.821489128002571" fill="#ff5c08" stroke="none" /><path d="M 83.64595745247003 113.17365903436017 l -7.508417504104475 6.048249648319116 a30.64145514039944,30.64145514039944 0 0,0 -0.3264534347094303,-0.4124632503630435 l 7.611137369455467 -5.918466454041392" fill="#ff770a" stroke="none" /><path d="M 83.20337586046588 112.60449989151573 l -8.500417635197058 6.378871865596887 a31.62765760882767,31.62765760882767 0 0,0 -0.32214724227725416,-0.4370546043183762 l 8.608666897058143 -6.232010952009631" fill="#ff840c" stroke="none" /><path d="M 82.37810715431573 111.42229804090323 l -8.996174261236071 5.831211467439305 a31.720735913010916,31.720735913010916 0 0,0 -0.2922572003702327,-0.4594768616127177 l 9.094949153232193 -5.675920931147915" fill="#ff850c" stroke="none" /><path d="M 82.18462484594161 111.11811171558189 l -9.178591570409548 5.728119985633012 a31.819330006345197,31.819330006345197 0 0,0 -0.2852103455599799,-0.4658696650826339 l 9.275569880424934 -5.569713204425821" fill="#ff870c" stroke="none" /><line stroke="#e1ed5e" stroke-width="0.3" x1="26.387840678322732" x2="22.057713659400548" y1="142.50000000000003" y2="145.00000000000006" /><path d="M 25.521815274538298 143.00000000000003 a86.0,86.0 0 0,1 -11.493303480769221,-40.785679425670985" fill="none" id="id33" stroke="none" /><text fill="#e1ed5e" style="font-size:6.75px; font-family:Arial;" text-anchor="middle"><textPath startOffset="21.40746469413373" xlink:href="#id33">September</textPath></text><path d="M 81.4637452351635 109.86951160357371 l -9.640437739572631 5.132990096507304 a31.92179596684622,31.92179596684622 0 0,0 -0.25338599102387016,-0.4859010479835201 l 9.72713179957145 -4.9667428054192815" fill="#ff880c" stroke="none" /><path d="M 81.1358732173502 109.22738970284198 l -9.153543855000677 4.4774569894128575 a31.18994534810971,31.18994534810971 0 0,0 -0.2311334494886964,-0.482980013737044 l 9.229056562449287 -4.319664473610708" fill="#ff7e0b" stroke="none" /><path d="M 80.9802524753101 108.90220220490708 l -9.610312471775881 4.498111489914959 a31.61089594619022,31.61089594619022 0 0,0 -0.2258154986561364,-0.4934476177726753 l 9.686112435287074 -4.332474889927595" fill="#ff840c" stroke="none" /><path d="M 80.68587082218212 108.24405325689762 l -9.773340066226869 4.171657715548564 a31.62642480544662,31.62642480544662 0 0,0 -0.2088460833440788,-0.5011545722786898 l 9.843511994107432 -4.003270633828593" fill="#ff840c" stroke="none" /><path d="M 80.5471966667186 107.91128576633889 l -6.985833112130227 2.841077510481989 a28.541457796149338,28.541457796149338 0 0,0 -0.18068281989612053,-0.4554387368919809 l 7.033574606992472 -2.720737756376443" fill="#ff5a08" stroke="none" /><path d="M 80.41425534168474 107.57618678355246 l -9.94618317600649 3.847397320829469 a31.664381178249414,31.664381178249414 0 0,0 -0.19174941437509632,-0.5086381028308106 l 10.010763274196023 -3.676090937804514" fill="#ff840c" stroke="none" /><path d="M 80.16572619554312 106.89939002012753 l -5.4679351466705794 1.902031682811922 a26.789303869258873,26.789303869258873 0 0,0 -0.14735976870605658,-0.43564297206451275 l 5.499780336949003 -1.8078870362732475" fill="#ff4106" stroke="none" /><path d="M 80.05021161711548 106.5578916946017 l -21.21513480563647 6.973836196733758 a43.33195773147088,43.33195773147088 0 0,0 -0.22622435722941853,-0.7086445769410864 l 21.331723878643142 -6.608622586101279" fill="#e6ff1a" stroke="none" /><path d="M 79.83685265289637 105.86919833188381 l -5.457803615895607 1.5886870897050367 a26.684324672173346,26.684324672173346 0 0,0 -0.1242492144960348,-0.44091662939256876 l 5.484271322466217 -1.494762536409472" fill="#ff4006" stroke="none" /><path d="M 79.64726062577567 105.17358676015961 l -10.81363955189493 2.74878488768316 a32.157536408950754,32.157536408950754 0 0,0 -0.13140560668544818,-0.5361797175498607 l 10.859232685096671 -2.5627493455251997" fill="#ff8b0c" stroke="none" /><path d="M 79.48165901384964 104.47187691870673 l -16.08167205564776 3.5049255750454766 a37.45918222124082,37.45918222124082 0 0,0 -0.13153932607816565,-0.6294632930560939 l 16.139469092550296 -3.2283458307039736" fill="#ffd013" stroke="none" /><path d="M 79.34024301695615 103.76489593502545 l -10.397033152405031 1.8946857837650835 a31.568260622799325,31.568260622799325 0 0,0 -0.09257795675751472,-0.5339650529427062 l 10.42802592665478 -1.7159276979017846" fill="#ff830c" stroke="none" /><path d="M 79.2786578344484 103.40968896794605 l -10.485980044881313 1.7254640260018324 a31.626994100246577,31.626994100246577 0 0,0 -0.08355325908730935,-0.5364718604043875 l 10.51405479610689 -1.5452039836659948" fill="#ff840c" stroke="none" /><path d="M 79.0935383218832 101.97986365728391 l -22.554889702860965 2.135971505091341 a43.65580331347326,43.65580331347326 0 0,0 -0.06424965374473438,-0.7466783671479728 l 22.58823297930344 -1.748472090567706" fill="#e2ff1b" stroke="none" /><path d="M 79.01933749520258 100.90099992219065 l -10.70375287284401 0.45966520377396003 a31.71361832727286,31.71361832727286 0 0,0 -0.018688854917261674,-0.5441056195867108 l 10.710066414758119 -0.2758533196231293" fill="#ff850c" stroke="none" /><line stroke="#e1ed5e" stroke-width="0.3" x1="15.003131293944662" x2="10.003315487706104" y1="100.72959589197737" y2="100.7725132973878" /><path d="M 14.003168132696942 100.73817937305945 a86.0,86.0 0 0,1 10.791469493833604,-42.45332614584628" fill="none" id="id34" stroke="none" /><text fill="#e1ed5e" style="font-size:6.75px; font-family:Arial;" text-anchor="middle"><textPath startOffset="22.145653131862435" xlink:href="#id34">October</textPath></text><path d="M 79.0935383218832 98.0201363427161 l -11.832087561925078 -1.1205109938893558 a32.88502591332846,32.88502591332846 0 0,0 0.05804615398978938,-0.5615438846251816 l 11.811109015453624 1.3234594007974503" fill="#ff950d" stroke="none" /><path d="M 79.13060592940154 97.66154086499901 l -5.332881258407778 -0.5975604683304367 a26.36625577377637,26.36625577377637 0 0,0 0.05426164608031377,-0.4493642693946914 l 5.321837526067797 0.6890184146485644" fill="#ff3b05" stroke="none" /><path d="M 79.22317932658666 96.9465228501225 l -10.578969974831551 -1.5547442794615651 a31.69260658132085,31.69260658132085 0 0,0 0.0837265963514573,-0.5375848099839806 l 10.550721886341826 1.7361172713769957" fill="#ff850c" stroke="none" /><path d="M 79.2786578344484 96.59031103205396 l -27.621942846906155 -4.5451801840764 a48.993399035191686,48.993399035191686 0 0,0 0.1436794010122891,-0.8287046037238857 l 27.53984862840163 5.018677820720878" fill="#a4ff21" stroke="none" /><path d="M 79.34024301695615 96.23510406497455 l -5.260242775422761 -0.9585914615883505 a26.346873071863353,26.346873071863353 0 0,0 0.08490431369258714,-0.4442552463876024 l 5.243012169448015 1.0487492730092673" fill="#ff3b05" stroke="none" /><path d="M 79.48165901384962 95.52812308129327 l -31.115960310929403 -6.781578725675824 a52.846393768900626,52.846393768900626 0 0,0 0.20078896326691115,-0.8847132202040474 l 30.99496048610483 7.3147262798188795" fill="#7aff26" stroke="none" /><path d="M 79.73907114497095 94.47779374421319 l -60.782786565087164 -16.56661876736044 a84.0,84.0 0 0,0 0.3911260317016718,-1.3879683043879474 l 60.48944204131091 17.607594995651397" fill="#4dd2ff" stroke="none" /><path d="M 80.5471966667186 92.08871423366112 l -8.300618293232592 -3.375789197576068 a29.96081563008741,29.96081563008741 0 0,0 0.1978471811666974,-0.4747612110627213 l 8.241445267529416 3.5177829180800533" fill="#ff6d0a" stroke="none" /><path d="M 80.83023694016515 91.42560881287825 l -4.865069884977928 -2.176083878359919 a26.329563399695804,26.329563399695804 0 0,0 0.18808778778754004,-0.41100576075702944 l 4.826997632335341 2.2592786213316196" fill="#ff3b05" stroke="none" /><path d="M 81.1358732173502 90.77261029715801 l -9.554723890443293 -4.673694248135791 a31.636548620095965,31.636548620095965 0 0,0 0.24281817391752136,-0.48579900528128483 l 9.473085803314028 4.837025109580846" fill="#ff840c" stroke="none" /><path d="M 81.46374523516351 90.13048839642627 l -6.090816892935729 -3.2430169288624535 a27.900377469686692,27.900377469686692 0 0,0 0.2287228442330315,-0.42082427179794674 l 6.034248699087347 3.3470960341350198" fill="#ff5107" stroke="none" /><line stroke="#e1ed5e" stroke-width="0.3" x1="26.387840678322718" x2="22.05771365940052" y1="57.49999999999999" y2="54.99999999999999" /><path d="M 25.521815274538284 56.99999999999999 a86.0,86.0 0 0,1 29.574782752854787,-30.34633250058573" fill="none" id="id35" stroke="none" /><text fill="#e1ed5e" style="font-size:6.75px; font-family:Arial;" text-anchor="middle"><textPath startOffset="21.40746469413373" xlink:href="#id35">November</textPath></text><path d="M 81.81346652052679 89.5 l -13.832151414813847 -7.98599634281444 a36.97199268562888,36.97199268562888 0 0,0 0.3220547357662393,-0.5469193492213896 l 13.693022968917829 8.222266860329402" fill="#ffca12" stroke="none" /><path d="M 82.18462484594161 88.88188828441811 l -9.150427682844349 -5.710543636800205 a31.786131623838248,31.786131623838248 0 0,0 0.2928597200411202,-0.46042412261121024 l 9.051050271177338 5.866781434090087" fill="#ff860c" stroke="none" /><path d="M 82.576782715395 88.27688183743585 l -4.407754605876298 -2.965734010671594 a26.31261507053522,26.31261507053522 0 0,0 0.25537052393348264,-0.3725932262595192 l 4.356194345127502 3.040961972001148" fill="#ff3b05" stroke="none" /><path d="M 82.78059297857968 87.97951657250589 l -5.472461725283521 -3.8202032970436486 a27.67396363231298,27.67396363231298 0 0,0 0.27527015079146794,-0.3872019401136227 l 5.406076475962081 3.9135824638667915" fill="#ff4e07" stroke="none" /><path d="M 83.2033758604659 87.39550010848427 l -6.024875471804623 -4.5211788749869335 a28.532607972699832,28.532607972699832 0 0,0 0.2973478493214334,-0.3892378797559482 l 5.9463756451288825 4.623937667983766" fill="#ff5a08" stroke="none" /><path d="M 83.64595745247003 86.82634096563983 l -8.303367471000964 -6.688605070095357 a31.6622394055931,31.6622394055931 0 0,0 0.34459550124649024,-0.4203504810759725 l 8.187325150515843 6.830157832869823" fill="#ff840c" stroke="none" /><path d="M 84.58840730492382 85.73525988315684 l -4.877407654099005 -4.51445570916576 a27.646007506336634,27.646007506336634 0 0,0 0.3253594988416354,-0.3455205127845809 l 4.799192321521098 4.5975176818948515" fill="#ff4d07" stroke="none" /><path d="M 84.83555147118756 85.47280134310135 l -1.6077481216110858 -1.5401863317695563 a23.226438402272503,23.226438402272503 0 0,0 0.27828945067950617,-0.2855494923596858 l 1.581071869780777 1.5675585161969725" fill="#ff0e01" stroke="none" /><path d="M 87.83215693770416 82.88440491214696 l -6.243557760439466 -8.782345892217775 a31.775509866289312,31.775509866289312 0 0,0 0.4472855569967414,-0.31224005673067357 l 6.09187711226896 8.888230764753574" fill="#ff860c" stroke="none" /><path d="M 88.4268655584334 82.4767994020092 l -8.117511862354307 -12.29094757680439 a35.729609335322394,35.729609335322394 0 0,0 0.514700960846596,-0.33362294438017204 l 7.905325269250685 12.428484362888469" fill="#ffba11" stroke="none" /><line stroke="#e1ed5e" stroke-width="0.3" x1="56.869717070023135" x2="54.33264160355391" y1="26.7553504044142" y2="22.446841604673864" /><path d="M 56.362301976729285 25.89364864446614 a86.0,86.0 0 0,1 42.16139366436587,-11.88097634709845" fill="none" id="id36" stroke="none" /><text fill="#e1ed5e" style="font-size:6.75px; font-family:Arial;" text-anchor="middle"><textPath startOffset="22.145653131862474" xlink:href="#id36">December</textPath></text><path d="M 90.61103034731259 81.2157712731953 l -2.8598062810765925 -5.721528270433743 a27.396434765919032,27.396434765919032 0 0,0 0.4224787907477925,-0.2066555472369305 l 2.761167241066747 5.769777567767887" fill="#ff4a06" stroke="none" /><path d="M 90.93487009805054 81.0573650232925 l -2.8373445545381824 -5.92895885454518 a27.572904777954506,27.572904777954506 0 0,0 0.428707838159427,-0.20065691498636146 l 2.735148002507233 5.976792001102084" fill="#ff4c07" stroke="none" /><path d="M 91.92203290615298 80.6158196554323 l -2.5123894310640003 -6.028820031295445 a27.531368281077963,27.531368281077963 0 0,0 0.4378084578470946,-0.1780528883990038 l 2.408526512026465 6.071060176273741" fill="#ff4c07" stroke="none" /><path d="M 93.27111125876988 80.10723608172694 l -1.400602468496732 -4.14063232736145 a25.37110093056084,25.37110093056084 0 0,0 0.4137631042648009,-0.1360121507513655 l 1.32931662658417 4.164065399514843" fill="#ff2d04" stroke="none" /><path d="M 95.00130118170881 79.60360301121753 l -2.53210488917737 -10.33185203075585 a31.637608826951183,31.637608826951183 0 0,0 0.5286009366634143,-0.12474838174683638 l 2.3543717987740496 10.37379655614892" fill="#ff840c" stroke="none" /><path d="M 95.35216902796891 79.52079915486377 l -0.3759900873735848 -1.6566816997949239 a22.698812173325408,22.698812173325408 0 0,0 0.3807321307404133,-0.08297879584013769 l 0.34749554001405314 1.6628919537687759" fill="#ff0701" stroke="none" /><path d="M 95.70440661134978 79.44403061299748 l -1.9055775501860537 -9.118878404478673 a30.315855792971497,30.315855792971497 0 0,0 0.5103219793786439,-0.10207868827631235 l 1.748759085276433 9.150246489417853" fill="#ff720a" stroke="none" /><path d="M 96.76829788921471 79.25015418208739 l -0.8415225795834813 -5.403178628492535 a26.468317798313052,26.468317798313052 0 0,0 0.4495516407359782,-0.06606861002721887 l 0.7486458332398181 5.416828311818638" fill="#ff3d05" stroke="none" /></svg>