<?xml version="1.0" encoding="utf-8" ?>
<svg baseProfile="full" height="200mm" version="1.1" viewBox="0,0,200,200" width="200mm" xmlns="http://www.w3.org/2000/svg" xmlns:ev="http://www.w3.org/2001/xml-events" xmlns:xlink="http://www.w3.org/1999/xlink"><defs /><rect fill="#1a1a1a" height="200" width="200" x="0" y="0" /><text alignment-baseline="middle" fill="#e1ed5e" style="dominant-baseline: central; font-size:9.0px; font-family:Arial;" text-anchor="middle" x="100.0" y="100.0">2022</text><line stroke="#e1ed5e" stroke-width="0.3" x1="100.0" x2="100.0" y1="15.0" y2="10.0" /><path d="M 100.0 14.0 a86.0,86.0 0 0,1 42.46469731375804,11.215312516191453" fill="none" id="id49" stroke="none" /><text fill="#e1ed5e" style="font-size:6.75px; font-family:Arial;" text-anchor="middle"><textPath startOffset="22.20632615414155" xlink:href="#id49">January</textPath></text><path d="M 100.0 79.0 l 0.0 -14.527841583469474 a35.527841583469474,35.527841583469474 0 0,0 0.6115533906243338,0.0052638331073996195 l -0.25007291135180537 14.525689126970633" fill="#ff900d" stroke="none" /><path d="M 103.59715602781102 79.31037775812273 l 1.8116217097848593 -10.419834038569984 a31.576148382596827,31.576148382596827 0 0,0 0.5346967819823893,0.09771241921146243 l -1.9907136128701495 10.387106138007782" fill="#ff5708" stroke="none" /><path d="M 107.08798089147638 80.2323363322302 l 4.996254312752241 -13.934049253984183 a35.80271210860201,35.80271210860201 0 0,0 0.5783291777387614,0.2130035168818888 l -5.235365816263579 13.84598246929597" fill="#ff940d" stroke="none" /><path d="M 107.4271985657038 80.35727306442388 l 1.8009800744914626 -4.763055613324251 a26.09217321036264,26.09217321036264 0 0,0 0.4187381730303283,0.16246390564792998 l -1.882701412521458 4.731349003785775" fill="#ff0400" stroke="none" /><path d="M 107.76421540070413 80.48803036053334 l 5.530096154687345 -13.897485155268244 a35.95734124505385,35.95734124505385 0 0,0 0.5731191486397285,0.23378969089496598 l -5.768499172915461 13.800234578189698" fill="#ff960d" stroke="none" /><line stroke="#e1ed5e" stroke-width="0.3" x1="143.23703022742887" x2="145.7803849466894" y1="26.81831364943548" y2="22.513508569990506" /><path d="M 143.74570117128098 25.957352633546492 a86.0,86.0 0 0,1 28.547481713284135,27.462654790039103" fill="none" id="id50" stroke="none" /><text fill="#e1ed5e" style="font-size:6.75px; font-family:Arial;" text-anchor="middle"><textPath startOffset="19.985693538727396" xlink:href="#id50">February</textPath></text><path d="M 114.16331599549186 84.49514656593476 l 9.564142090383084 -10.470049625466562 a35.18078816867278,35.18078816867278 0 0,0 0.4435997785213372,0.41227764888523416 l -9.74294975269927 10.303867390506687" fill="#ff8b0c" stroke="none" /><path d="M 114.68862486808459 84.99185889309783 l 3.5201043022823915 -3.5966758327702246 a26.03261476222653,26.03261476222653 0 0,0 0.31755352048181457,0.31618984474668915 l -3.581493622931528 3.535550137373417" fill="#ff0300" stroke="none" /><path d="M 114.94478906791727 85.2469230424477 l 7.179523408361901 -7.087424310959012 a31.088465677930877,31.088465677930877 0 0,0 0.3726703713225977,0.38406957629841226 l -7.300458043387608 6.962790539110485" fill="#ff5007" stroke="none" /><path d="M 116.38621287248628 86.86637796730983 l 8.083529409836217 -6.478984545427508 a31.35956989742217,31.35956989742217 0 0,0 0.33397332580413475,0.4241122082490111 l -8.193856816234316 6.338879943225458" fill="#ff5407" stroke="none" /><path d="M 117.45458315368197 88.32363383020206 l 12.026946171342715 -8.045510234452298 a35.46988835966096,35.46988835966096 0 0,0 0.3351116759064528,0.5103980730961007 l -12.163654482607093 7.837294097378522" fill="#ff8f0d" stroke="none" /><line stroke="#e1ed5e" stroke-width="0.3" x1="172.23445277983987" x2="176.4835382374775" y1="55.19839476539836" y2="52.563006222186495" /><path d="M 173.08426987136738 54.67131705675599 a86.0,86.0 0 0,1 12.851231095245387,41.99856678651699" fill="none" id="id51" stroke="none" /><text fill="#e1ed5e" style="font-size:6.75px; font-family:Arial;" text-anchor="middle"><textPath startOffset="22.20632615414155" xlink:href="#id51">March</textPath></text><path d="M 117.84615892207809 88.93136811851018 l 12.511179033007894 -7.759744588425569 a35.72220217472835,35.72220217472835 0 0,0 0.3196017828122358,0.5253412973127711 l -12.642896614106354 7.543235517905717" fill="#ff930d" stroke="none" /><path d="M 118.56541770881063 90.18545643968196 l 12.885431218836242 -6.811838439311481 a35.57516657258644,35.57516657258644 0 0,0 0.28153605229149625,0.5438380419015335 l -13.000776704287855 6.589027675149603" fill="#ff910d" stroke="none" /><path d="M 118.73160827565052 90.50648371742162 l 8.87515262390536 -4.498087121271906 a30.949930745898,30.949930745898 0 0,0 0.23675221305304622,0.47727801469907677 l -8.951264849911814 4.344649518073879" fill="#ff4e07" stroke="none" /><path d="M 119.04729006885535 91.15688171328212 l 8.897521319035988 -4.130867603653696 a30.809686681113497,30.809686681113497 0 0,0 0.21918551453540877,0.4829462271378283 l -8.967309150534744 3.9770993676738047" fill="#ff4c07" stroke="none" /><path d="M 119.34039704204932 91.81776055985345 l 13.515882023874038 -5.718092690841245 a35.67568229774457,35.67568229774457 0 0,0 0.23440335536317833,0.5676263177193045 l -13.612307066123414 5.484591802668637" fill="#ff920d" stroke="none" /><path d="M 119.61058180528143 92.48833698450437 l 13.516948754979303 -5.177549807205767 a35.47463041499965,35.47463041499965 0 0,0 0.21351573852650674,0.5721160259045659 l -13.604069082007435 4.944110644271868" fill="#ff8f0d" stroke="none" /><path d="M 119.7369772167798 92.82701384747503 l 13.811733626625003 -5.019581922702783 a35.69558397790195,35.69558397790195 0 0,0 0.2049044132014668,0.5792923688455758 l -13.896091120636278 4.781091927430593" fill="#ff930d" stroke="none" /><path d="M 119.97218684219823 93.5106431181261 l 4.58798199486174 -1.4907257160925202 a25.824089753082447,25.824089753082447 0 0,0 0.1337251498726369,0.4239452687887804 l -4.612962628502582 1.4115302808773207" fill="#ff0000" stroke="none" /><path d="M 120.08093135843002 93.85539295169968 l 9.4926623136922 -2.9046800030697466 a30.927124645234663,30.927124645234663 0 0,0 0.15138695394387905,0.5104015502126422 l -9.541255164747781 2.7408490661105747" fill="#ff4e07" stroke="none" /><path d="M 120.28053869075195 94.5502522615342 l 13.827823175923719 -3.7157863126810824 a35.31837147535016,35.31837147535016 0 0,0 0.15271608011090781,0.5884773534770735 l -13.889735587904928 3.4772125336551585" fill="#ff8d0d" stroke="none" /><path d="M 120.37134235888165 94.90015583598534 l 9.682200840101618 -2.423881282800291 a30.980992615024523,30.980992615024523 0 0,0 0.12505580900551722,0.5184370639414521 l -9.722489449367956 2.2568589871994327" fill="#ff4e07" stroke="none" /><path d="M 120.45610955862082 95.25157060432595 l 13.926664851925407 -3.2327644988933946 a35.29694933204843,35.29694933204843 0 0,0 0.13228895400651863,0.5930254415540717 l -13.980248192933963 2.992560887789359" fill="#ff8d0d" stroke="none" /><path d="M 120.6074358757038 95.95851677861258 l 14.261991161236365 -2.79702910781199 a35.533676882094625,35.533676882094625 0 0,0 0.11254746641111868,0.6012330659319024 l -14.308024351557343 2.551117964417525" fill="#ff900d" stroke="none" /><path d="M 120.73433829027371 96.67025291283417 l 14.359442541572081 -2.3059965216518883 a35.54342497703277,35.54342497703277 0 0,0 0.09181053961840074,0.6049167445436643 l -14.397008974629781 2.0584806647161416" fill="#ff900d" stroke="none" /><path d="M 120.87857604477298 97.74499172005257 l 14.751669301125018 -1.5932665305214266 a35.83746088139861,35.83746088139861 0 0,0 0.060962719568297574,0.6138862664981757 l -14.776909146375544 1.339104733318816" fill="#ff950d" stroke="none" /><path d="M 120.91429891909075 98.10471618934814 l 14.53472540401818 -1.3171576946985537 a35.59428473625601,35.59428473625601 0 0,0 0.05004474428161133,0.6106726389246183 l -14.555244632119287 1.0667711385661667" fill="#ff910d" stroke="none" /><path d="M 120.94382443527127 98.46500227214037 l 9.837046266515387 -0.7209687855538802 a30.86343121024866,30.86343121024866 0 0,0 0.034272236923755986,0.5301763359593894 l -9.847999094443557 0.5515333853414556" fill="#ff4d07" stroke="none" /><line stroke="#e1ed5e" stroke-width="0.3" x1="184.98032266829074" x2="189.97916517819016" y1="98.17113171792111" y2="98.06355123074" /><path d="M 185.9800911702706 98.14961562048488 a86.0,86.0 0 0,1 -9.607161424134198,41.387399972396054" fill="none" id="id52" stroke="none" /><text fill="#e1ed5e" style="font-size:6.75px; font-family:Arial;" text-anchor="middle"><textPath startOffset="21.466115282336823" xlink:href="#id52">April</textPath></text><path d="M 120.99980553446 99.90962569577887 l 16.558935906455073 -0.07126267472965182 a37.55908924798996,37.55908924798996 0 0,0 -0.0027824179498522005,0.6465359414500127 l -16.557709191215718 -0.21378274492404553" fill="#ffad10" stroke="none" /><path d="M 120.99824983174949 100.27111621757518 l 11.167460717241173 0.14418724102425048 a32.1683915060137,32.1683915060137 0 0,0 -0.011914463459900626,0.5536182999963865 l -11.163324191096265 -0.3363953568107518" fill="#ff6008" stroke="none" /><path d="M 120.9764740272857 100.99374915477107 l 16.878272513731552 0.7995990662062075 a37.89720218599706,37.89720218599706 0 0,0 -0.0364781308253382,0.6513415305086363 l -16.862008032018682 -1.090012313050267" fill="#ffb110" stroke="none" /><path d="M 120.92983693683757 101.71520430193887 l 16.931207000639628 1.3875157829539462 a37.987965462245754,37.987965462245754 0 0,0 -0.05901774808658505,0.6512559322658369 l -16.904814656275967 -1.6787531037683538" fill="#ffb310" stroke="none" /><path d="M 120.89721153311464 102.0752229133903 l 15.698597119662214 1.5589682096666968 a36.77581482536538,36.77581482536538 0 0,0 -0.06797869009257998,0.6293982435200064 l -15.66943612806858 -1.8289627750714945" fill="#ffa20e" stroke="none" /><path d="M 120.81339534386255 102.79330883721812 l 16.944423024020246 2.274064648875984 a38.096340007270996,38.096340007270996 0 0,0 -0.09282073282220177,0.6491879891702768 l -16.90276824018144 -2.56539811002667" fill="#ffb410" stroke="none" /><path d="M 120.70491114924044 103.5080841355445 l 16.86985577816341 2.858301250255296 a38.110286964666734,38.110286964666734 0 0,0 -0.11515396625631169,0.6458445969000544 l -16.818155369567908 -3.148264597888569" fill="#ffb410" stroke="none" /><path d="M 120.64145759157962 103.86396538481128 l 16.87397394932362 3.1587135237480184 a38.167075113937166,38.167075113937166 0 0,0 -0.12644218922854622,0.6447259987921838 l -16.81710182711941 -3.4487032496081476" fill="#ffb510" stroke="none" /><path d="M 120.32669344350535 105.2749913415812 l 16.43060952837825 4.263916472198757 a37.974861211683645,37.974861211683645 0 0,0 -0.16964260861533673,0.6313032552570927 l -16.354778843421133 -4.546110660631398" fill="#ffb210" stroke="none" /><path d="M 120.13307415673323 105.97154293290107 l 16.35357013277057 4.850528309477691 a38.05775134560503,38.05775134560503 0 0,0 -0.19169005671351025,0.6264541964522053 l -16.267653303550926 -5.1313094784819535" fill="#ffb410" stroke="none" /><path d="M 120.02730092923936 106.31721596034902 l 16.189984768235608 5.106810475214143 a37.9763105539884,37.9763105539884 0 0,0 -0.2020118174616184,0.6217284449164798 l -16.09968069975774 -5.384737820108418" fill="#ffb210" stroke="none" /><path d="M 119.79798401119884 107.00284435728193 l 15.36193653717231 5.433747725799176 a37.29462207354737,37.29462207354737 0 0,0 -0.21928481052676405,0.6033776194910233 l -15.266127465640318 -5.69737314229633" fill="#ffa90f" stroke="none" /><path d="M 119.67450827220406 107.3425965602758 l 10.42356200903987 3.8901104665231627 a32.12580803348918,32.12580803348918 0 0,0 -0.1978119405433822,0.5164245565975434 l -10.35505578890298 -4.06895858995385" fill="#ff5f08" stroke="none" /><path d="M 119.54520255179757 107.68017299344265 l 15.825581467618527 6.21856965007262 a38.0035183794718,38.0035183794718 0 0,0 -0.24448457057560843,0.6067906541349595 l -15.716194282785526 -6.490059672050393" fill="#ffb310" stroke="none" /><path d="M 119.26925614724726 108.34839909993367 l 15.637307020189779 6.77485829526368 a38.04183311045439,38.04183311045439 0 0,0 -0.26549379978581633,0.5986184302008194 l -15.518372135672688 -7.043025061957187" fill="#ffb310" stroke="none" /><path d="M 119.12269723197855 108.67885076344098 l 12.88302062427485 5.846968763038102 a35.147765340202476,35.147765340202476 0 0,0 -0.2547800974350484,0.5487736635735732 l -12.78046590999997 -6.067862493890506" fill="#ff8b0c" stroke="none" /><path d="M 118.81262510543309 109.33194174019688 l 15.292811658482618 7.5859496822454755 a38.07093204846713,38.07093204846713 0 0,0 -0.2962667789446219,0.5845624616943401 l -15.159966209751728 -7.848066355642509" fill="#ffb410" stroke="none" /><line stroke="#e1ed5e" stroke-width="0.3" x1="174.80103733775053" x2="179.2010983576182" y1="140.37084112569926" y2="142.7455964860345" /><path d="M 175.68104954172406 140.8457921977663 a86.0,86.0 0 0,1 -30.038265399797805,32.042727171017184" fill="none" id="id53" stroke="none" /><text fill="#e1ed5e" style="font-size:6.75px; font-family:Arial;" text-anchor="middle"><textPath startOffset="22.206326154141568" xlink:href="#id53">May</textPath></text><path d="M 118.48025628344425 109.97397251340804 l 15.137199297597212 8.169692422473037 a38.201124290376804,38.201124290376804 0 0,0 -0.31729415531984173,0.5759810562230012 l -14.99432873282586 -8.429043997093842" fill="#ffb610" stroke="none" /><path d="M 118.30583269289576 110.29060199501025 l 15.06574870059284 8.469192646713681 a38.28305551679343,38.28305551679343 0 0,0 -0.32786338647061586,0.5716574499986078 l -14.917733317969844 -8.727269942570604" fill="#ffb710" stroke="none" /><path d="M 118.12598468904814 110.60418214915192 l 15.345990266560808 8.977811624438097 a38.77921592267991,38.77921592267991 0 0,0 -0.34203106734800653,0.5732637424654954 l -15.189178323514573 -9.240637460789697" fill="#ffbd11" stroke="none" /><path d="M 117.94076556474637 110.91462005526583 l 9.372624957888547 5.70202202167294 a31.970831952813718,31.970831952813718 0 0,0 -0.29007495172592224,0.46769318405755766 l -9.273085366494662 -5.862511537095771" fill="#ff5d08" stroke="none" /><path d="M 117.55443506779139 111.5257021239791 l 14.03004125347927 9.211693549252196 a37.78384209946175,37.78384209946175 0 0,0 -0.36163975845921303,0.5406023709697534 l -13.869398389609335 -9.451832834427757" fill="#ffb010" stroke="none" /><path d="M 117.14729908036423 112.12312394758627 l 14.109973191192557 9.975737467005985 a38.280239624114,38.280239624114 0 0,0 -0.3850266743484303,0.5347683752853843 l -13.936166724468524 -10.2171394477425" fill="#ffb710" stroke="none" /><path d="M 116.71984013943494 112.70617746262583 l 13.556868822346988 10.302489716274382 a38.027330578228145,38.027330578228145 0 0,0 -0.4005422039666168,0.5177547922593064 l -13.377519801162304 -10.534322502646942" fill="#ffb310" stroke="none" /><path d="M 116.27256486870786 113.27417163493432 l 13.212346191883464 10.777830813167839 a38.050739835310594,38.050739835310594 0 0,0 -0.4183841921420624,0.5039707116040126 l -13.024865999847858 -11.003662781885621" fill="#ffb310" stroke="none" /><path d="M 115.80600337817218 113.82643327865902 l 16.23557148414923 14.202201562002164 a42.57072809676707,42.57072809676707 0 0,0 -0.4872141791468954,0.5473902951935882 l -15.988698455353994 -14.479566026936618" fill="#fff016" stroke="none" /><path d="M 115.56566222782051 114.09645910891815 l 8.653819607975299 7.837007668183134 a32.67507100614549,32.67507100614549 0 0,0 -0.3811369529500084,0.41364888696481256 l -8.517636247029568 -7.984807809949282" fill="#ff6709" stroke="none" /><path d="M 114.55890576462653 115.13401014063108 l 14.028429594576378 14.582579156277285 a41.234832634323396,41.234832634323396 0 0,0 -0.5157577575204405,0.48768115171166015 l -13.775336002665131 -14.821894944734867" fill="#ffdf14" stroke="none" /><path d="M 114.29624159901734 115.38237550388516 l 11.660191480784047 12.546055728167845 a38.127859752544744,38.127859752544744 0 0,0 -0.4845877593246865,0.44265942867822405 l -11.442504171992496 -12.744907923432653" fill="#ffb510" stroke="none" /><path d="M 114.0293411484842 115.62618273729858 l 4.043463479767614 4.503696827792131 a27.052510390646127,27.052510390646127 0 0,0 -0.3491804673551727,0.3081111639241549 l -3.9653406595058542 -4.572631133488575" fill="#ff1302" stroke="none" /><path d="M 113.75828350139079 115.86535959552629 l 11.336622196428712 13.072821746025584 a38.303689526454164,38.303689526454164 0 0,0 -0.5018413030096054,0.427680045639346 l -11.109915416842059 -13.266026181887877" fill="#ffb711" stroke="none" /><path d="M 113.20401910651253 116.32954008644616 l 10.733227067852074 13.273887310188217 a38.07039096253065,38.07039096253065 0 0,0 -0.5131209005364463,0.40765427657328057 l -10.503148674598275 -13.456675500766623" fill="#ffb410" stroke="none" /><path d="M 112.34349029814194 116.9893568818739 l 10.020993234812812 13.792713913560291 a38.04873199136768,38.04873199136768 0 0,0 -0.5331762873838761,0.3804071243399557 l -9.782089619580052 -13.963165299744468" fill="#ffb310" stroke="none" /><path d="M 112.04921762599082 117.19931262002967 l 9.977279121160981 14.241782996099845 a38.38891835536511,38.38891835536511 0 0,0 -0.5444702399485583,0.3744915957813307 l -9.73065199658954 -14.41141538124627" fill="#ffb811" stroke="none" /><path d="M 111.45004920935366 117.60387380957326 l 9.46284720868002 14.548650848137175 a38.35536570619662,38.35536570619662 0 0,0 -0.5565513295153903,0.35521739081149256 l -9.2110140771177 -14.709382667772477" fill="#ffb811" stroke="none" /><line stroke="#e1ed5e" stroke-width="0.3" x1="143.8653032363475" x2="146.44561519142675" y1="172.8068346515853" y2="177.08958963109032" /><path d="M 144.38136562736335 173.6633856474863 a86.0,86.0 0 0,1 -40.68145358897372,12.25698825130547" fill="none" id="id54" stroke="none" /><text fill="#e1ed5e" style="font-size:6.75px; font-family:Arial;" text-anchor="middle"><textPath startOffset="21.466115282336833" xlink:href="#id54">June</textPath></text><path d="M 110.8373102113329 117.98757091392108 l 8.663028667768822 14.378737846580233 a37.786785510015406,37.786785510015406 0 0,0 -0.5600219857750466,0.3308708603814996 l -8.414238810965394 -14.52572727925548" fill="#ffb010" stroke="none" /><path d="M 109.57404056367764 118.69057910512821 l 7.709790694332009 15.051163810929278 a37.91089603225789,37.91089603225789 0 0,0 -0.5833694242413942,0.29251353986522466 l -7.449567362407854 -15.181645191703804" fill="#ffb210" stroke="none" /><path d="M 108.59647513512805 119.15986991738527 l 6.935514805757651 15.457912621117218 a37.942503599615335,37.942503599615335 0 0,0 -0.598189452074114,0.26222867662175897 l -6.668404679025783 -15.575005851033431" fill="#ffb210" stroke="none" /><path d="M 107.59598834532513 119.57807347666477 l 8.273814716077093 21.325118612558143 a43.8739304404741,43.8739304404741 0 0,0 -0.7064324959150746,0.2671123229292652 l -7.905511999401742 -21.464379185594037" fill="#fdff18" stroke="none" /><path d="M 107.2578585660854 119.70592522655815 l 6.3794871387414736 17.321045236023902 a39.45850655447927,39.45850655447927 0 0,0 -0.639378949869176,0.22925854340966031 l -6.080388628242563 -17.428291320473523" fill="#ffc712" stroke="none" /><path d="M 106.57524785965236 119.94407469862006 l 5.616498893226665 17.035992537800976 a38.937951431688816,38.937951431688816 0 0,0 -0.6383574068483866,0.2043818830103648 l -5.322420141287338 -17.130147267471045" fill="#ffc011" stroke="none" /><path d="M 105.88484417918355 120.15858648285463 l 4.848795605893758 16.60959280873529 a38.30287236558502,38.30287236558502 0 0,0 -0.6344940699073541,0.1793143619457789 l -4.562170367881798 -16.690595964019586" fill="#ffb711" stroke="none" /><path d="M 105.18746579009965 120.34920634021253 l 4.786340268029678 18.77568540586616 a40.37615585252704,40.37615585252704 0 0,0 -0.6749484231774185,0.16588590100345946 l -4.462438560109049 -18.85529256518365" fill="#ffd313" stroke="none" /><path d="M 104.83641907484287 120.43548508189849 l 3.9736422281942327 16.78996489312776 a38.253775055626264,38.253775055626264 0 0,0 -0.6420802341317241,0.14613537085461123 l -3.684041844669647 -16.855876997560056" fill="#ffb610" stroke="none" /><path d="M 104.48393922423573 120.51570834832081 l 2.466090620978388 11.283292081003948 a32.54964428612951,32.54964428612951 0 0,0 -0.5483972417080513,0.11492197396642928 l -2.2715019178409586 -11.324070035696918" fill="#ff6509" stroke="none" /><path d="M 103.7750983002368 120.6578951692458 l 3.0641990572363382 16.76774957042028 a38.045431690593745,38.045431690593745 0 0,0 -0.6452342679711823,0.11218224814588208 l -2.775115817793106 -16.818010397087168" fill="#ffb310" stroke="none" /><path d="M 102.70371172650421 120.8252237178851 l 2.7494054669453387 21.177177795631344 a42.35490786234982,42.35490786234982 0 0,0 -0.7238102348087063,0.08764333938308994 l -2.384467809085252 -21.221366663739786" fill="#ffed16" stroke="none" /><path d="M 101.98527174616119 120.90594882070398 l 1.5612901027669515 16.441200579130882 a37.51516585651539,37.51516585651539 0 0,0 -0.6433952454329771,0.055514849041960586 l -1.2780505395924326 -16.465639680451506" fill="#ffac0f" stroke="none" /><path d="M 100.90346689309514 120.98055641714683 l 0.7333692994877271 17.030503364427528 a38.046286263441914,38.046286263441914 0 0,0 -0.6545404248258001,0.022543695672121278 l -0.44010852298727476 -17.040603858525742" fill="#ffb310" stroke="none" /><line stroke="#e1ed5e" stroke-width="0.3" x1="102.19456741930631" x2="102.32365962044197" y1="184.97166512339345" y2="189.96999836594603" /><path d="M 102.22038585953345 185.97133177190398 a86.0,86.0 0 0,1 -42.740103519485714,-10.115201625700543" fill="none" id="id55" stroke="none" /><text fill="#e1ed5e" style="font-size:6.75px; font-family:Arial;" text-anchor="middle"><textPath startOffset="22.20632615414155" xlink:href="#id55">July</textPath></text><path d="M 100.18074693466247 120.99922214144158 l 0.22244854540032094 25.844125260686983 a46.84508258538614,46.84508258538614 0 0,0 -0.806390960125535,0.0 l 0.22244854540030312 -25.844125260686983" fill="#d7ff1c" stroke="none" /><path d="M 99.81925306533755 120.99922214144158 l -0.14354167374764773 16.67670602110315 a37.67732376391369,37.67732376391369 0 0,0 -0.6484811231068246,-0.01116419062768622 l 0.4305824867471402 -16.671764353196306" fill="#ffae10" stroke="none" /><path d="M 95.86986931433489 120.58985236759428 l -1.3991001318586396 6.974904029655918 a28.113843363602914,28.113843363602914 0 0,0 -0.47366275400378477,-0.09926063543818937 l 1.518954347291811 -6.949787413491188" fill="#ff2303" stroke="none" /><path d="M 95.16358092515715 120.4354850818985 l -3.3174153221855702 14.017187153945612 a35.40440141514424,35.40440141514424 0 0,0 -0.5918380391628197,-0.14545939067826774 l 3.5582066460916004 -13.958006504953314" fill="#ff8e0d" stroke="none" /><path d="M 94.81253420990036 120.34920634021253 l -2.7924801951837166 10.954242011812656 a32.30457268957366,32.30457268957366 0 0,0 -0.537655090280807,-0.14199959601423387 l 2.980625728276013 -10.904551066494841" fill="#ff6209" stroke="none" /><path d="M 94.46302465271185 120.25689768951611 l -4.483504370191474 16.402798210389175 a38.004517063659065,38.004517063659065 0 0,0 -0.6295517598896833,-0.17791761576738466 l 4.765187298185771 -16.32319180128327" fill="#ffb310" stroke="none" /><path d="M 93.76903079525671 120.05430185196036 l -5.189832782630074 16.703416397056447 a38.49109726818521,38.49109726818521 0 0,0 -0.6310315806411706,-0.20203638480078095 l 5.476585708362184 -16.61160716559596" fill="#ffb911" stroke="none" /><path d="M 92.7421414339146 119.70592522655815 l -6.268398851858439 17.019427692098112 a39.13708199056663,39.13708199056663 0 0,0 -0.6301625187408095,-0.23827354372448162 l 6.5604315913595315 -16.909005898267" fill="#ffc212" stroke="none" /><path d="M 92.40401165467489 119.57807347666478 l -6.128510955486442 15.795763807734383 a37.9429867733304,37.9429867733304 0 0,0 -0.6068690271040107,-0.24148571023402313 l 6.3995010586323104 -15.687931253094293" fill="#ffb210" stroke="none" /><path d="M 90.42595943632237 118.69057910512821 l -3.2672197287384943 6.378313146645505 a28.166421935145106,28.166421935145106 0 0,0 -0.42961719948115457,-0.22475541380574002 l 3.3765278307461446 -6.3211283138950485" fill="#ff2403" stroke="none" /><path d="M 90.10565033884886 118.52300852407294 l -8.16752720875948 15.290259722926377 a38.334951488261254,38.334951488261254 0 0,0 -0.5793637671664966,-0.3159153199704518 l 8.429513787794617 -15.14740375119616" fill="#ffb711" stroke="none" /><line stroke="#e1ed5e" stroke-width="0.3" x1="58.666819895761336" x2="56.23545636021788" y1="174.27360380694188" y2="178.64263932499728" /><path d="M 58.180547188652646 175.14741091055294 a86.0,86.0 0 0,1 -31.652253787137756,-30.449443065178592" fill="none" id="id56" stroke="none" /><text fill="#e1ed5e" style="font-size:6.75px; font-family:Arial;" text-anchor="middle"><textPath startOffset="22.20632615414155" xlink:href="#id56">August</textPath></text><path d="M 89.1626897886671 117.98757091392108 l -9.562197130941186 15.871161351995895 a39.52914937691604,39.52914937691604 0 0,0 -0.5798000103368075,-0.35616052183696884 l 9.833976341210303 -15.704212363330548" fill="#ffc812" stroke="none" /><path d="M 88.24862548938628 117.40417183066458 l -8.047194063371393 11.918158859384809 a35.38053694724548,35.38053694724548 0 0,0 -0.5018023499086919,-0.3451442319453135 l 8.251153297902976 -11.777873838074395" fill="#ff8e0d" stroke="none" /><path d="M 87.95078237400918 117.19931262002967 l -7.350864645656965 10.492782435555135 a33.811467296085326,33.811467296085326 0 0,0 -0.4737995633604285,-0.3380434082990302 l 7.53039153686628 -10.364694765411887" fill="#ff780b" stroke="none" /><path d="M 82.85270091963577 112.12312394758628 l -10.461397727054937 7.396198125179636 a33.81189248747198,33.81189248747198 0 0,0 -0.3319025164047112,-0.47813032934038624 l 10.587161150621782 -7.215026533652237" fill="#ff780b" stroke="none" /><path d="M 82.6465618267979 111.8261652097733 l -8.84497804749779 6.027749119368052 a31.703616029490227,31.703616029490227 0 0,0 -0.30344420805610123,-0.4536079191930683 l 8.94742536096462 -5.874604285969164" fill="#ff5908" stroke="none" /><line stroke="#e1ed5e" stroke-width="0.3" x1="26.63291911575756" x2="22.317208475507996" y1="142.92168965132927" y2="145.44649492493687" /><path d="M 25.769776987707644 143.4266507060508 a86.0,86.0 0 0,1 -11.730757126820373,-40.83630448921669" fill="none" id="id57" stroke="none" /><text fill="#e1ed5e" style="font-size:6.75px; font-family:Arial;" text-anchor="middle"><textPath startOffset="21.46611528233685" xlink:href="#id57">September</textPath></text><path d="M 79.50377843672027 104.57218783832718 l -7.197640218598893 1.605611208413696 a28.374551652065094,28.374551652065094 0 0,0 -0.10223751078650062,-0.4776196137746319 l 7.224211768109834 -1.4814777752229003" fill="#ff2703" stroke="none" /><path d="M 79.18660465613746 102.79330883721812 l -17.082243119375946 2.292561106755309 a38.23539574299569,38.23539574299569 0 0,0 -0.08193024294210925,-0.6530646481336834 l 17.119174871564905 -1.9981787043342172" fill="#ffb610" stroke="none" /><path d="M 79.1416061653843 102.43462659150553 l -14.145708572399473 1.6511107479856464 a35.2417427907321,35.2417427907321 0 0,0 -0.06514301648705319,-0.6031434277228371 l 14.172033890387578 -1.4073709983780271" fill="#ff8c0c" stroke="none" /><line stroke="#e1ed5e" stroke-width="0.3" x1="15.007084014347285" x2="10.007500721073583" y1="101.09737516637583" y2="101.16192664675087" /><path d="M 14.007167355692545 101.11028546245083 a86.0,86.0 0 0,1 10.666146001902534,-42.60595125391555" fill="none" id="id58" stroke="none" /><text fill="#e1ed5e" style="font-size:6.75px; font-family:Arial;" text-anchor="middle"><textPath startOffset="22.20632615414155" xlink:href="#id58">October</textPath></text><path d="M 79.00175016825051 100.2711162175752 l -17.279239604520974 0.22309869259056656 a38.28067979962252,38.28067979962252 0 0,0 -0.0028358741582828573,-0.6589572816896937 l 17.28051977596876 0.07436806730280252" fill="#ffb710" stroke="none" /><path d="M 79.00019446554 99.90962569577889 l -7.153311257356162 -0.03078483401666862 a28.15337749951894,28.15337749951894 0 0,0 0.006256743447739145,-0.48459167520058233 l 7.151721506790707 0.1539127672777229" fill="#ff2403" stroke="none" /><path d="M 79.01574976396665 99.18683210126434 l -12.905376472093986 -0.5001006826627004 a33.915062623900695,33.915062623900695 0 0,0 0.027626873715707965,-0.5831596396036023 l 12.894855990144778 0.7221714288893117" fill="#ff790b" stroke="none" /><path d="M 79.03285615573316 98.82574320788736 l -16.455231780919302 -0.9215688998010968 a37.48101763244179,37.48101763244179 0 0,0 0.041620722844843396,-0.6438541606417341 l 16.436930467070045 1.2046821246958428" fill="#ffac0f" stroke="none" /><path d="M 79.26566170972629 96.67025291283419 l -15.728651305418976 -2.525879058018118 a36.93017692629911,36.93017692629911 0 0,0 0.10619736372895311,-0.6267828522163761 l 15.6828420801698 2.796247698550322" fill="#ffa40f" stroke="none" /><path d="M 79.54389044137918 95.25157060432595 l -17.512577824695256 -4.065154182837636 a38.978205155027304,38.978205155027304 0 0,0 0.15733682389767328,-0.6522627111850678 l 17.440008200536766 4.366002125682101" fill="#ffc011" stroke="none" /><path d="M 79.62865764111835 94.90015583598534 l -4.781804742525076 -1.1970963218823873 a25.929370771153216,25.929370771153216 0 0,0 0.1121181894435976,-0.43203711981406306 l 4.760490221211172 1.2792298672453142" fill="#ff0200" stroke="none" /><path d="M 80.2630227832202 92.82701384747504 l -9.049370620830697 -3.2888020003944325 a30.62846442746465,30.62846442746465 0 0,0 0.18434749356536456,-0.4939596309477208 l 8.991418538763705 3.4440847683714946" fill="#ff4906" stroke="none" /><path d="M 80.38941819471856 92.48833698450439 l -13.48503064055122 -5.165323850727031 a35.44045088837238,35.44045088837238 0 0,0 0.22311696202590378,-0.5678083318255102 l 13.394120128643623 5.396681187448305" fill="#ff8f0d" stroke="none" /><path d="M 80.65960295795068 91.81776055985345 l -14.523387924589798 -6.14433288121033 a36.76964246149047,36.76964246149047 0 0,0 0.25162567702282,-0.5807867551295852 l 14.415471537724297 6.393418780926514" fill="#ffa20e" stroke="none" /><path d="M 80.803312248108 91.48605970444005 l -14.265719774711041 -6.327002241473033 a36.60582320975688,36.60582320975688 0 0,0 0.26042024634223065,-0.5738014928033364 l 14.154697211405459 6.571625743118441" fill="#ff9f0e" stroke="none" /><path d="M 80.95270993114464 91.15688171328213 l -14.238050321261364 -6.610324235521136 a36.69772160058551,36.69772160058551 0 0,0 0.2709371923260641,-0.5706628246373079 l 14.122154935093548 6.854429475798977" fill="#ffa10e" stroke="none" /><path d="M 81.43458229118936 90.18545643968196 l -22.601729382923295 -11.948325701389878 a46.565614762125165,46.565614762125165 0 0,0 0.38071137664617416,-0.7054003608879119 l 22.39270990705865 12.335607045610262" fill="#dbff1b" stroke="none" /><path d="M 81.6062741919709 89.86733742301443 l -13.764150565991253 -7.582340565451665 a36.71444333260874,36.71444333260874 0 0,0 0.30969919478922403,-0.550920310365234 l 13.631593729909598 7.818144385751684" fill="#ffa10e" stroke="none" /><line stroke="#e1ed5e" stroke-width="0.3" x1="26.266209847984243" x2="21.928928074336255" y1="57.711370442889674" y2="55.22380399835377" /><path d="M 25.398753493254645 57.213857153982495 a86.0,86.0 0 0,1 29.58750427330803,-30.492523968695096" fill="none" id="id59" stroke="none" /><text fill="#e1ed5e" style="font-size:6.75px; font-family:Arial;" text-anchor="middle"><textPath startOffset="21.46611528233685" xlink:href="#id59">November</textPath></text><path d="M 81.78341655067845 89.55222093294921 l -13.519334287390848 -7.753760092347321 a36.58503112425188,36.58503112425188 0 0,0 0.3180115948063919,-0.5435849004971537 l 13.383863018114132 7.985324405198366" fill="#ff9f0e" stroke="none" /><path d="M 82.15384107792192 88.93136811851018 l -14.615260898455093 -9.064748523381091 a38.198125389764144,38.198125389764144 0 0,0 0.35137255716375543,-0.555787003130942 l 14.457060745045375 9.31498317422625" fill="#ffb510" stroke="none" /><path d="M 82.54541684631803 88.32363383020206 l -26.479041169418217 -17.713340834155744 a52.85752759959119,52.85752759959119 0 0,0 0.5124047345007656,-0.7518907204565921 l 26.17021196924871 18.166509577882753" fill="#8fff24" stroke="none" /><path d="M 82.7489923806493 88.02491185347247 l -14.055541600347567 -9.756899615680636 a38.11009467506156,38.11009467506156 0 0,0 0.37871884841736986,-0.5356709532345182 l 13.885510132126319 9.99739706924694" fill="#ffb410" stroke="none" /><path d="M 83.17141714833178 87.43820079747576 l -12.666216934580719 -9.454775555984645 a36.80587967333372,36.80587967333372 0 0,0 0.3833491155130715,-0.5044425003369768 l 12.501591878843538 9.671402832202649" fill="#ffa20f" stroke="none" /><path d="M 84.07557802195018 86.31012108654704 l -33.35552566337067 -28.675019291471887 a64.98690513830297,64.98690513830297 0 0,0 0.7365434373243311,-0.8419964732689172 l 32.8569903624685 29.244931320943746" fill="#34ff5a" stroke="none" /><path d="M 84.31358615837235 86.03803664274999 l -12.979962101423496 -11.553039277699204 a38.37676991579421,38.37676991579421 0 0,0 0.4434460606039197,-0.48966421583498165 l 12.77917240020353 11.774756280803743" fill="#ffb811" stroke="none" /><path d="M 84.80347519578584 85.50635884689758 l -11.594034917357153 -11.057776943983583 a37.02173762760431,37.02173762760431 0 0,0 0.4437949705083304,-0.4573697277880848 l 11.401975683145704 11.255710867321792" fill="#ffa50f" stroke="none" /><path d="M 85.05521093208273 85.24692304244772 l -21.200257489694103 -20.92830008131853 a50.79000943140247,50.79000943140247 0 0,0 0.6195515297852299,-0.6168909786235044 l 20.836870159741558 21.290126910592143" fill="#a7ff21" stroke="none" /><path d="M 85.57189188830299 84.74124197986013 l -11.0101944760018 -11.644069476287832 a37.02525308280648,37.02525308280648 0 0,0 0.4668569103251121,-0.43389261824305686 l 10.808129681881832 11.831866680605536" fill="#ffa50f" stroke="none" /><path d="M 86.10567301691215 84.25364557470407 l -41.68298094926353 -47.23906327588782 a84.0,84.0 0 0,0 1.092424805412906,-0.9473400263212777 l 40.863662345203856 47.94956829562878" fill="#4dd2ff" stroke="none" /><line stroke="#e1ed5e" stroke-width="0.3" x1="56.762969772571076" x2="54.21961505331055" y1="26.818313649435495" y2="22.513508569990535" /><path d="M 56.25429882871897 25.957352633546506 a86.0,86.0 0 0,1 42.265352541879196,-11.944610805530505" fill="none" id="id60" stroke="none" /><text fill="#e1ed5e" style="font-size:6.75px; font-family:Arial;" text-anchor="middle"><textPath startOffset="22.20632615414155" xlink:href="#id60">December</textPath></text><path d="M 89.94658935756843 81.56283822128135 l -7.522726036903702 -13.796085914762392 a36.713796282051455,36.713796282051455 0 0,0 0.5574464669182283,-0.2977685970340162 l 7.284134523457168 13.923533238298157" fill="#ffa10e" stroke="none" /><path d="M 90.26544431104013 81.39251694778311 l -4.857413142233079 -9.284885269517119 a31.478719239603407,31.478719239603407 0 0,0 0.48228322759429537,-0.2470442011559854 l 4.69686942705002 9.36712199598561" fill="#ff5607" stroke="none" /><path d="M 91.56875222667455 80.76684994638697 l -6.876894580085114 -15.687398700357194 a38.128518822407635,38.128518822407635 0 0,0 0.6033679093373336,-0.25833065029199764 l 6.605842912957472 15.803448878611979" fill="#ffb510" stroke="none" /><path d="M 97.47563105711357 79.15227682838746 l -2.064892847096367 -17.053099380190204 a38.17765935570482,38.17765935570482 0 0,0 0.6530803058396618,-0.07338118183891953 l 1.771045837746987 17.08611651549972" fill="#ffb510" stroke="none" /></svg>